<svg width="25" height="25" viewBox="0 0 25 25" fill="none" xmlns="http://www.w3.org/2000/svg">
<g clip-path="url(#clip0_43_1107)">
<path fill-rule="evenodd" clip-rule="evenodd" d="M12.5003 0.520874C9.53286 0.522414 6.66269 1.57343 4.40304 3.486C2.1434 5.39857 0.641622 8.04797 0.166248 10.9605C-0.309126 13.8729 0.272896 16.8586 1.80825 19.3836C3.34361 21.9085 5.73218 23.8081 8.54686 24.7427C9.16782 24.858 9.40172 24.4731 9.40172 24.1459C9.40172 23.8186 9.3893 22.8698 9.38516 21.8326C5.90776 22.5838 5.17296 20.3651 5.17296 20.3651C4.60581 18.9245 3.78614 18.5458 3.78614 18.5458C2.65184 17.776 3.87101 17.7904 3.87101 17.7904C5.12742 17.8789 5.78772 19.0726 5.78772 19.0726C6.90131 20.9723 8.71245 20.4228 9.42448 20.1017C9.53626 19.297 9.86123 18.7495 10.2193 18.4387C7.44155 18.1259 4.52301 17.0598 4.52301 12.2974C4.5058 11.0622 4.96675 9.8678 5.81048 8.96117C5.68215 8.64833 5.25368 7.38466 5.9326 5.6682C5.9326 5.6682 6.98204 5.33479 9.37068 6.94217C11.4195 6.38507 13.5812 6.38507 15.63 6.94217C18.0166 5.33479 19.0639 5.6682 19.0639 5.6682C19.7449 7.38054 19.3164 8.64422 19.1881 8.96117C20.0345 9.86795 20.4964 11.0645 20.4776 12.3015C20.4776 17.0742 17.5529 18.1259 14.771 18.4326C15.2181 18.8195 15.6176 19.5748 15.6176 20.7356C15.6176 22.3985 15.6031 23.7363 15.6031 24.1459C15.6031 24.4772 15.8287 24.8641 16.4621 24.7427C19.2771 23.808 21.6659 21.9081 23.2012 19.3827C24.7365 16.8573 25.3183 13.8712 24.8424 10.9584C24.3664 8.04567 22.8639 5.39624 20.6035 3.484C18.3431 1.57177 15.4723 0.521438 12.5045 0.520874H12.5003Z" fill="#979797"/>
<path d="M4.73375 18.3667C4.70684 18.4284 4.60749 18.4469 4.52676 18.4037C4.44604 18.3605 4.38602 18.2802 4.415 18.2164C4.44397 18.1526 4.54126 18.1361 4.62198 18.1794C4.70271 18.2226 4.7648 18.3049 4.73375 18.3667Z" fill="#979797"/>
<path d="M5.24095 18.9285C5.19808 18.95 5.14904 18.9559 5.10222 18.9454C5.0554 18.9349 5.01371 18.9086 4.98428 18.8709C4.90356 18.7844 4.88699 18.665 4.94908 18.6115C5.01118 18.558 5.12296 18.5827 5.20369 18.6692C5.28441 18.7556 5.30304 18.875 5.24095 18.9285Z" fill="#979797"/>
<path d="M5.73353 19.6426C5.65695 19.6962 5.52654 19.6426 5.45409 19.5356C5.43406 19.5164 5.41813 19.4934 5.40725 19.4679C5.39636 19.4425 5.39075 19.4151 5.39075 19.3874C5.39075 19.3598 5.39636 19.3324 5.40725 19.3069C5.41813 19.2815 5.43406 19.2585 5.45409 19.2393C5.53068 19.1878 5.66109 19.2393 5.73353 19.3442C5.80598 19.4492 5.80805 19.5891 5.73353 19.6426V19.6426Z" fill="#979797"/>
<path d="M6.4021 20.3342C6.3338 20.4104 6.19512 20.3898 6.08127 20.2869C5.96743 20.184 5.94051 20.044 6.00882 19.9699C6.07713 19.8958 6.21581 19.9164 6.33379 20.0173C6.45178 20.1181 6.47455 20.2601 6.4021 20.3342V20.3342Z" fill="#979797"/>
<path d="M7.33972 20.7377C7.30868 20.8344 7.16792 20.8776 7.02717 20.8364C6.88642 20.7953 6.79327 20.68 6.82018 20.5812C6.84709 20.4825 6.98991 20.4372 7.13274 20.4825C7.27556 20.5277 7.36663 20.6368 7.33972 20.7377Z" fill="#979797"/>
<path d="M8.36226 20.8076C8.36226 20.9085 8.24636 20.9949 8.09733 20.997C7.94829 20.999 7.82617 20.9167 7.82617 20.8158C7.82617 20.715 7.94208 20.6286 8.09111 20.6265C8.24014 20.6244 8.36226 20.7047 8.36226 20.8076Z" fill="#979797"/>
<path d="M9.31445 20.649C9.33308 20.7499 9.22959 20.8549 9.08056 20.8795C8.93153 20.9042 8.80112 20.8446 8.78249 20.7458C8.76387 20.647 8.8715 20.54 9.01639 20.5132C9.16128 20.4865 9.29583 20.5482 9.31445 20.649Z" fill="#979797"/>
</g>
<defs>
<clipPath id="clip0_43_1107">
<rect width="25" height="25" fill="white"/>
</clipPath>
</defs>
</svg>
