<svg width="26" height="26" viewBox="0 0 26 26" fill="none" xmlns="http://www.w3.org/2000/svg">
<path d="M8.66667 11.9166C11.6582 11.9166 14.0833 9.49152 14.0833 6.49998C14.0833 3.50844 11.6582 1.08331 8.66667 1.08331C5.67512 1.08331 3.25 3.50844 3.25 6.49998C3.25 9.49152 5.67512 11.9166 8.66667 11.9166Z" fill="white"/>
<path d="M0 22.0833C0 17.665 3.58172 14.0833 8 14.0833H9.33334C13.7516 14.0833 17.3333 17.665 17.3333 22.0833V22.9166C17.3333 24.0212 16.4379 24.9166 15.3333 24.9166H2C0.895431 24.9166 0 24.0212 0 22.9166V22.0833Z" fill="white"/>
<path d="M18.4166 14.0833C20.2116 14.0833 21.6666 12.6282 21.6666 10.8333C21.6666 9.03839 20.2116 7.58331 18.4166 7.58331C16.6217 7.58331 15.1666 9.03839 15.1666 10.8333C15.1666 12.6282 16.6217 14.0833 18.4166 14.0833Z" fill="white"/>
<path d="M20.5834 10.8334V2.16669L23.8334 3.25002" stroke="white" stroke-width="2" stroke-linecap="round" stroke-linejoin="round"/>
</svg>
