<svg width="25" height="25" viewBox="0 0 25 25" fill="none" xmlns="http://www.w3.org/2000/svg">
<path d="M18.3476 16.159C19.8605 14.0945 20.5381 11.5349 20.2449 8.99231C19.9516 6.44969 18.7092 4.11154 16.766 2.44565C14.8229 0.779765 12.3224 -0.0910108 9.76484 0.00753735C7.20726 0.106085 4.7812 1.16669 2.97202 2.97716C1.16285 4.78763 0.103978 7.21445 0.00725994 9.7721C-0.089458 12.3298 0.783107 14.8296 2.45039 16.7715C4.11766 18.7135 6.4567 19.9543 8.99953 20.2457C11.5424 20.5371 14.1015 19.8577 16.1649 18.3433H16.1633C16.2102 18.4058 16.2602 18.4652 16.3164 18.523L22.3318 24.5384C22.6248 24.8316 23.0222 24.9963 23.4367 24.9965C23.8512 24.9966 24.2487 24.8321 24.5419 24.5392C24.8351 24.2462 24.9999 23.8487 25 23.4343C25.0001 23.0198 24.8356 22.6223 24.5427 22.3291L18.5273 16.3137C18.4714 16.2571 18.4113 16.2049 18.3476 16.1574V16.159ZM18.7507 10.153C18.7507 11.2815 18.5284 12.3989 18.0966 13.4415C17.6647 14.4841 17.0317 15.4315 16.2337 16.2294C15.4358 17.0274 14.4884 17.6604 13.4458 18.0923C12.4032 18.5241 11.2858 18.7464 10.1573 18.7464C9.02877 18.7464 7.91131 18.5241 6.86871 18.0923C5.82611 17.6604 4.87877 17.0274 4.0808 16.2294C3.28283 15.4315 2.64984 14.4841 2.21798 13.4415C1.78612 12.3989 1.56384 11.2815 1.56384 10.153C1.56384 7.87386 2.46922 5.68808 4.0808 4.0765C5.69238 2.46492 7.87815 1.55955 10.1573 1.55955C12.4364 1.55955 14.6222 2.46492 16.2337 4.0765C17.8453 5.68808 18.7507 7.87386 18.7507 10.153Z" fill="#979797"/>
</svg>
