<svg width="26" height="19" viewBox="0 0 26 19" fill="none" xmlns="http://www.w3.org/2000/svg">
<path d="M25.741 3.9457C25.741 3.9457 25.4871 2.15312 24.7051 1.36602C23.7148 0.330078 22.6078 0.325 22.1 0.264062C18.4641 -1.45286e-07 13.0051 0 13.0051 0H12.9949C12.9949 0 7.53594 -1.45286e-07 3.9 0.264062C3.39219 0.325 2.28516 0.330078 1.29492 1.36602C0.512891 2.15312 0.264062 3.9457 0.264062 3.9457C0.264062 3.9457 0 6.05312 0 8.15547V10.1258C0 12.2281 0.258984 14.3355 0.258984 14.3355C0.258984 14.3355 0.512891 16.1281 1.28984 16.9152C2.28008 17.9512 3.58008 17.9156 4.15898 18.0273C6.24102 18.2254 13 18.2863 13 18.2863C13 18.2863 18.4641 18.2762 22.1 18.0172C22.6078 17.9562 23.7148 17.9512 24.7051 16.9152C25.4871 16.1281 25.741 14.3355 25.741 14.3355C25.741 14.3355 26 12.2332 26 10.1258V8.15547C26 6.05312 25.741 3.9457 25.741 3.9457ZM10.3137 12.5176V5.21016L17.3367 8.87656L10.3137 12.5176Z" fill="white"/>
</svg>
