<svg width="24" height="24" viewBox="0 0 24 24" fill="none" xmlns="http://www.w3.org/2000/svg">
<path d="M0 5C0 2.23858 2.23858 0 5 0H19C21.7614 0 24 2.23858 24 5V19C24 21.7614 21.7614 24 19 24H5C2.23858 24 0 21.7614 0 19V5Z" fill="#FA6E6E"/>
<path d="M19.2071 13.2071C19.5976 12.8166 19.5976 12.1834 19.2071 11.7929L12.8431 5.42893C12.4526 5.03841 11.8195 5.03841 11.4289 5.42893C11.0384 5.81946 11.0384 6.45262 11.4289 6.84315L17.0858 12.5L11.4289 18.1569C11.0384 18.5474 11.0384 19.1805 11.4289 19.5711C11.8195 19.9616 12.4526 19.9616 12.8431 19.5711L19.2071 13.2071ZM6.5 13.5H18.5V11.5H6.5V13.5Z" fill="white"/>
</svg>
