<svg width="20" height="20" viewBox="0 0 20 20" fill="none" xmlns="http://www.w3.org/2000/svg">
<path d="M19.9941 0H0.00585938C0.00262333 0 0 0.00262333 0 0.00585938V19.9941C0 19.9974 0.00262333 20 0.00585938 20H19.9941C19.9974 20 20 19.9974 20 19.9941V0.00585938C20 0.00262333 19.9974 0 19.9941 0Z" fill="#ED1D24"/>
<path d="M16.6797 6.60156C16.5234 6.01562 16.0156 5.54687 15.4297 5.39062C14.1016 5.03906 6.09376 5 4.57032 5.39062C3.98438 5.54687 3.47657 6.01562 3.32032 6.60156C2.96876 8.08594 2.9297 11.875 3.32032 13.3984C3.47657 13.9844 3.98438 14.4531 4.57032 14.6094C5.97657 15 13.9844 15 15.4297 14.6094C16.0156 14.4531 16.5234 13.9844 16.6797 13.3984C17.0313 11.9922 17.0313 8.04688 16.6797 6.60156Z" fill="white"/>
<path d="M8.59375 7.92969V12.0703L12.2266 10" fill="#ED1D24"/>
</svg>
