<svg width="20" height="20" viewBox="0 0 20 20" fill="none" xmlns="http://www.w3.org/2000/svg">
<path d="M19.9941 0H0.00585938C0.00262333 0 0 0.00262333 0 0.00585938V19.9941C0 19.9974 0.00262333 20 0.00585938 20H19.9941C19.9974 20 20 19.9974 20 19.9941V0.00585938C20 0.00262333 19.9974 0 19.9941 0Z" fill="#1DA1F2"/>
<path d="M17.0703 5.9375C16.6072 6.24468 16.0635 6.40779 15.5078 6.40625C16.1019 6.05626 16.5468 5.5002 16.7578 4.84375C16.2653 5.26008 15.6447 5.49453 15 5.50781C14.5749 5.07243 14.0201 4.78666 13.4188 4.69338C12.8175 4.60009 12.2022 4.70433 11.6652 4.99045C11.1281 5.27657 10.6984 5.72913 10.4404 6.28022C10.1824 6.83131 10.1101 7.45121 10.2344 8.04687C9.14037 7.98912 8.07074 7.70192 7.09493 7.20392C6.11913 6.70592 5.25897 6.00827 4.57031 5.15625C4.23332 5.76603 4.13466 6.47919 4.29342 7.15756C4.45219 7.83593 4.85709 8.43122 5.42969 8.82812C4.99755 8.83423 4.56981 8.74066 4.17969 8.55469C4.19019 9.18392 4.41143 9.79144 4.80801 10.2801C5.20458 10.7687 5.75358 11.1102 6.36719 11.25C5.95873 11.3567 5.53151 11.37 5.11719 11.2891C5.29592 11.8465 5.64413 12.3343 6.11328 12.6844C6.58243 13.0345 7.14913 13.2295 7.73438 13.2422C6.49834 13.992 5.07848 14.3842 3.63281 14.375C4.84357 15.1654 6.24993 15.6044 7.69535 15.6429C9.14077 15.6815 10.5685 15.3181 11.8197 14.5933C13.0709 13.8685 14.0963 12.8108 14.782 11.5377C15.4676 10.2647 15.7865 8.82634 15.7031 7.38281C16.2186 6.96127 16.678 6.47557 17.0703 5.9375Z" fill="white"/>
</svg>
