<svg width="20" height="20" viewBox="0 0 20 20" fill="none" xmlns="http://www.w3.org/2000/svg">
<path d="M10.5041 16.5142C10.2124 16.4724 9.92071 16.4306 9.62904 16.3888C9.33736 16.347 9.04569 16.2634 8.75401 16.138C8.58734 16.0962 8.379 16.138 8.254 16.2634L8.04566 16.4724C6.83729 17.6845 4.8789 17.8099 3.62886 16.7232C2.21215 15.511 2.17048 13.3375 3.46219 12.0417L6.62895 8.86506C7.04563 8.44707 7.54564 8.19628 8.04566 8.02909C8.71234 7.86189 9.4207 7.90369 10.0457 8.15448C10.4207 8.32168 10.7957 8.53067 11.1291 8.86506C11.2958 9.03225 11.4208 9.19944 11.5458 9.40844C11.7124 9.70103 12.0874 9.74282 12.2958 9.49203L13.4625 8.32168C13.6292 8.15448 13.6292 7.90369 13.5042 7.6947C13.3375 7.44391 13.1291 7.23491 12.9208 7.02592C12.6291 6.73333 12.2958 6.44074 11.9208 6.23175C11.3374 5.85556 10.6707 5.60477 9.96238 5.47938C8.67068 5.22858 7.25397 5.43758 6.08727 6.06456C5.62892 6.31535 5.17057 6.64973 4.79556 7.02592L1.7538 10.0772C-0.454594 12.2925 -0.621266 15.8872 1.5038 18.1443C3.7122 20.5686 7.46231 20.6104 9.75404 18.3115L10.7957 17.2666C11.0874 17.0576 10.8791 16.556 10.5041 16.5142V16.5142Z" fill="white"/>
<path d="M18.171 1.50851C15.8792 -0.623213 12.2958 -0.456019 10.129 1.7593L9.17069 2.67887C8.87901 2.97146 9.08735 3.47304 9.46236 3.51484C10.0457 3.55664 10.6291 3.68203 11.2124 3.84923C11.3791 3.89103 11.5874 3.84923 11.7124 3.72383L11.9208 3.51484C13.1291 2.30268 15.0875 2.17729 16.3376 3.26405C17.7543 4.47621 17.7959 6.64973 16.5042 7.94548L13.3375 11.1222C12.9208 11.5402 12.4208 11.7909 11.9208 11.9581C11.2541 12.1253 10.5457 12.0835 9.92071 11.8327C9.5457 11.6656 9.17069 11.4566 8.83734 11.1222C8.67067 10.955 8.54567 10.7878 8.42066 10.5788C8.25399 10.2862 7.87898 10.2444 7.67064 10.4952L6.50394 11.6656C6.33727 11.8327 6.33727 12.0835 6.46227 12.2925C6.62894 12.5433 6.83728 12.7523 7.04562 12.9613C7.3373 13.2539 7.71231 13.5465 8.04565 13.7555C8.629 14.1317 9.29569 14.3825 9.96238 14.5079C11.2541 14.7586 12.6708 14.5497 13.8375 13.9227C14.2958 13.6719 14.7542 13.3375 15.1292 12.9613L18.296 9.78462C20.6294 7.4857 20.546 3.72383 18.171 1.50851V1.50851Z" fill="white"/>
</svg>
