<svg width="15" height="20" viewBox="0 0 15 20" fill="none" xmlns="http://www.w3.org/2000/svg">
<path fill-rule="evenodd" clip-rule="evenodd" d="M0 5.0001C0 4.33705 0.263396 3.70115 0.732245 3.23231C1.20109 2.76346 1.83699 2.50006 2.50004 2.50006H10.0002C10.6632 2.50006 11.2991 2.76346 11.768 3.23231C12.2368 3.70115 12.5002 4.33705 12.5002 5.0001V19.3753C12.5001 19.4884 12.4694 19.5993 12.4113 19.6963C12.3532 19.7933 12.2699 19.8727 12.1702 19.926C12.0705 19.9794 11.9583 20.0047 11.8453 19.9993C11.7324 19.9939 11.6231 19.958 11.5289 19.8953L6.2501 16.3765L0.971266 19.8953C0.877146 19.958 0.7678 19.9939 0.654875 19.9993C0.541949 20.0047 0.429673 19.9794 0.330005 19.926C0.230336 19.8727 0.147007 19.7933 0.088894 19.6963C0.0307805 19.5993 5.84015e-05 19.4884 0 19.3753V5.0001Z" fill="#FEFEFE"/>
<path fill-rule="evenodd" clip-rule="evenodd" d="M2.83496 1.25002H12.5001C12.8316 1.25002 13.1496 1.38172 13.384 1.61614C13.6184 1.85057 13.7501 2.16851 13.7501 2.50004V17.2103L14.0289 17.3953C14.123 17.4579 14.2324 17.4938 14.3453 17.4992C14.4582 17.5046 14.5705 17.4793 14.6702 17.426C14.7698 17.3726 14.8532 17.2932 14.9113 17.1962C14.9694 17.0992 15.0001 16.9883 15.0002 16.8753V2.50004C15.0002 1.83699 14.7368 1.20109 14.2679 0.732245C13.7991 0.263396 13.1632 0 12.5001 0L5 0C4.56116 1.11482e-05 4.13005 0.115534 3.75001 0.334958C3.36997 0.554382 3.05438 0.869975 2.83496 1.25002V1.25002Z" fill="#FEFEFE"/>
</svg>
