<svg width="20" height="20" viewBox="0 0 20 20" fill="none" xmlns="http://www.w3.org/2000/svg">
<path d="M19.9941 0H0.00585938C0.00262333 0 0 0.00262333 0 0.00585938V19.9941C0 19.9974 0.00262333 20 0.00585938 20H19.9941C19.9974 20 20 19.9974 20 19.9941V0.00585938C20 0.00262333 19.9974 0 19.9941 0Z" fill="#1877F2"/>
<path d="M13.8906 12.8906L14.3359 10H11.5625V8.125C11.5625 7.33594 11.9492 6.5625 13.1914 6.5625H14.4531V4.10156C14.4531 4.10156 13.3086 3.90625 12.2148 3.90625C9.92969 3.90625 8.4375 5.28906 8.4375 7.79688V10H5.89844V12.8906H8.4375V20H11.5625V12.8906H13.8906Z" fill="white"/>
</svg>
