<svg width="20" height="20" viewBox="0 0 20 20" fill="none" xmlns="http://www.w3.org/2000/svg">
<path d="M19.9941 0H0.00585938C0.00262333 0 0 0.00262333 0 0.00585938V19.9941C0 19.9974 0.00262333 20 0.00585938 20H19.9941C19.9974 20 20 19.9974 20 19.9941V0.00585938C20 0.00262333 19.9974 0 19.9941 0Z" fill="black"/>
<path d="M19.9941 0H0.00585938C0.00262333 0 0 0.00262333 0 0.00585938V19.9941C0 19.9974 0.00262333 20 0.00585938 20H19.9941C19.9974 20 20 19.9974 20 19.9941V0.00585938C20 0.00262333 19.9974 0 19.9941 0Z" fill="url(#paint0_radial_3_26)"/>
<path d="M19.9941 0H0.00585938C0.00262333 0 0 0.00262333 0 0.00585938V19.9941C0 19.9974 0.00262333 20 0.00585938 20H19.9941C19.9974 20 20 19.9974 20 19.9941V0.00585938C20 0.00262333 19.9974 0 19.9941 0Z" fill="url(#paint1_linear_3_26)"/>
<path d="M12.8516 3.98438H7.14844C5.40097 3.98438 3.98438 5.40097 3.98438 7.14844V12.8516C3.98438 14.599 5.40097 16.0156 7.14844 16.0156H12.8516C14.599 16.0156 16.0156 14.599 16.0156 12.8516V7.14844C16.0156 5.40097 14.599 3.98438 12.8516 3.98438Z" stroke="white" stroke-width="2.1498"/>
<path d="M10 12.8125C11.5533 12.8125 12.8125 11.5533 12.8125 10C12.8125 8.4467 11.5533 7.1875 10 7.1875C8.4467 7.1875 7.1875 8.4467 7.1875 10C7.1875 11.5533 8.4467 12.8125 10 12.8125Z" stroke="white" stroke-width="2.1498"/>
<path d="M13.5547 6.67969C13.6841 6.67969 13.7891 6.57475 13.7891 6.44531C13.7891 6.31587 13.6841 6.21094 13.5547 6.21094C13.4252 6.21094 13.3203 6.31587 13.3203 6.44531C13.3203 6.57475 13.4252 6.67969 13.5547 6.67969Z" stroke="white" stroke-width="2.1498"/>
<defs>
<radialGradient id="paint0_radial_3_26" cx="0" cy="0" r="1" gradientUnits="userSpaceOnUse" gradientTransform="translate(8 20) scale(20)">
<stop offset="0.1" stop-color="#FFDD55"/>
<stop offset="0.5" stop-color="#FF543E"/>
<stop offset="1" stop-color="#C837AB"/>
</radialGradient>
<linearGradient id="paint1_linear_3_26" x1="0" y1="0" x2="4" y2="20" gradientUnits="userSpaceOnUse">
<stop offset="0.1" stop-color="#3771C8"/>
<stop offset="0.5" stop-color="#6600FF" stop-opacity="0"/>
</linearGradient>
</defs>
</svg>
