<svg width="20" height="18" viewBox="0 0 20 18" fill="none" xmlns="http://www.w3.org/2000/svg">
<path d="M11.4309 17.0382C10.6326 17.8701 9.3344 17.8701 8.53574 17.0382C6.13974 14.4761 1.54741 9.58432 1.54741 9.55071C-0.515805 7.38766 -0.515805 3.82694 1.54741 1.66389C2.54575 0.598999 3.87686 0.0332779 5.3078 0.0332779C6.73874 0.0332779 8.06985 0.598999 9.06818 1.66389L9.46752 2.16305C9.73374 2.49583 10.2662 2.49583 10.5324 2.16305L10.8652 1.73044C10.8985 1.69716 10.8985 1.69716 10.9317 1.66389C11.9637 0.565721 13.2948 0 14.6921 0C16.1234 0 17.4545 0.565721 18.4528 1.63061C20.5157 3.79366 20.5157 7.35438 18.4528 9.51743C18.4192 9.58399 13.8602 14.4758 11.4309 17.0382Z" fill="white"/>
</svg>
