<svg width="110px" height="110px" viewBox="0 -1.57 110 110" xmlns="http://www.w3.org/2000/svg">
  <path id="bomb" d="M1028.468,702.571c2.825.479,2.234,4.375,2.478,7.433.428.708,2.157.117,3.1.31.5.633,2.283-.013,2.788.62,2.577-.308,4.1.443,4.642,2.17.287,3.281-1.929,4.053-3.406,5.575-.548,1.723-1.3,3.244-2.786,4.024.837,2.363,2.667,3.729,3.405,6.2a7.669,7.669,0,0,1-.926,4.954,1.362,1.362,0,0,0-1.242.621,6.427,6.427,0,0,1-3.714-.621c-1.088-.357-1.328-1.565-2.788-1.546-.7.328-.122,1.948-.312,2.786-.162.865-.454,1.609-.618,2.479-.754,1.205-1.018,2.9-2.79,3.1-2.2.039-2.489-1.847-3.094-3.405a27.6,27.6,0,0,1-1.241-4.955c-2.056.315-2.29,2.455-4.955,2.167-.769-.674-1.747-1.143-1.55-2.789-.023-1.319-.517-2.166-.307-3.719-.091-.735-.837.347-.929.625-.585.031-.216,1.023-.931.924-.274.97-1.461,1.02-1.857,1.862a35.343,35.343,0,0,1-4.647,3.1c-.491.026-1.182-.152-1.239.309h-5.884c-.1-.422-.779-.257-1.241-.309a10.923,10.923,0,0,0-2.787-1.55c-3.613-3.4-4.776-9.263-7.123-13.938-1.073-1.814-3.145-2.635-5.266-3.405-3.5-.3-5.2,1.2-8.36,1.236-3.443,1.412-5.327,4.381-7.127,7.434a19.327,19.327,0,0,0-.307,4.028c.345.789,2.393-.126,2.786.62,2.157.115,4.828-.287,6.505.308,2.189,1.722.74,5.744.929,8.981.043.889,2.125-.264,2.168.622a5.8,5.8,0,0,1,2.476.307c1.571.293,2.849.872,4.337,1.241,1.084.772,2.791.927,3.718,1.856,1.449.306,1.955,1.554,3.406,1.861a31.479,31.479,0,0,1,9.91,24.78,49.146,49.146,0,0,1-2.789,13.938c-1.742,3.828-3.1,8.048-5.572,11.148-.784,2.005-2.226,3.348-3.408,4.957-1.355,1.431-2.489,3.084-4.335,4.026a12.517,12.517,0,0,1-4.955,3.405c-1.431,1.254-3.9,1.472-5.577,2.479-2.316.27-5,.157-7.123.62-5.451-.43-10.661-1.109-14.866-2.787-4.148-1.636-8.049-3.517-10.844-6.505-2.034-.857-2.865-2.914-4.643-4.029a47.388,47.388,0,0,0-3.718-4.955,11,11,0,0,0-1.545-2.787,10.844,10.844,0,0,0-1.244-3.1,47.015,47.015,0,0,1-1.548-7.124c-.153-4.8.594-8.7.93-13.008a6.365,6.365,0,0,0,.618-3.1c.576-.561.4-1.866.932-2.477.6-1.675.933-3.607,2.167-4.643.308-2.07,2.182-2.57,2.786-4.34,1.048-.09.9-1.371,1.861-1.547.659-.477,1.153-1.118,1.859-1.55a12.607,12.607,0,0,1,4.024-3.1,11.8,11.8,0,0,1,2.169-1.241,13.508,13.508,0,0,0,2.479-.93c2.065,0,4.392.263,5.265-.926-.453-1.613-.548-3.58-.931-5.264a11.684,11.684,0,0,1,0-5.579c1.258-1.839,4.584-1.611,7.744-1.546.654-.8.041-2.852.929-3.408.118-1.331.832-2.058.93-3.409,2.236-2.1,3.785-4.884,5.887-7.12a5.278,5.278,0,0,0,2.474-1.549c3.361-.567,5.888-1.96,10.224-1.551,1.717.588,3.644.915,4.956,2.169.53.509,2.036,1.345,2.786,2.168.45.494.433,1.415,1.239,1.549,1.9,4.4,3.216,9.381,7.127,11.767,1.273-.242,1.585.48,2.786.314.945.224.909-.54,1.855-.314,3.851-1.828,6.471-4.884,8.982-8.051-.1-1.027-1.35.813-1.548-.311-1.158.333-.882-.768-1.857-.619-1.277-1.817-3.162-3.032-2.787-6.5.851-1.245,3.115-1.552,4.958-.928.426-.4.184-1.461.615-1.858-.183-.554.912-1.287,0-1.548-.169-1.722.057-3.043,1.242-3.411.359.052.55-.066.617-.306,2.871.015,3.06,2.721,5.268,3.4,1.3-1.272,1.763-3.394,3.1-4.645A13.489,13.489,0,0,1,1028.468,702.571Zm-7.435,10.533h-2.169c-.464-.566-1.334-.732-1.856-1.241-.193-.329-1.295-1.976-1.239-.617.956,1.964,1.091,6.334-1.859,6.193a1.513,1.513,0,0,0,.619,1.548c.405.77-.907,1.283,0,1.548,1.076-1.5,3.488-1.675,6.2-1.548,1.561,1.022,3.12,2.042,3.409,4.34a3.121,3.121,0,0,1-2.479,2.165c-1.028-.209-1.893-.587-2.167-1.549a2.844,2.844,0,0,0-2.786.929c.3,1.036.983,1.7,1.236,2.788a14.475,14.475,0,0,0,.618,4.026c1.761,0,2.264-1.248,4.339-.926.066.239.261.356.618.306.477,2.1,1.842,3.322,2.786,4.959a7.324,7.324,0,0,1,2.478-4.339c-.046-.769-.054-1.5.62-1.55,1.441-.661,3.034.225,4.649.31-.574-2.316-2.539-3.242-2.171-6.5-.165-1.095,1.1-.76.932-1.86-1.608-2.082.638-4.943,1.239-6.812a28.391,28.391,0,0,0-5.888-.308c-.551-.792-1.329-1.356-1.548-2.479v-5.267c.174,0,.355-.25,0-.312C1023.993,708.214,1024.22,712.363,1021.033,713.1Zm-79.907,43.981c-.454.188.029.375,0,0,1.694-1.2,3.163-2.615,4.953-3.715,1.054-.4,1.792-1.1,2.788-1.551.681-.277,2.439-1.254,2.787,0-.912,2.49-2.884,3.929-4.335,5.886-1.938,1.467-3.329,3.485-5.265,4.956,0,1.033-1.009,1.056-.928,2.163-.461.1-1.334,1.306-.623,1.553.455-1.405,1.807-1.916,2.478-3.1,1.041-.709,1.606-1.9,3.717-1.546.28.548.748.9.93,1.546-1.6,2.431-3.748,4.31-4.954,7.126a26.683,26.683,0,0,0-3.72,8.364c1.392-.161,1.271-1.832,2.172-2.478.536-.911.914-1.978,1.855-2.481.142-1.3,1.467-1.425,1.861-2.474.885-.566,1.373-1.518,3.1-1.242.61,2.318-1.122,4.55-1.549,6.815-1.3,1.7-1.489,4.5-2.787,6.2.133,1.683-1.169,3.232-.31,4.646,1.145.216.534-1.325,1.238-1.546-.078-.911.7-.957.619-1.862,1.181-.575.987-2.522,2.169-3.1.249-1.505,1.406-2.106,1.858-3.407.838-.815,1.2-2.106,2.79-2.171,1.858.716.42,3.443.307,4.957-.49.543-.415,1.653-.62,2.479-.268.379-.984,1.864-.308,2.168.871-1.4,1.66-2.884,3.717-3.1.908.023,1.149.709,1.548,1.241a7.811,7.811,0,0,1-.31,3.717c-.409,1.034-.273,2.62-.93,3.406.154,1.356,1.292-1.008,2.479-.619,3.2,1.809.062,6.133,0,9.294,1.055.078,1.486.78,2.786.619.771-1.81.664-4.5,3.407-4.336,1.147.2.946,1.738.931,3.095-.453.191.029.375,0,0,.405-.108.484-.546.928-.618,1.309.93-1.092,3.682.619,4.027,1.483.344,1.428-.844,1.548-1.859a6.139,6.139,0,0,0,.932-2.168c1.085-.979,1.159-2.972,3.716-2.477.888,2.4-.718,4.521-.616,7.122a15.534,15.534,0,0,0,3.093-.929,5.91,5.91,0,0,1,.931-3.1c.63-.6.646-1.825,1.855-1.859,1.737.2.28,2.765.93,3.409,1.9-1.714,4.554-2.673,6.505-4.338,2.075-1.537,3.625-3.6,5.574-5.265.579-1.692,1.879-2.665,2.48-4.332.842-1.329,1.371-2.969,2.167-4.339a59.292,59.292,0,0,0,2.787-10.221,67.1,67.1,0,0,0-.31-8.365c-1-1.679-1.336-4.029-2.477-5.572-.57-2.114-1.92-3.45-2.787-5.265-1.546-1.033-2.786-2.376-4.336-3.409-1.65-.83-2.923-2.034-4.645-2.786a14.819,14.819,0,0,0-5.577-2.169c-1.583-.9-3.945-1.011-4.957-2.479.034-1.931.516-3.409.31-5.572a8.876,8.876,0,0,0-1.857-1.861H960.636c-.115,1.4-.406,2.309.313,3.409.908-1.362,3.2-1.336,4.953-1.862.484.447,1.077.784,1.24,1.552a9.6,9.6,0,0,1-2.168,3.405c-1,.861-1.279,2.438-2.479,3.1-.186.536-1.469-.023-1.546.621-.049.571-1.053.19-1.24.62h-2.168c-1.229.836-3.187.944-4.34,1.856-1.791.27-2.811,1.316-4.334,1.862-2.16,1.865-4.438,3.611-6.5,5.572C942.175,755.452,941.2,755.815,941.126,757.085Z" transform="translate(-931.501 -702.571)" fill-rule="evenodd"/>
</svg>
