<svg width="95px" height="95px" viewBox="0 -6.72 95 95" xmlns="http://www.w3.org/2000/svg">
  <path id="twitter" d="M410.5,1146.458h-3.893c-3.7-.4-7.763-.427-11.385-.9-3.523-.572-6.836-1.355-10.187-2.1-2.666-1.429-5.589-2.6-7.792-4.5a3.228,3.228,0,0,1-1.8-1.5c-.617-.381-1.521-.477-1.5-1.5a2.9,2.9,0,0,1-1.8-3.6c.489-.508.407-.617.9-.9,1.043-.6,3.151-.386,4.5-.9,2.426.028,4.045-.749,6.288-.9,3.615-1.08,7.936-1.454,11.091-3a5.822,5.822,0,0,0,2.4-3,62.57,62.57,0,0,1-7.49-1.5,74.429,74.429,0,0,1-6.6-4.5c-.058-1.04-1.059-1.137-1.2-2.1a7.766,7.766,0,0,1,0-4.494c.984-1.215,3.423-.973,5.093-1.5.869-.166-.46-.467-.3-.9-.107-.4-.527-.473-.6-.9-.363-.634-1.125-.87-1.2-1.8a11.813,11.813,0,0,1-2.4-3.894c-1.471-2.624-3.24-4.946-3-9.286a4.5,4.5,0,0,1,3.6-2.1,12.392,12.392,0,0,1-2.4-4.2c-.035-5.126,1.408-8.777,2.1-13.182.255.055.282-.117.3-.3.04-1.156,1.217-1.181,1.5-2.1.4-.692.521-1.671,1.8-1.5,2.287-.095,1.463,2.929,3,3.594.507,1.594,1.858,2.338,2.7,3.6a24.455,24.455,0,0,0,7.19,5.394c2.452,2.052,5.487,3.036,8.388,4.492,2.685,1.352,5.368,3.415,8.691,3.9.807-.355,0-1.561,0-2.1.094-.7.473-1.124.3-2.1.252.054.281-.117.3-.3.113-1.387,1.3-1.7,1.5-3,2.72-2.38,5.009-5.178,8.69-6.594,2.971-2.122,7.608-2.581,12.285-2.993a24.582,24.582,0,0,1,7.49,1.5c1.39-.3,2.449-1.384,3.6-2.1.454-.286.9-.507,1.493-.9.17-.111-.047-.281.3-.3a.872.872,0,0,1,.1.007.43.43,0,0,0,.2-.007c1.948-1.593,3.287-3.942,5.1-5.693a2.078,2.078,0,0,1,.9-.6c1.2-.106,2.191.005,2.4.9.681.767.119,2.111-.3,2.695-.487.714-.673,1.726-1.2,2.4.127,2.127-.677,3.321-.9,5.091a33.515,33.515,0,0,0-2.1,3.9h4.494c2.018.38,4.777.018,5.693,1.5.747,2.742-1.165,4.347-3.294,5.093a23.273,23.273,0,0,1-6.6,2.4,49.207,49.207,0,0,1,1.2,13.78,5.558,5.558,0,0,0-.3,2.4c-.786.917-.719,2.68-1.5,3.595.038,1.637-1.237,1.959-1.2,3.6-1.266,2.028-2.307,4.285-3.6,6.291a40.346,40.346,0,0,1-4.2,5.7c-.838.859-1.327,2.065-2.394,2.7a6.7,6.7,0,0,1-1.8,2.994c-2.353,4.236-6.683,6.5-10.184,9.59-2.3,1-3.973,2.621-6.295,3.594-1.758,1.441-4.482,1.909-6.592,3-.148,0-.3,0-.45-.006-.666-.015-1.335-.031-1.648.305-.8-.026-1.645-.012-2.488,0-.5.009-1.009.017-1.5.017A14.535,14.535,0,0,1,410.5,1146.458Zm-23.968-11.986c-1.328.274-3.277-.077-3.9.9,3.177,1.317,5.557,3.429,9.29,4.194,3.735.859,8.119,1.073,12.287,1.5a96.875,96.875,0,0,0,14.378-.6c.681-.616,1.985-.611,2.7-1.2a19.855,19.855,0,0,1,2.7-1.2,20.061,20.061,0,0,1,5.093-2.7c1.881-1.814,3.992-3.4,5.69-5.394,1.707-2.09,3.867-3.725,5.4-5.991,1.651-2.046,3.312-4.078,4.794-6.294.753-1.145,1.274-2.519,2.1-3.6a17.427,17.427,0,0,1,1.5-4.193c-.123-1.42.534-2.064.3-3.6,1.707-2.39,3.576-4.615,4.2-8.091.207-2.455-.5-4.032,0-5.991-.566-5.43-2.508-9.482-5.7-12.288a7.366,7.366,0,0,1-2.695-1.5,27.907,27.907,0,0,1-3-.6h-5.093a25.53,25.53,0,0,1-4.2.6,19.308,19.308,0,0,1-3.9,1.5,31.307,31.307,0,0,1-3.3,2.1c-1.868,1.822-4.061,3.328-5.093,5.991-.833,2.229.445,4.749-.6,6.591-.8.4-1.593.808-2.4,1.2-3.821.324-5.383-1.609-8.091-2.4a66.361,66.361,0,0,0-6.889-3.594c-1.814-1.684-4.468-2.527-6.3-4.195-2.55-1.048-4.141-3.05-6.291-4.5-1.036-1.66-2.383-3.008-3.3-4.794-.015-.182-.044-.354-.3-.3a74.668,74.668,0,0,0-.3,9.589,14.2,14.2,0,0,0,2.7,2.994c1.053.848,2.474,1.323,2.4,3.3-.513,1.084-.862,2.334-2.7,2.1-.711.884-2.03,1.161-2.992,1.8,2.361,3.43,4.064,7.52,7.192,10.185,2.273.625,5.391.4,5.391,3.3-.219,2.176-2.408,2.388-4.5,2.7-1.218,1.574-3.65,1.941-5.39,3,2.237,1.256,4.089,2.9,7.492,3,.08.42.64.362,1.2.3a2.678,2.678,0,0,1,.9,0,5.608,5.608,0,0,0,2.4.3c.27.626,1.691.105,1.8.9.679.22.9.9,1.2,1.5.013,1.313-.747,1.85-1.2,2.7.213,1.512-.41,2.187-.6,3.3a2.984,2.984,0,0,0-.9,1.8c-1.055.642-1.557,1.839-2.7,2.394-1.917,1.18-4.613,1.584-6.893,2.4a1.516,1.516,0,0,0-.972.164,1.528,1.528,0,0,1-1.127.135c-.1.285-.493.277-.888.269l-.2,0C386.9,1134.139,386.589,1134.18,386.535,1134.472Zm65.92-57.829c-.351.447-1.246.353-1.2,1.2.105.394.526.473.6.9,1.463-.438,1.876-1.92,2.4-3.3C453.447,1075.64,453.114,1076.3,452.454,1076.643Zm1.8-1.2c.251-.107.2-.21.124-.21C454.316,1075.233,454.238,1075.29,454.251,1075.443Zm-20.074,13.784a5.448,5.448,0,0,1-2.1-1.5c-1.084-4.334,2.629-6.2,5.694-4.495a9.544,9.544,0,0,1,1.5,5.393c-.527.274-.5,1.106-1.2,1.2-.1.7-1.308.29-1.5.9A2.868,2.868,0,0,1,434.176,1089.228Z" transform="translate(-372 -1065.223)"/>
</svg>
