<svg width="112.387px" height="112.387px" viewBox="-17.35 0 112.387 112.387" xmlns="http://www.w3.org/2000/svg">
  <path id="coffee1" d="M216.232,986.584a85.258,85.258,0,0,1-15.977-2.282,26.82,26.82,0,0,1-2.282-1.711c-.713-.522-1.877-.594-2.283-1.427-1.776-7.159-2.312-15.565-2.281-24.537a256.78,256.78,0,0,1-1.711-37.088c.332-.047.238-.519.283-.857a17.623,17.623,0,0,1,3.71-5.991,10.07,10.07,0,0,1,2.857.286c5.887-3.717,13.45-5.755,21.964-6.848a42.889,42.889,0,0,1,7.409.277,43.865,43.865,0,0,0,7.144.3c3.931.633,7.107,2.02,10.554,3.137a22.572,22.572,0,0,0,3.708,2.282c.179.869,1.535.557,1.714,1.426.823.13.674,1.229,1.426,1.428.311,1.166-1.75-.04-1.142,1.425.76,3.155-.124,7.016.283,9.987,1.6,1.619,4.911,1.521,8.228,1.423,1.39-.041,2.778-.083,4.043,0,.553.876,1.558,1.292,2.282,2a5.312,5.312,0,0,0,1.426,2.568c.156,3.173,1.363,5.291,1.711,8.274.281,7.69-.747,14.976,0,22.252-.753,2.291-2.646,3.443-4.565,4.566a18.387,18.387,0,0,1-3.992.286c-2.032.634-3.868,1.457-6.848,1.141-.723,1,0,2.529,0,3.708a4.545,4.545,0,0,0-1.426,3.424c-1.281,1.577-2.473,3.237-3.707,4.85a36.189,36.189,0,0,1-14.838,6.278q-1.666.04-3.317.039C225.663,987.193,220.849,986.941,216.232,986.584Zm-15.977-7.133c.6.164.814.707,1.711.571.226-.6-.4-.911-.958-.911A.792.792,0,0,0,200.255,979.451Zm8.842-7.7c-.178,2.389-1.807,3.33-2.567,5.135,5.608,1.668,13.233,1.379,20.542,1.713,2.565.116,5.116.026,7.555-.064a58.426,58.426,0,0,1,8.424.064,21.656,21.656,0,0,0,4.848-3.424.787.787,0,0,1,.57-.856c-.151-1.2.5-1.593.572-2.568-.291-1.807-.732-3.746-.856-5.706-.625-10.062.346-22.194.284-31.383a37.365,37.365,0,0,1-.854-5.989c-.513-.632-.251-2.036-.572-2.856.239-.806-.4-.739-.284-1.426-.125-.539.388-1.719-.572-1.426H245.9c-1.454.348-2.394,1.214-3.7,1.712a6.142,6.142,0,0,0-2.119.28,6.476,6.476,0,0,1-1.877.291c-4.4,3.013-9.981,4.856-17.69,4.564-.071-.4-.625-.325-.854-.571-.028-.449.035-.989-.572-.855a39.794,39.794,0,0,0-6.277.287,30.4,30.4,0,0,1-15.976-3.425v7.132c.522.619-.053,2.336.571,2.853.241-.266,1.471-.958,1.712-.284a19.374,19.374,0,0,1-1.424,8.273c.046,1.759-.239,3.85.568,4.851A5.16,5.16,0,0,1,199.4,945.5c.567.384-.087,1.992.858,2a7.4,7.4,0,0,1,2.282-2.853c.695-.958,2.34-1.888,3.426-.857-.74,2.019-2.135,3.381-2.857,5.421-1.24,1.608-1.96,3.741-3.137,5.421V957.2c.05.715-.438.9-.855,1.142.044.56.288.487.507.413s.417-.149.348.443c.353.695.791-.9,1.143-1.142.507-.536.77-1.319,1.425-1.711a1.824,1.824,0,0,1,1.713-1.427c.362-.617,2.192-.312,2,.571.248.914-.436.892-.855,1.141a4.851,4.851,0,0,1-.856,1.143,50.11,50.11,0,0,1-4.28,8.272v3.424c1.728-.46,1.917-2.458,3.424-3.137.873-.643,2.235-2.02,3.707-1.143-.343,2.51-2.26,3.448-3.137,5.422-.83.6-1.135,1.719-1.713,2.567-.471.47-1.9,2.264-.285,2.283.6.858,1.373-.508,1.428-1.141.541-.506.885-1.207,1.427-1.713.285-.759,1.151-.939,1.707-1.425a7.858,7.858,0,0,1,1.3-.207A.927.927,0,0,1,209.1,971.748Zm44.222-6.563a53.006,53.006,0,0,0,5.99-1.14c2.2-.27,4.729-.219,5.992-1.426-.472-7.662-.494-14.227-.284-22.253-1.22-2.491-1.047-6.374-2.572-8.559a4.723,4.723,0,0,0-2.555-.1,8.383,8.383,0,0,1-2.008.1c-1.89-.108-3.3-.694-5.419-.571-.141.9.512,1.007.284,2,.285.291,1.556.108,2-.284.266-.017.559-.007.851,0,.692.023,1.382.047,1.717-.288.931.875,2.994.621,3.424,2,.1,6.457,1.472,11.651,1.14,18.544a1.862,1.862,0,0,0-.285,1.427,10.6,10.6,0,0,1-1.141,2c.292,1.336-.473,1.621-.857,2.282-1.989.2-3.414.958-5.705.857C253.815,961.557,252.488,963.416,253.32,965.185Zm3.138-27.388c-.707.433-2.214.072-2.854.571.25,5.741.367,11.616.286,17.69a6.555,6.555,0,0,0,3.993-2.284c-.366-3.148-.523-6.511-.855-9.7V938.94c-.058-.442.2-1.2-.294-1.2A.894.894,0,0,0,256.459,937.8Zm-31.383-14.266c3.917.694,8.528.1,11.128-1.427a36.309,36.309,0,0,0-5.136.572c-.345,0-.694,0-1.043,0H229.7C227.873,922.679,226.089,922.722,225.076,923.531Zm12.839-1.427c.08.08.432-.137.286-.284a.069.069,0,0,0-.05-.017C238.027,921.8,237.787,921.981,237.914,922.1Zm2-.57c.076.08.433-.137.283-.285a.067.067,0,0,0-.05-.017C240.024,921.233,239.785,921.409,239.911,921.535Zm-39.656-5.706a25.7,25.7,0,0,1-3.708,1.712,2.483,2.483,0,0,0,1.426,2.283,4.027,4.027,0,0,0,2.566,1.426,6.2,6.2,0,0,0,.857-2.281c1.211.164,1.323-.77,1.711-1.428.957-.187,1.4-.887,2.284-1.141,6.172.179,10.4-1.585,16.261-1.712h11.7c3.577.511,7.841.335,9.982,2.283.658.8.091,2.2,0,3.137,1.614.284,1.584-1.08,2.566-1.426,0-1.427,1.33-1.525,1.143-3.137-1.063-2.172-3.391-3.073-5.99-3.71a16.707,16.707,0,0,0-7.7-2,20.83,20.83,0,0,1-6.563.286,28.5,28.5,0,0,1-3.139.854c-7.293-.444-12.707.988-17.119,3.424a6.589,6.589,0,0,0-.941-.067A14.007,14.007,0,0,0,200.255,915.829Zm23.68,3.14a2.414,2.414,0,0,0,2.569.284c.9-.338,2.15-.321,2.852-.856a3.245,3.245,0,0,0-2.489-.148,5.867,5.867,0,0,1-1.791.148c.1.386-.234.336-.57.284a2.308,2.308,0,0,0-.326-.035C223.991,918.647,223.868,918.713,223.935,918.969Zm-18.544-10.557c-1.106-2.4,1.464-4.379.572-6.561-.248-.991-1.85-.625-2.283-1.427-1.133-.01-1.184-1.1-1.714-1.711.7-2.877,2.67-5.815,5.991-5.137.054,1.768-.123,3.3-1.426,3.709.259,1.644,2.176,1.632,2.855,2.853-.027.4-.048.808.283.859-.121,3.082-.147,7.469-3.706,7.7C205.953,908.42,205.613,908.477,205.391,908.412Zm30.238-7.133a4.931,4.931,0,0,1,.574-2.853c.463-.677.643-1.64,1.142-2.281-.4-1.4-1.962-1.654-2.569-2.853a6.527,6.527,0,0,1,.852-3.993c1.064-.439,2.7-1.783,3.711-.571-.119,1.5-1.369,1.865-1.994,2.853.292,1.8,2.1,2.078,2.849,3.424.724,3.554.158,7.067-3.135,7.416A12.669,12.669,0,0,0,235.629,901.279Zm-16.545.572c-.008-.279-.348-.222-.568-.286-1.449-1.553-.239-4.069.284-5.992.733-1.356,2.15-2.032,2.567-3.708-.227-1.3-1.624-1.42-2.851-1.712-.377-1.145-2.213-.831-3.141-1.427-1.086-1.289-2.217-2.541-2-5.135.311-1.5,1.267-2.344,1.712-3.71a63.724,63.724,0,0,1,5.993-4.85c1.781-.014,3.757-.872,4.275.855.221,2.693-2.067,2.875-3.135,4.28-.974,1.5-2.928,2.018-3.424,3.994.478.852,1.786.878,2.567,1.427,1.058.175,1.791.68,2.855.855.717.895,1.49,1.742,2.281,2.569a12.883,12.883,0,0,1,0,5.42c-.892,1.584-2.26,2.687-3.141,4.281-1.03,1.25-1.377,3.181-3.658,3.181A4.773,4.773,0,0,1,219.084,901.851Z" transform="translate(-191.654 -874.807)"/>
</svg>
