<svg width="94.529px" height="94.529px" viewBox="0 -2.26 94.529 94.529" xmlns="http://www.w3.org/2000/svg">
  <path id="google-plus" d="M585.5,1150.714a24.977,24.977,0,0,1-3.59-.015,16.812,16.812,0,0,1-6.278-2.092,21.173,21.173,0,0,1-6.278-1.494c-3.65-2.431-6.083-6.08-7.772-10.466a17.335,17.335,0,0,1,0-6.875c.426-2.363,1.724-3.858,2.392-5.981a7.394,7.394,0,0,0,1.494-2.689,6.464,6.464,0,0,0,1.494-2.394c1.714-1.674,3.667-3.109,5.381-4.784,1.453-.244,2.031-1.358,3.289-1.795.925-.666,2.336-.852,3.29-1.492a31.444,31.444,0,0,0,7.772-.9c-.766-.629-.653-2.137-2.093-2.092a6.547,6.547,0,0,1-3.287-.6c-2.591-.1-4.041-1.345-6.282-1.795-3.469-1.913-6.937-3.826-8.969-7.177a3.937,3.937,0,0,0-.6-2.092V1091.5c1.523-9.443,5.285-16.643,11.063-21.829,2.377-.512,4.161-1.619,6.278-2.391h7.475c2.129.264,3.675,1.11,5.681,1.5,4.1-1.081,6.668-3.7,8.672-6.88a1.506,1.506,0,0,1,.9-.9h1.791c1.489.906.489,4.3,1.194,5.98a55.327,55.327,0,0,1-1.194,7.177,10.887,10.887,0,0,1-2.091,3.884,24.1,24.1,0,0,1,2.988,10.167c.018.816-.235,1.525-.3,2.393a14.208,14.208,0,0,1-1.2,5.68c-1.4,1.589-2.736,3.239-4.78,4.186-.728.767-1.729,1.262-2.393,2.093-1.061.434-2.331.663-2.993,1.5.1,2.294,2.182,2.6,3.292,3.884a34.185,34.185,0,0,1,4.487,2.394c2.863,1.723,5.7,3.472,7.772,5.979-.049.349.068.534.3.6,1.283,3.9.724,8.718.6,13.456-.754,2.435-1.421,4.959-2.093,7.474a23.658,23.658,0,0,1-7.474,6.878c-2.835,1.949-6.4,3.164-9.27,5.083a9.953,9.953,0,0,0-3.585,1.2A16.791,16.791,0,0,0,585.5,1150.714Zm-13.458-9.881c2.623,2.659,6.794,3.773,11.363,4.486a19.817,19.817,0,0,1,6.276-.6c3.382-.607,5.641-2.335,9.271-2.692a23.9,23.9,0,0,0,8.971-9.27c.025-.473-.145-1.139.3-1.2v-6.577a29.14,29.14,0,0,0-2.688-7.774,28.692,28.692,0,0,1-4.784-4.484c-.585-.512-1.675-.521-2.394-.9a19.456,19.456,0,0,1-3.289-3.589c-.688-.846-1.518-.006-2.092-1.2a30.3,30.3,0,0,0-.9-3.29c.693-1.1,2-1.591,2.392-2.992,1.865-.526,2.967-1.816,4.188-2.987,1.017-1.374,2.8-1.985,3.885-3.29a5.878,5.878,0,0,1,.6-2.689c.36-.936.6-1.994.894-2.991a16.264,16.264,0,0,0-1.792-9.568c-.322-.763,1.286-1.049.3-1.5a2.547,2.547,0,0,1-.3-1.793,10.492,10.492,0,0,0,.3-2.988,5.68,5.68,0,0,0,.9-3.292,46.1,46.1,0,0,0-4.487,2.691c.867.23,1.457.741,1.2,2.093a4.329,4.329,0,0,1-2.091-1.492c-1.132-.068-1.454-.942-2.391-1.2-1.732-.663-2.877-1.906-4.785-2.393-.626-.471-1.987-.207-2.689-.6-2.538.152-4.025,1.36-6.878,1.2-4.775,2.384-8.171,6.986-8.374,13.753a21.1,21.1,0,0,0,.3,3.887v6.876c1.179,3.2,3.513,5.258,5.684,7.474,2.245.647,4.145,1.633,6.575,2.1h3.588a11.787,11.787,0,0,0,2.392,4.484c.57,1.621,2.022,2.364,2.691,3.888,1.533.958,2.76,2.22,4.187,3.29a6.006,6.006,0,0,1,1.793,1.793c.507.694,1.659.735,2.094,1.494a14.535,14.535,0,0,1,1.792,3.888v7.475a27.643,27.643,0,0,1-2.689,4.186,6.057,6.057,0,0,0-1.794,1.795c-.8-.042-.775.277-.749.6s.052.639-.745.6v-.3c-.348-.05-.532.067-.6.3-.347-.05-.532.066-.6.3-2.105.881-3.755,2.221-5.978,2.989-2.984-.192-5.323.262-8.073.3-1.566-.928-4.126-.859-6.278-1.194-1.314-1.177-3.4-1.583-4.188-3.29-.538-3.208.039-5.826,0-9.269.506-.49.374-1.621.9-2.092a11.3,11.3,0,0,0,.6-2.094c1.278-1.413,2.018-3.363,3.287-4.784,2.8-.094,3.34-2.441,5.683-2.99.32-.341,1-.322,1.676-.3.243.007.487.014.715,0,.235-.661,1.851.058,1.5-1.2-.113-1.778-2.538-1.248-3.886-1.795a1.95,1.95,0,0,1-1.494.3A17.172,17.172,0,0,0,570.848,1122a23.6,23.6,0,0,0-3.29,3.887c-.334,3.15-1.2,5.778-.895,9.567a28.589,28.589,0,0,0,3.289,5.382c.383.309.66.149.958-.011a1.216,1.216,0,0,1,.575-.186A.987.987,0,0,1,572.044,1140.833Zm26.015-3.587c.249-.107.2-.21.121-.21C598.121,1137.036,598.045,1137.093,598.059,1137.246ZM585.2,1119.3a22.4,22.4,0,0,0-7.775,7.475v4.784c1.2,1.688,2.141,3.641,3.891,4.785a47.505,47.505,0,0,1,6.878-.3c.54-.553,1.8-.387,2.392-.9a7.85,7.85,0,0,0,2.391-.9c1.876-.416,2.831-1.754,4.482-2.39a27.039,27.039,0,0,1,2.094-2.392c.386-1.11,1.88-1.112,1.794-2.693.338-4.226-1.921-5.856-4.185-7.475a33.316,33.316,0,0,0-5.095-.337C589.7,1118.968,587.269,1119.128,585.2,1119.3Zm6.577-5.081h-1.791C588.158,1114.393,591.81,1114.938,591.777,1114.223Zm-20.929-19.136c-.012.314.144.757.3.3.007-.221-.063-.5-.159-.5C570.947,1094.888,570.9,1094.944,570.848,1095.088Zm26.012,42.756h.6a.273.273,0,0,1-.293.256A.3.3,0,0,1,596.86,1137.844Zm.6,0v-.3h.6a.413.413,0,0,1-.449.31A1.044,1.044,0,0,1,597.459,1137.844Zm42.459-5.979a8.259,8.259,0,0,1-3.483.3,17.867,17.867,0,0,0-2.2,0c-1.124-.775-1.858-1.933-2.992-2.691a56.3,56.3,0,0,1-.9-10.766c-2.715.194-6.767.811-8.97-.3-.44-.653-.579-1.609-1.193-2.092a47.391,47.391,0,0,1,.594-7.474c.022-1.65-.765-2.211-.3-3.587.391-.105.47-.526.9-.6.069-.432.893-.1.9-.6a1.615,1.615,0,0,1,1.166.138c.485.193.907.386,1.227-.138h5.978a24.7,24.7,0,0,1,.3-5.683c.041-2.248-.264-4.85.6-6.278,3.179-1.008,5.314-3.061,8.373-4.187h1.8c.168.612.912.79,1.191,1.494s.221,2.518.6,3.888a35.6,35.6,0,0,0,.6,6.578v3.589a12.652,12.652,0,0,1,6.577.3,2.323,2.323,0,0,0,1.554-.315,2.342,2.342,0,0,1,1.737-.284,3.981,3.981,0,0,1,1.791,2.991c-.495,1-.1,2.888-.6,3.891a30.753,30.753,0,0,1-.3,5.378,3.664,3.664,0,0,1-1.793,3.887c-2,.409-2.327-.862-3.589-1.2a32.4,32.4,0,0,1-5.38.6c-.111,2.024-.288,4.693-.3,7.177-.012,2.4.5,4.97-.9,6.28a3.491,3.491,0,0,1-1.385.277A2.08,2.08,0,0,1,639.918,1131.865Zm-.3-5.085v-13.756c.7-.2.225-1.566,1.494-1.193-.155.441-.441.752-.6,1.193h3.29c.47.03.235.764.9.6a10.913,10.913,0,0,0,2.239-.126,6.092,6.092,0,0,1,3.14.126c.444-1.947.317-4.471.9-6.28-.838.159-1.552.44-2.392.6H646.5a25.653,25.653,0,0,0-3.593-.895,8.42,8.42,0,0,1-3.285-.6c.064-5.048-.526-9.444-.3-14.651-.067-.234-.251-.349-.6-.3a13.369,13.369,0,0,1-3.589,1.793c-.238,1.037.446,1.15.3,2.094.193,1.1-.387,2.975.3,3.587.4-.8.643-1.751,2.093-1.5.971,2.237-1.421,3.51-1.2,5.981-.913,0-1.3,2.065-.595,2.688.167-.727.254-1.536,1.2-1.494,1.354.608.56,1.561.893,2.992a9.293,9.293,0,0,1,1.2,4.483c-.6.3-.472,1.322-1.5,1.2-.076-.42-.654-.34-.894-.6-.03-.472.037-1.039-.6-.9a1.427,1.427,0,0,0-1.793.9c.107,0,.216,0,.325,0,.89-.005,1.786-.012,1.764.9.444,1.136-1.336.059-.9,1.2v1.793c.572.125,1.287.107,1.2.9,1.137.055,1.966.424,2.091,1.494-.483,1.712-1.313,3.072-1.792,4.784.25.646.77,1.021.595,2.093h.026C638.741,1125.884,638.994,1126.519,639.62,1126.78Zm-12.557-15.25c.4.256.627-.075.652-.405.021-.272-.093-.544-.354-.489-.017.179-.047.353-.3.3Zm.3-1.194a1.313,1.313,0,0,0-.6-1.2C626.291,1109.584,626.429,1110.477,627.361,1110.336Zm8.071-3.289c-.09.7-1.039.555-.895,1.494h1.193c-.16-.426.328-1.5-.257-1.5Zm-53.223-9.269c-3.09-3.285-4.625-8.132-4.185-14.951.1-.7.47-1.123.3-2.094-.384-1.178.814-.778,1.191-1.2a3.2,3.2,0,0,1-.892-2.691c1.636-2.944,5.479-3.687,10.461-3.287a27.677,27.677,0,0,1,5.382,2.39c.642.655.932,1.662,1.794,2.092.557,2.534,1.3,4.876,1.8,7.476a50.47,50.47,0,0,1-.9,10.764c-.615.082-.6.8-.9,1.2a5.654,5.654,0,0,0-1.794,1.2c-.113.005-.238,0-.363-.005-.394-.016-.792-.033-.832.3a45.287,45.287,0,0,0-6.579.3A24.458,24.458,0,0,1,582.209,1097.779Zm.9-20.035c-.6.313-.724.674-1.2,1.2-.216,3.408.491,5.886.3,9.27.795,2.893,1.788,5.588,3.591,7.476.4-1.293,2.144-1.248,3.886-1.2.509.014,1.019.026,1.5.006a36.6,36.6,0,0,0,2.689-3.589v-5.978a9.5,9.5,0,0,0-2.392-4.784c.032.409-.4.355-.83.3a1.619,1.619,0,0,0-.663,0c-1.122-.973-1.959-2.227-3.29-2.991-.434.015-.837.005-1.214-.005-.24-.007-.469-.014-.689-.014A3.555,3.555,0,0,0,583.106,1077.744Z" transform="translate(-561.236 -1061)"/>
</svg>
