<svg width="401" height="401" viewBox="0 0 401 401" fill="none" xmlns="http://www.w3.org/2000/svg">
<g clip-path="url(#clip0_1104_1738)">
<rect width="401" height="401" fill="white"/>
<path fill-rule="evenodd" clip-rule="evenodd" d="M175.562 90.3853C178.876 91.7572 187.217 88.87 192.202 87.8232C198.824 87.5995 202.378 90.4402 207.558 91.6727C209.2 83.066 214.425 78.0429 215.236 68.6342C221.922 62.9231 225.298 53.9281 230.604 46.8578C235.72 39.5934 241.769 33.2617 247.248 26.3814C252.302 23.4842 257.026 20.0466 261.338 16.1287C263.017 16.1644 264.684 15.8403 266.228 15.1785C267.771 14.5167 269.155 13.5326 270.286 12.2917C282.623 11.1194 295.019 10.6963 307.407 11.0252C315.321 12.5026 321.003 16.2045 329.166 17.4328C335.257 24.1358 343.015 29.1886 347.097 37.9177C346.979 39.7243 346.878 41.5352 348.364 41.7505C348.921 50.8827 347.619 60.0328 344.535 68.6468C341.289 76.0717 335.671 81.099 331.728 87.8358C326.874 93.6651 321.074 98.5108 316.368 104.479C310.89 107.327 305.738 110.759 300.999 114.715C296.297 115.138 293.925 117.877 289.484 118.557C287.619 121.385 281.114 119.57 279.244 122.394C282.275 125.348 290.729 122.858 295.887 123.685H349.642C358.481 121.81 367.505 120.951 376.539 121.123C380.305 120.085 384.271 120.011 388.073 120.907C391.875 121.802 395.391 123.639 398.298 126.248C394.863 155.93 404.466 186.393 399.565 217.131C397.636 223.733 391.482 226.122 386.767 229.917C378.208 230.114 369.646 229.691 361.149 228.65C356.438 231.428 364.977 231.504 363.724 235.049C367.523 235.075 365.353 241.085 367.561 242.723C367.654 244.762 366.945 247.615 368.827 247.86V363.065C367.046 375.357 364.72 387.125 358.587 395.061C343.666 400.071 320.597 397.053 304.827 395.061C229.633 396.011 160.89 390.498 92.3355 384.821C77.9839 384.643 62.5895 385.559 50.091 383.554C42.4931 374.074 41.6787 357.831 38.5593 343.877C39.7117 306.187 41.1382 268.792 42.413 231.221C37.6601 228.296 27.0867 231.179 21.9328 228.663C15.4181 229.503 8.79696 228.63 2.72264 226.13C-0.654203 221.398 0.210878 212.42 0.160225 204.371V192.839C0.945341 189.783 -1.43943 183.552 1.45199 182.598V159.56C0.536026 154.815 3.62604 154.073 2.71852 149.315C2.93379 145.698 1.62076 140.544 5.28042 140.363C5.57589 136.391 9.82246 136.365 12.9671 135.234C16.03 134.686 19.0313 133.837 21.9281 132.702C28.8667 132.117 35.7286 130.833 42.4089 128.869C56.8364 127.493 70.0777 124.956 83.3529 122.453C97.7382 121.908 114.513 123.749 126.88 121.186C118.265 115.277 108.95 110.093 99.9882 104.543C88.9755 92.517 78.9335 79.5203 75.679 59.732C74.5773 38.5887 82.8929 26.8375 92.3185 16.2047C101.057 10.6457 110.533 6.34186 120.469 3.41914C126.54 3.33198 132.587 4.18623 138.396 5.95167C149.991 14.8539 156.854 28.4667 162.717 43.0758C167.916 58.582 172.206 74.3788 175.562 90.3853V90.3853ZM156.352 98.0677C157.091 93.91 155.508 92.0991 155.086 89.098C153.498 83.4417 150.117 79.5669 148.691 73.7503C144.959 55.7137 140.671 38.2468 130.751 26.3814C117.565 19.4462 107.649 32.5739 100.035 39.1883C100.287 40.3858 100.181 41.6309 99.7306 42.7687C99.2803 43.9065 98.5053 44.8867 97.5021 45.5874C95.7208 63.5733 103.597 71.9141 109.017 82.7074C116.332 87.7726 122.318 94.1674 132.056 96.7929C135.196 100.056 140.497 101.162 144.866 103.188C148.872 103.922 155.039 109.144 158.948 105.75C155.293 105.965 159.978 97.8566 156.352 98.0677V98.0677ZM301.003 30.2227C291.603 29.8483 282.186 30.2719 272.857 31.489C269.691 34.6588 265.701 36.8785 261.338 37.8966C244.991 56.9121 231.225 78.0009 220.394 100.617C217.634 102.129 214.57 103.004 211.428 103.179C210.901 108.637 212.665 116.366 210.162 119.819C227.945 119.097 243.445 120.663 260.08 121.085C261.988 118.666 252.081 117.202 253.685 110.841C260.779 105.615 269.21 102.51 277.998 101.888C281.878 97.2149 288.694 95.4886 293.371 91.6475C298.905 88.3965 304.052 84.5292 308.715 80.1197C317.06 70.9643 324.878 61.2769 326.646 45.5619C321.53 37.0143 312.472 32.405 301.003 30.2227V30.2227ZM193.476 107.046C190.674 104.222 188.246 108.312 183.24 107.046C181.953 108.734 182.033 111.799 179.403 112.162C175.372 111.554 174.397 113.977 171.717 114.695C170.421 111.85 163.152 113.686 164.043 117.269C166.238 120.194 173.81 117.725 178.133 118.536H194.755C194.709 114.327 192.598 112.179 193.476 107.033V107.046ZM265.158 121.123C264.162 121.41 262.626 121.123 262.626 122.389C263.601 122.098 265.141 122.351 265.158 121.11V121.123ZM176.845 146.724C178.467 146.642 180.037 146.123 181.388 145.221C182.739 144.32 183.821 143.07 184.519 141.604C183.424 141.833 182.294 141.839 181.197 141.622C180.099 141.404 179.057 140.967 178.133 140.337C177.501 141.259 177.063 142.298 176.844 143.394C176.626 144.49 176.632 145.618 176.862 146.711L176.845 146.724ZM75.7213 142.883C57.6917 147.1 39.1685 148.823 20.6704 148.003C18.577 168.431 18.577 189.02 20.6704 209.449C49.7407 207.57 88.2072 206.57 115.403 210.715H156.348C160.24 209.905 167.382 212.344 169.163 209.449C166.83 209.548 164.535 208.837 162.668 207.436C160.8 206.034 159.475 204.029 158.919 201.762C158.163 181.674 159.009 161.557 161.451 141.604C133.157 142.266 105.324 143.461 75.7213 142.87V142.883ZM188.377 159.522C192.117 160.033 193.552 162.865 196.047 164.646C197.017 168.357 202.116 167.964 201.167 173.604C202.142 181.404 195.258 181.341 194.755 187.681C201.066 186.933 201.644 191.902 201.167 197.929C204.518 197.558 206.675 198.398 206.279 201.762C205.797 205.962 202.534 207.41 201.167 210.732C206.996 210.162 215.261 211.998 219.081 209.465C217.332 187.311 217.332 165.054 219.081 142.899C213.632 140.671 204.674 141.941 197.321 141.633C196.557 149.776 190.758 152.95 188.377 159.509V159.522ZM237.008 142.883C236.129 143.208 235.33 143.72 234.667 144.383C234.004 145.046 233.492 145.844 233.167 146.724C234.944 166.693 235.64 187.769 235.699 209.449C276.137 208.06 318.301 208.397 353.467 201.762H372.668C375.513 184.549 376.387 165.389 377.788 146.724C331.412 149.299 279.075 148.687 237.008 142.87V142.883ZM340.681 295.212C341.77 283.725 342.201 272.186 341.973 260.65C341.504 254.284 339.309 247.708 339.406 241.448C340.617 239.022 341.481 236.437 341.973 233.77C343.885 231.845 347.367 231.478 348.368 228.646H345.835C343.083 231.014 336.443 229.511 331.753 229.912C329.339 232.192 323.312 230.853 318.947 231.2C310.053 231.693 301.805 232.838 293.355 233.766C278.97 233.213 262.191 235.033 249.823 232.5C241.381 234.72 229.452 233.471 219.102 233.766C221.694 276.821 221.918 322.273 221.669 368.173C240.427 371.039 260.629 368.173 280.552 368.173C300.763 368.173 320.462 369.545 339.427 370.726C342.327 346.907 339.571 320.673 340.681 295.199V295.212ZM61.6272 233.758C60.6986 237.671 63.8477 237.523 62.8938 241.436V260.637C65.8865 264.892 62.2395 275.833 65.4644 279.835C66.6857 276.667 68.7746 273.907 71.492 271.871C74.2094 269.835 77.4454 268.606 80.8291 268.324C85.2697 271.507 82.6568 279.472 80.8291 283.676C78.63 288.741 77.8238 295.182 74.43 299.032C72.2773 311.408 62.6871 316.338 64.1855 332.323C69.0144 332.028 67.8408 325.734 71.8635 324.641C73.0329 321.075 75.2642 317.951 78.2585 315.688C80.2517 312.612 82.8704 309.99 85.9447 307.993C88.1227 306.267 95.7543 303.392 98.7428 306.727C101.744 311.315 95.472 315.735 93.6232 319.529C90.8288 323.565 90.1404 329.702 85.9447 332.332C84.2475 337.214 82.1041 341.929 79.5415 346.418C79.8792 350.153 76.6588 350.347 76.9796 354.087C75.2912 354.383 71.9143 361.314 76.9796 360.486C79.145 358.376 78.5751 353.543 80.8291 351.529C82.7159 348.731 83.315 344.636 85.9447 342.568C88.777 336.439 93.3612 332.053 96.1851 325.929C101.394 322.328 106.316 314.012 114.103 316.971C114.394 319.058 114.197 321.184 113.529 323.182C112.862 325.181 111.74 326.998 110.254 328.491C107.531 331.289 106.759 336.059 103.863 338.727C101.993 347.958 94.7333 351.812 93.6232 361.765C100.744 360.672 109.14 363.509 112.825 361.765C117.577 357.122 118.135 348.308 126.91 347.696C132.068 352.998 125.462 356.983 124.348 363.057C132.817 364.329 141.391 364.753 149.944 364.323C150.1 359.777 149.024 354.011 153.794 354.079C158.015 354.501 155.791 361.461 156.327 365.611C164.579 364.602 168.939 367.502 176.82 366.877C170.483 322.803 168.764 278.188 171.692 233.758C132.837 234.636 97.5948 231.9 61.6061 229.904L61.6272 233.758ZM192.197 249.114C196.215 249.764 197.427 246.1 198.609 250.38C199.453 255.475 195.232 255.538 196.042 260.629C192.324 263.309 187.461 264.85 187.073 270.865C191.019 270.865 194.586 263.968 198.609 268.332C197.82 277.787 189.669 279.864 187.073 287.521C192.67 286.297 194.012 280.81 201.163 281.126C200.179 264.364 202.725 251.11 202.429 235.041C202.159 234.041 201.349 233.551 199.897 233.775C198.896 240.457 194.169 243.394 192.202 249.114H192.197ZM188.373 309.285C189.094 311.522 186.82 316.803 189.639 316.963C190.365 319.217 188.086 324.481 190.906 324.641C192.594 320.369 198.144 319.939 201.146 316.963V297.766C200.867 296.761 200.061 296.271 198.613 296.474C196.131 301.687 189.77 303.017 188.377 309.285H188.373ZM190.906 340.01C192.513 339.278 194.259 338.899 196.025 338.899C197.792 338.899 199.538 339.278 201.146 340.01C200.745 336.127 202.568 330.04 198.613 329.757C197.718 334.86 191.117 334.236 190.927 340.01H190.906ZM192.172 357.92C195.578 357.92 199.487 357.439 201.137 359.186C200.293 354.463 202.788 346.434 199.871 343.834C198.963 350.183 191.497 349.967 192.202 357.92H192.172ZM201.137 368.164C200.909 366.252 201.589 363.433 199.871 363.048C199.723 366.252 197.431 367.046 201.167 368.164H201.137Z" fill="#8843F2"/>
</g>
<defs>
<clipPath id="clip0_1104_1738">
<rect width="401" height="401" fill="white"/>
</clipPath>
</defs>
</svg>
