<svg width="105px" height="105px" viewBox="-21.11 0 105 105" xmlns="http://www.w3.org/2000/svg">
  <path id="mobile" d="M225.636,528.552c5.783-.279,10.361.65,15.624.886.511.866,3.03-.278,3.538.588,1.208-.481,1.663.106,2.949-.294a25.763,25.763,0,0,1,7.37.589,15.366,15.366,0,0,1,5.3,5.307c.45,1.517.7,3.226,1.179,4.718.307,2.66-.607,4.106-.587,6.485.542,7.317.47,15.252.881,22.7-.332,9.3-.793,18.468-1.176,27.712-.583,8.261.2,18.613-1.477,26.532-1.322,2.213-3.824,3.247-5.009,5.6-1.356.611-3.506.424-4.424,1.476-.8.182-.733,1.231-1.769,1.178-.116.864-1.729.235-2.061.884-6.25-.252-11.627.362-17.393.589-5.541-.453-11.062-.927-16.8-1.179-.008-.286-.361-.229-.59-.294a27.021,27.021,0,0,1-5.6-2.654c-1.782-.872-2.734-2.573-4.13-3.831a2.742,2.742,0,0,0-.881-2.065,29.415,29.415,0,0,1-.591-8.253c-.536-3.9-.3-8.266-.3-12.676a117.221,117.221,0,0,1,.3-12.677c-.462-8.442-.885-16.978-.885-25.648,0-8.448,1.048-16.956.885-25.352a12.693,12.693,0,0,1,2.357-4.423c.222-1.94,2.046-2.278,2.948-3.536.343.047.525-.066.591-.294,2.459-1.08,5.7-1.379,9.434-1.18a45.769,45.769,0,0,1,9.728-.59C225.391,528.9,225.573,528.783,225.636,528.552Zm9.729,11.794c-.122-.5-.379.061-.883,0-4.042.086-8.491-.238-12.086.293-3.917.213-7.784.47-11.5.885-.97,2.275-.959,5.527-.888,8.842a20.733,20.733,0,0,0-.293,4.424c-.184,1.486-.811,2.527-.885,4.127.3,10.386-.4,20.97,0,30.659a5.838,5.838,0,0,1,0,1.473c-.035.3.286.349.295.59.179,3.735-.376,7.338.3,10.909a6.4,6.4,0,0,0,.885,2.359c.3.781.484,1.675,1.473,1.768.657.916,2.176.967,3.831.884a16.623,16.623,0,0,0,4.425-.3c3.3.155,5.766-.52,9.135-.295,5.75-.638,12.641-.134,18.867-.294.841-1.223,2.1-2.034,2.951-3.244-.027-10.539.045-20.983,1.474-30.068a126.042,126.042,0,0,1-1.474-15.921V548.6c0-2.961.413-6.043-.59-8.254A77.4,77.4,0,0,0,235.365,540.346Zm-21.816,73.7c.044-.348.525-.669,0-.885C213.508,613.508,213.024,613.828,213.549,614.044Zm3.245,1.475a21.174,21.174,0,0,0,2.358-.885c1.057-.121,2.284-.075,2.653-.885C219.857,613.417,216.482,612.778,216.794,615.519Zm13.56-1.77c-2.567,1.265-6.039,1.628-7.371,4.128v4.716a2.73,2.73,0,0,1,1.179,1.769c1.189.287,1.806,1.143,2.655,1.77,4.429.829,7.92-.608,8.548-4.423a17.991,17.991,0,0,0-2.062-6.78A13.027,13.027,0,0,0,230.354,613.749Zm-27.12.295c-.086-.081-.451.144-.3.294C203.021,614.42,203.386,614.2,203.234,614.044Zm48.05,1.18v.589c.725.459.866-1,.3-.884C251.563,615.108,251.536,615.277,251.284,615.224Zm-48.641,4.421c-.191-1.381.386-3.53-.3-4.421C201.729,616.259,200.62,619.326,202.643,619.645ZM216.2,616.7c-.226.962-1.564,2.349-.881,3.242.266-1.6,1.552-2.179,2.065-3.537C216.825,616.337,216.733,616.734,216.2,616.7Zm4.423-.295c-.226.065-.581.008-.586.295C220.264,616.631,220.616,616.69,220.624,616.4Zm24.174,3.832c1.733-.136,2.058-1.677,2.359-3.242C245.205,615.9,244.3,618.781,244.8,620.235Zm-41.564,0c.079.268,1.1.99,1.178.294a1.656,1.656,0,0,0-1.178-.294C203.051,619.807,202.877,620.265,203.234,620.235Zm15.033,5.307c.331.061.457.327.59.59a1.822,1.822,0,0,0,2.06-2.064C219.985,622.889,218.056,623.838,218.267,625.542Zm-9.727,3.537c.263-.522,1.2-.376.884-1.475-.4-.092-.561-.418-1.178-.293C207.838,627.688,207.731,629.074,208.54,629.079Z" transform="translate(-199.105 -528.5)" fill-rule="evenodd"/>
</svg>
