<svg width="103.623px" height="103.623px" viewBox="0 -8.55 103.623 103.623" xmlns="http://www.w3.org/2000/svg">
  <path id="folder1" d="M785.376,370.771c2.5-.355,4.961-.746,7.416-1.14,11.522-.18,22.973-.427,34.523-.571,1.559.152,3.008.417,4.565.571h6.564c2.4.226,4.143-.657,5.416.57,1.893,2.879-.365,6.879.287,11.127-.179,1.037.59,1.121,1.428,1.141.26.5,1,.522,1.426.856a12.348,12.348,0,0,0,2,2.568c.566,8.182.166,17.332.285,25.961-.322,8.331-1.312,16-1.428,24.537-.849,3.16-.83,6.441-2.281,9.128-.105.2-.463.4-.57.571a9.173,9.173,0,0,1-2.569,2.853c-2.955.468-6.617.233-9.988.286-.816-.323-2.22-.058-2.851-.572a68.007,68.007,0,0,1-12.551-1.14c-7.477-.059-14.94-.1-21.4.856-6.822-.165-12.814.5-19.685.284a81.8,81.8,0,0,1-12.838.572,31.073,31.073,0,0,1-6.275-.572c-.741-.4-1.889-.4-2.569-.856-.738-.307-1.062-1.031-2-1.141a19.645,19.645,0,0,1-3.138-7.986,89.117,89.117,0,0,1-.573-10.273c-1.015-6.651-.289-13.321-1.427-19.685-1.835-9.1-1.411-20.461-1.424-31.382.6-1.927-.053-4.145.568-5.706.252-.622,1-2.313,1.43-3.138.457-.97,2.07-.779,2.849-1.425.936-.493,1.348-1.508,2.285-2,4.866-.08,8.44-1.449,12.553-2.282,5.221.2,11.518-.678,15.121,1.141,1.037.958,2.252,1.741,2.852,3.14C784.071,368.275,784.456,369.789,785.376,370.771Zm50.213,14.551a42.1,42.1,0,0,0-8.844-2c-13.322-.671-26.117.622-39.943.286a3.752,3.752,0,0,0-1.994-.572c-.518-.812-1.569-1.094-2.284-1.711-1.707-3.81-2.533-8.5-5.136-11.413-.219-.063-.561-.005-.569-.284-2.847-.577-6.687-.159-9.986-.285-3.254.265-5.91,1.127-9.131,1.425h-4.564c-.8,4.616.22,11.061-.569,15.693.2,3.436-.306,6.16-.285,9.413-.474,1.418-1.383,3.465-.287,4.852.8-2.913,1.939-5.48,2.854-8.274.5-.775,1.033-2.243,1.425-2.854.957-1.491,2.51-2.843,4.565-1.426a6.939,6.939,0,0,1-1.139,4.565,16.614,16.614,0,0,1-1.428,4.565c-.207.937.569.437.569,0,.086-.583.775-.561.859-1.141a3.607,3.607,0,0,1,3.137-.857c.256.506.689.834.857,1.426-.146,1.089-.336,2.138-1.144,2.569a9.1,9.1,0,0,1-1.139,2.852c-.549,2.116-1.543,3.786-1.994,5.991-.98,1.589-1.162,3.978-2,5.707-.543,2.123-1.281,4.044-1.715,6.276-.627.226-.367,1.341-1.139,1.427-.035.821-1.214.495-1.142,1.426.826.126-.252,2.156.572,2.283,1.1-3.748,2.842-6.856,4.279-10.272.879-1.594,1.647-3.3,2.567-4.848,1.277-1.3,1.879-3.271,4.279-3.14.965.986.1,2.008,0,3.424-.9.71-.8,2.427-1.711,3.138-.642,2.495-1.828,4.448-2.283,7.133a54.338,54.338,0,0,0-2.566,6.847,62.872,62.872,0,0,0-2.284,7.133c-.587.077-.267,1.062-.857,1.139-.418.25-.9.428-.854,1.143a25.048,25.048,0,0,0,.854,3.424c.209.853.881,2.719,1.715,2-.582-.275-.617-1.1-.57-2a126.041,126.041,0,0,1,5.421-13.981,19.622,19.622,0,0,1,1.711-3.138c.391-1.225,1.356-1.878,1.711-3.138a20.722,20.722,0,0,0,2.283-2.568c.969-.527,1.911-1.716,3.139-1.141,1.244.986-.045,2.274-.287,3.423a6.758,6.758,0,0,0-1.711,3.139c-1.383,1.945-1.978,4.678-3.141,6.848a51.34,51.34,0,0,1-2.851,6.845c-.057,1.56-.953,2.28-1.141,3.711-.476.379-.443,1.267-.857,1.711.049.488-1.617,1.122-.283,1.142h5.421c-.1-.953-.83-1.265-.572-2.57.848-1.623,1.326-3.618,2.567-4.85a18.758,18.758,0,0,1,2.855-4.847,18.167,18.167,0,0,1,1.426-2.283c.455-.875,1.516-1.151,1.709-2.284,1.652-.915,2.015-3.121,4.851-2.852,1.409,1.6-.441,3.848-1.427,4.849-.534,1.94-1.858,3.088-2.567,4.851a56.314,56.314,0,0,0-4.849,9.986c2.732.162,4.634-.5,7.416-.287,1.539-4.642,4.586-7.779,6.562-11.98.975-.549,1.332-1.711,1.711-2.856a7.741,7.741,0,0,0,1.715-2.851c.873-.647,1.24-1.8,2-2.569.678-.656,3.18-1.029,3.42.286.08,1.312-1.025,1.443-1.424,2.283a12.516,12.516,0,0,0-1.142,2.566,47.242,47.242,0,0,0-2.567,4.85,39.6,39.6,0,0,1-2.283,5.136c-.82,1.749-1.99,3.143-2.566,5.135,4.25-.585,7.668-.192,11.129-.57.132-3.1,1.792-4.67,2.851-6.846,1.168-2.064,1.949-4.517,3.424-6.278.853-2.378,2.363-4.1,3.422-6.276.635-.982,1.287-1.947,2-2.853.832-.782,1.121-2.11,2.849-2,1.664,1.548.051,3.02-.568,4.278-.271.549-.342,1.258-.57,1.712a66.917,66.917,0,0,0-3.141,5.991c-1.725,2.851-3.086,5.986-4.564,8.844-.543,1.051-1.407,1.913-1.428,3.139a57.664,57.664,0,0,1,8.847-.571,3.872,3.872,0,0,1,.286-3.139c.81-1.945,2-3.511,2.853-5.419,1.658-1.194,1.7-4.01,4.563-3.994a2.551,2.551,0,0,1,1.14,1.14c-.933,4.488-3.617,7.226-4.851,11.412h6.279c.176-1.629,1.145-2.469,1.426-3.994,1.146-.849,1.549-2.445,3.711-2.282,1.136.191,1.32,1.339,1.711,2.282.179,2.047-1.52,3.532-1.143,4.85,5.879.017,10.557,1.236,16.832.857,1.6-2.783,1.871-6.881,2.281-10.843v-4.849c.471-2.379.665-5.513.858-7.133.156-1.3.215-2.528.285-3.139.436-3.629.443-6.4.568-9.7.194-4.924-.138-10.143,0-15.974.086-1.006.565-2.546,0-3.995C841.608,386.342,838.132,386.3,835.589,385.322Zm-3.424-10.842a138.635,138.635,0,0,0-20.541-1.425c-7.262-.085-14.877-.173-22.252.285-1.353-.212-1.965.32-3.139.285.041.906.645,1.254.569,2.283.66.291-.008,1.909,1.142,1.711.211.644,1.6.111,2.282.284H810.2c1.1-.151,1.387.509,2.567.287h11.125c1.369.048,1.871-.539,2.57,0,5.15-.207,8.242,1.644,12.266,2.568-.207-2.394.31-4.067.285-6.278Z" transform="translate(-745.688 -362.742)" fill-rule="evenodd"/>
</svg>
