<svg width="128" height="137" viewBox="0 0 128 137" fill="none" xmlns="http://www.w3.org/2000/svg">
<path fill-rule="evenodd" clip-rule="evenodd" d="M71.7634 3.3029C74.3582 4.24736 75.6962 7.11657 74.7517 9.71146L70.9895 20.0481C70.1803 22.2712 67.9584 23.5718 65.7065 23.3048C65.3371 23.5734 64.9243 23.7955 64.4737 23.9595C61.8788 24.904 59.0096 23.5661 58.0651 20.9712L54.3029 10.6346C53.3584 8.03967 54.6964 5.17046 57.2913 4.22599C59.8861 3.28153 62.7554 4.61947 63.6998 7.21436L64.3593 9.0263L65.3548 6.29126C66.2993 3.69637 69.1685 2.35844 71.7634 3.3029Z" fill="#282828"/>
<ellipse cx="64" cy="61.5" rx="49" ry="50.5" fill="#282828"/>
<path fill-rule="evenodd" clip-rule="evenodd" d="M20.5311 84.83C20.528 84.8074 20.525 84.7848 20.522 84.7622C17.5644 62.6321 27.4747 43.0473 42.6572 41.0183C50.4102 39.9822 58.0387 43.7243 64.042 50.5817C70.0453 43.7243 77.6739 39.9822 85.4268 41.0183C100.573 43.0425 110.472 62.5384 107.583 84.6031C99.4466 100.874 82.9841 112 64 112C45.1044 112 28.7068 100.977 20.5311 84.83Z" fill="white"/>
<circle cx="34.5" cy="81.5" r="7.5" fill="#FFC6AD"/>
<circle cx="93.5" cy="81.5" r="7.5" fill="#FFC6AD"/>
<g filter="url(#filter0_f_202_54)">
<path d="M15.2922 74.7108C15.413 73.9505 16.3136 73.6043 16.9248 74.0724C43.4566 94.3936 85.9741 93.4918 110.625 74.0478C111.217 73.5807 112.103 73.8895 112.259 74.6272L116.725 95.7054C117.477 99.2542 115.755 102.89 112.443 104.371C80.6782 118.567 45.7394 118.543 16.026 104.298C12.9739 102.835 11.3548 99.4919 11.8859 96.1491L15.2922 74.7108Z" fill="#8ED2C9"/>
</g>
<path d="M15.2922 74.7108C15.413 73.9505 16.3136 73.6043 16.9248 74.0724C43.4566 94.3936 85.9741 93.4918 110.625 74.0478C111.217 73.5807 112.103 73.8895 112.259 74.6272L116.725 95.7054C117.477 99.2542 115.755 102.89 112.443 104.371C80.6782 118.567 45.7394 118.543 16.026 104.298C12.9739 102.835 11.3548 99.4919 11.8859 96.1491L15.2922 74.7108Z" fill="#8ED2C9"/>
<g filter="url(#filter1_f_202_54)">
<path d="M79.9926 101C78.8241 101 77.9035 102.001 78.0081 103.165C79.097 115.28 80.7591 122.195 87.0864 130.995C87.5314 131.614 88.2981 131.912 89.0474 131.772L89.1403 131.755C89.6759 133.311 90.5568 134.558 91.5879 135.678C91.9621 136.084 92.5947 136.11 93.0009 135.736C93.4071 135.361 93.433 134.729 93.0588 134.323C92.2246 133.417 91.5621 132.484 91.1338 131.383L93.5366 130.935C94.0576 132.642 94.9872 133.983 96.0879 135.178C96.4621 135.584 97.0947 135.61 97.5009 135.236C97.9071 134.861 97.933 134.229 97.5588 133.823C96.6456 132.831 95.9381 131.807 95.5184 130.565L97.6132 130.175C98.146 131.769 99.0392 133.039 100.088 134.178C100.462 134.584 101.095 134.61 101.501 134.236C101.907 133.861 101.933 133.229 101.559 132.823C100.705 131.895 100.031 130.939 99.6035 129.804L101.697 129.414C102.236 130.897 103.092 132.097 104.088 133.178C104.462 133.584 105.095 133.61 105.501 133.236C105.907 132.861 105.933 132.229 105.559 131.823C104.765 130.96 104.126 130.073 103.697 129.041L105.787 128.651C106.329 130.026 107.146 131.155 108.088 132.178C108.462 132.584 109.095 132.61 109.501 132.236C109.907 131.861 109.933 131.229 109.559 130.823C108.826 130.027 108.225 129.209 107.8 128.276L109.883 127.887C110.424 129.156 111.2 130.214 112.088 131.178C112.462 131.584 113.095 131.61 113.501 131.236C113.907 130.861 113.933 130.229 113.559 129.823C112.887 129.094 112.327 128.347 111.911 127.509L113.987 127.122C114.521 128.288 115.256 129.274 116.088 130.178C116.462 130.584 117.095 130.61 117.501 130.236C117.907 129.861 117.933 129.229 117.559 128.823C116.818 128.018 116.212 127.192 115.786 126.246C116.239 125.636 116.341 124.78 115.93 124.043C111.581 116.238 109.458 110.953 107.658 102.604C107.457 101.674 106.639 101 105.687 101H79.9926Z" fill="#8ED2C9"/>
</g>
<path fill-rule="evenodd" clip-rule="evenodd" d="M79.9926 101C78.8241 101 77.9035 102.001 78.0081 103.165C79.097 115.28 80.7591 122.195 87.0864 130.995C87.5314 131.614 88.2981 131.912 89.0474 131.772L89.1403 131.755C89.6759 133.311 90.5568 134.558 91.5879 135.678C91.9621 136.084 92.5947 136.11 93.0009 135.736C93.4071 135.361 93.433 134.729 93.0588 134.323C92.2246 133.417 91.5621 132.484 91.1338 131.383L93.5366 130.935C94.0576 132.642 94.9872 133.983 96.0879 135.178C96.4621 135.584 97.0947 135.61 97.5009 135.236C97.9071 134.861 97.933 134.229 97.5588 133.823C96.6456 132.831 95.9381 131.807 95.5184 130.565L97.6132 130.175C98.146 131.769 99.0392 133.039 100.088 134.178C100.462 134.584 101.095 134.61 101.501 134.236C101.907 133.861 101.933 133.229 101.559 132.823C100.705 131.895 100.031 130.939 99.6035 129.804L101.697 129.414C102.236 130.897 103.092 132.097 104.088 133.178C104.462 133.584 105.095 133.61 105.501 133.236C105.907 132.861 105.933 132.229 105.559 131.823C104.765 130.96 104.126 130.073 103.697 129.041L105.787 128.651C106.329 130.026 107.146 131.155 108.088 132.178C108.462 132.584 109.095 132.61 109.501 132.236C109.907 131.861 109.933 131.229 109.559 130.823C108.826 130.027 108.225 129.209 107.8 128.276L109.883 127.887C110.424 129.156 111.2 130.214 112.088 131.178C112.462 131.584 113.095 131.61 113.501 131.236C113.907 130.861 113.933 130.229 113.559 129.823C112.887 129.094 112.327 128.347 111.911 127.509L113.987 127.122C114.521 128.288 115.256 129.274 116.088 130.178C116.462 130.584 117.095 130.61 117.501 130.236C117.907 129.861 117.933 129.229 117.559 128.823C116.818 128.018 116.212 127.192 115.786 126.246C116.239 125.636 116.341 124.78 115.93 124.043C111.581 116.238 109.458 110.953 107.658 102.604C107.457 101.674 106.639 101 105.687 101H79.9926Z" fill="#8ED2C9"/>
<path d="M92.1139 108.589C92.1818 108.549 92.2484 108.507 92.3137 108.461C93.4285 107.672 93.697 106.135 92.9133 105.027C92.1296 103.92 90.5906 103.662 89.4758 104.451C89.3676 104.527 89.2673 104.611 89.1752 104.701C89.1066 103.747 88.5021 102.877 87.5657 102.533C86.2991 102.068 84.905 102.742 84.4518 104.038C84.2103 104.73 84.2849 105.458 84.5992 106.058C84.4987 106.046 84.3964 106.039 84.2927 106.039C82.9194 106.035 81.8201 107.126 81.8373 108.475C81.8546 109.824 82.9818 110.921 84.3551 110.925C84.4292 110.925 84.5026 110.922 84.5749 110.916C84.5452 110.982 84.518 111.05 84.4935 111.12C84.0404 112.417 84.6999 113.845 85.9665 114.309C87.2332 114.774 88.6273 114.1 89.0804 112.804C89.1207 112.689 89.1521 112.573 89.1752 112.456C89.6238 112.861 90.2205 113.109 90.8727 113.111C92.246 113.115 93.3453 112.024 93.3281 110.675C93.3168 109.794 92.8318 109.02 92.1139 108.589Z" fill="white"/>
<g style="mix-blend-mode:multiply">
<circle cx="88.0973" cy="108.606" r="1.85293" transform="rotate(79.3678 88.0973 108.606)" fill="#FED402"/>
</g>
<path d="M106.93 118.003C107.025 117.949 107.118 117.889 107.21 117.825C108.768 116.722 109.143 114.574 108.048 113.026C106.952 111.478 104.801 111.118 103.243 112.22C103.092 112.327 102.952 112.444 102.823 112.57C102.727 111.236 101.882 110.02 100.574 109.54C98.8036 108.89 96.8551 109.832 96.2218 111.644C95.8842 112.61 95.9886 113.628 96.4278 114.467C96.2873 114.449 96.1444 114.44 95.9994 114.44C94.0801 114.435 92.5437 115.959 92.5678 117.844C92.5919 119.73 94.1673 121.263 96.0866 121.268C96.1902 121.269 96.2927 121.264 96.3939 121.256C96.3523 121.349 96.3143 121.444 96.2801 121.542C95.6468 123.353 96.5685 125.349 98.3388 125.999C100.109 126.649 102.057 125.707 102.691 123.895C102.747 123.734 102.791 123.572 102.823 123.409C103.45 123.975 104.284 124.322 105.196 124.324C107.115 124.33 108.651 122.805 108.627 120.92C108.612 119.688 107.934 118.606 106.93 118.003Z" fill="white"/>
<g style="mix-blend-mode:multiply">
<circle cx="101.317" cy="118.027" r="2.58966" transform="rotate(79.3678 101.317 118.027)" fill="#FED402"/>
</g>
<circle r="6.5" transform="matrix(-1 0 0 1 41.5 68.5)" fill="#282828"/>
<circle r="1.5" transform="matrix(-1 0 0 1 44.5 66.5)" fill="white"/>
<circle r="6.5" transform="matrix(-1 0 0 1 86.5 68.5)" fill="#282828"/>
<circle r="1.5" transform="matrix(-1 0 0 1 89.5 66.5)" fill="white"/>
<path d="M73 70.5C73 68.0147 68.9706 66 64 66C59.0294 66 55 68.0147 55 70.5C55 72.9853 59.0294 78 64 78C68.9706 78 73 72.9853 73 70.5Z" fill="#FED402"/>
<circle cx="21" cy="6" r="2" fill="white"/>
<circle cx="120" cy="40" r="2" fill="white"/>
<circle cx="103" cy="7" r="2" fill="white"/>
<circle cx="12" cy="123" r="2" fill="white"/>
<circle cx="83" cy="36" r="2" fill="white"/>
<circle cx="43" cy="78" r="2" fill="white"/>
<circle cx="12" cy="28" r="2" fill="white"/>
<circle cx="122" cy="2" r="2" fill="white"/>
<circle cx="126.5" cy="104.5" r="1.5" fill="white"/>
<circle cx="120.5" cy="123.5" r="1.5" fill="white"/>
<circle cx="1.5" cy="106.5" r="1.5" fill="white"/>
<defs>
<filter id="filter0_f_202_54" x="10.7861" y="72.8263" width="107.113" height="43.1736" filterUnits="userSpaceOnUse" color-interpolation-filters="sRGB">
<feFlood flood-opacity="0" result="BackgroundImageFix"/>
<feBlend mode="normal" in="SourceGraphic" in2="BackgroundImageFix" result="shape"/>
<feGaussianBlur stdDeviation="0.5" result="effect1_foregroundBlur_202_54"/>
</filter>
<filter id="filter1_f_202_54" x="77" y="100" width="41.8234" height="37" filterUnits="userSpaceOnUse" color-interpolation-filters="sRGB">
<feFlood flood-opacity="0" result="BackgroundImageFix"/>
<feBlend mode="normal" in="SourceGraphic" in2="BackgroundImageFix" result="shape"/>
<feGaussianBlur stdDeviation="0.5" result="effect1_foregroundBlur_202_54"/>
</filter>
</defs>
</svg>
