<svg width="750" height="750" viewBox="0 0 750 750" fill="none" xmlns="http://www.w3.org/2000/svg">
<path d="M375 749C581.555 749 749 581.555 749 375C749 168.445 581.555 1 375 1C168.445 1 1 168.445 1 375C1 581.555 168.445 749 375 749Z" fill="#D9D9D9" stroke="#231815" stroke-width="2" stroke-miterlimit="10"/>
<path d="M78.1202 200.731C68.1982 194.101 69.9659 180.935 76.0072 172.346C81.1378 165.061 92.0776 158.198 100.762 164.061C97.9165 167.519 96.5119 169.281 93.7501 172.858C91.1075 171.489 86.8934 173.215 83.5246 177.84C79.6915 183.101 80.126 188.553 84.2924 191.41C88.4588 194.267 93.6013 192.892 97.2499 187.875C100.458 183.47 100.964 179.125 98.9403 176.881C101.648 173.37 103.023 171.644 105.821 168.251C112.713 175.191 109.987 186.464 104.803 193.398C98.9701 201.189 87.2268 206.82 78.1202 200.731Z" fill="#231815"/>
<path d="M93.1786 151.788C99.0473 144.973 105.083 138.349 111.296 131.861C116.058 126.986 122.778 124.421 128.004 129.992C131.2 133.397 131.617 137.23 129.593 141.146C132.617 138.563 136.14 138.688 139.009 141.711L144.134 147.14C141.324 149.806 139.938 151.163 137.194 153.925C135.587 152.324 134.783 151.544 133.182 149.913C131.039 147.777 129.861 147.681 127.956 149.64C124.058 153.639 122.141 155.687 118.385 159.883L125.528 166.305C122.903 169.239 121.605 170.727 119.052 173.751L93.1786 151.788ZM120.558 144.443C122.474 142.455 123.403 140.723 121.457 138.789C119.51 136.855 117.796 137.843 115.844 139.866C112.225 143.664 110.439 145.592 106.868 149.532L111.749 153.937C115.231 150.068 116.987 148.169 120.558 144.443Z" fill="#231815"/>
<path d="M124.724 118.784C132.902 111.398 141.282 104.356 149.966 97.5712L155.079 104.226C149.294 108.654 143.647 113.259 138.14 118.04L141.265 121.647C146.538 117.165 151.853 112.82 157.293 108.553L161.93 114.594C156.603 118.76 151.401 123.028 146.24 127.415L149.395 131.063C154.698 126.557 160.043 122.201 165.525 117.909C167.555 120.57 168.566 121.903 170.602 124.564C162.662 130.599 155.043 137.063 147.693 143.812L124.724 118.784Z" fill="#231815"/>
<path d="M166.501 85.6614C170.894 82.6854 173.12 81.2272 177.602 78.4119C188.065 85.1575 198.279 92.2384 208.243 99.6546C204.761 101.625 203.029 102.631 199.6 104.726C197.434 103.101 196.339 102.291 194.142 100.696C188.494 104.184 185.708 105.999 180.215 109.791C180.774 112.457 181.066 113.785 181.661 116.439C178.364 118.749 176.733 119.933 173.489 122.356C170.757 110.184 168.442 98.0178 166.501 85.6614ZM187.071 95.6905C182.732 92.6848 180.524 91.2027 176.096 88.2981C176.971 93.53 177.441 96.1369 178.477 101.321C181.863 99.0118 183.595 97.8868 187.071 95.6905Z" fill="#231815"/>
<path d="M188.619 71.7752C199.487 65.6268 210.528 59.9783 221.879 54.7584L225.724 63.2876C220.932 65.4363 218.552 66.5553 213.82 68.8884C217.462 76.2292 221.103 83.57 224.742 90.9109C221.397 92.5596 219.736 93.4107 216.409 95.1606L204.874 73.4536C200.196 75.9297 197.874 77.2153 193.273 79.8758L188.619 71.7752Z" fill="#231815"/>
<path d="M225.783 53.0324C229.539 51.4016 231.426 50.6159 235.217 49.0922L247.931 80.5545C244.485 81.9354 242.776 82.6496 239.366 84.1257L225.783 53.0324Z" fill="#231815"/>
<path d="M238.408 47.8242C242.455 46.2469 244.491 45.4851 248.574 44.0268C255.121 50.9847 261.543 58.1033 267.692 65.454C268.4 55.9308 269.34 46.4076 270.602 36.9558C274.769 35.7654 276.876 35.1702 281.078 34.1108C279.102 46.2588 277.506 58.4069 276.274 70.6501C271.233 72.1619 268.721 72.9714 263.733 74.6856C255.579 65.4481 247.137 56.4943 238.408 47.8242Z" fill="#231815"/>
<path d="M284.392 33.2657C294.701 30.8313 305.016 28.76 315.456 27.022L316.765 35.2834C309.829 36.3667 302.933 37.6543 296.076 39.1463C296.481 41.0092 296.671 41.9437 297.094 43.8067C303.641 42.4556 310.117 41.2354 316.688 40.1224C317.17 43.0984 317.408 44.6281 317.878 47.6338C311.45 48.723 305.093 49.9134 298.707 51.2348C299.124 53.1216 299.302 54.062 299.743 55.9428C306.29 54.5917 312.837 53.3715 319.438 52.2645C319.956 55.5678 320.217 57.2225 320.741 60.5259C311.266 61.9841 301.861 63.9244 292.553 66.1922C289.834 55.2167 287.114 44.2412 284.392 33.2657Z" fill="#231815"/>
<path d="M353.995 23.0225C364.56 22.5821 375.065 22.4928 385.636 22.7547L385.309 32.0993C378.321 31.8612 371.332 31.8255 364.34 31.9922L364.471 37.6644C370.512 37.4978 376.583 37.5097 382.624 37.6644C382.517 41.4082 382.47 43.2772 382.363 47.015C376.482 46.8424 370.572 46.8305 364.691 47.015C364.78 50.8362 364.822 52.7409 364.911 56.5382C361.239 56.6275 359.4 56.6989 355.727 56.8834L353.995 23.0225Z" fill="#231815"/>
<path d="M389.898 22.9209C398.32 23.3852 406.688 24.0518 415.075 24.9327C421.592 25.2779 427.395 29.8966 426.163 36.8724C425.366 41.3662 422.789 44.1874 418.67 45.0326C422.366 45.8004 424.336 48.6395 423.711 52.7702C423.265 55.7462 423.045 57.1985 422.592 60.1507C418.944 59.6031 417.116 59.3591 413.456 58.9127C413.736 56.6628 413.872 55.5379 414.152 53.288C414.521 50.312 413.908 49.3002 411.343 49.0145C406.099 48.4193 403.474 48.1871 398.213 47.8241L397.498 57.3889C393.826 57.1211 391.987 57.014 388.309 56.8473L389.898 22.9209ZM411.015 40.021C413.611 40.3007 415.444 39.9555 415.777 37.2355C416.11 34.5154 414.372 33.7774 411.73 33.4917C406.801 32.9619 404.331 32.7417 399.391 32.3786L398.903 38.9258C403.724 39.283 406.147 39.5032 411.015 40.021Z" fill="#231815"/>
<path d="M428.681 43.9077C430.764 32.468 442.549 28.1468 452.977 30.4503C463.405 32.7537 472.654 41.4734 469.345 52.9072C466.369 63.2339 454.959 67.6027 445.186 65.2695C435.77 63.0256 426.77 54.413 428.681 43.9077ZM447.228 56.1391C453.495 57.5259 458.292 55.2701 459.572 50.2823C460.852 45.2946 457.524 40.9913 450.942 39.5687C444.359 38.1462 439.585 40.6341 438.645 45.6398C437.704 50.6454 441.043 54.7701 447.228 56.1391V56.1391Z" fill="#231815"/>
<path d="M478.166 37.8074C483.975 39.5335 486.868 40.462 492.617 42.4381C495.093 51.4196 497.313 60.4786 499.165 69.6209C502.01 62.407 504.861 55.1972 507.718 47.9913C511.551 49.4971 513.455 50.2828 517.241 51.9077C512.777 62.3078 508.319 72.7179 503.867 83.1379C498.766 80.9535 496.189 79.9238 491.016 77.9656C489.118 68.9007 486.987 59.9429 484.606 50.9911C482.166 58.3676 479.727 65.7441 477.291 73.1206C473.755 71.9302 471.982 71.4005 468.417 70.341C471.662 59.4886 474.912 48.644 478.166 37.8074Z" fill="#231815"/>
<path d="M521.217 53.6396C532.722 58.8477 543.912 64.5021 554.935 70.6802C553.072 73.93 552.143 75.5549 550.286 78.8047C545.632 76.1382 543.287 74.8526 538.555 72.3766L527.157 94.1549C523.806 92.405 522.122 91.5539 518.735 89.8992L529.508 67.8054C524.711 65.4663 522.294 64.3473 517.431 62.1986C518.943 58.7762 519.699 57.0621 521.217 53.6396Z" fill="#231815"/>
<path d="M558.709 72.8701C568.142 78.5543 577.303 84.536 586.308 90.8749C584.362 93.6009 583.385 94.958 581.439 97.6781C575.487 93.4085 569.418 89.3234 563.232 85.4229L560.696 89.4702C566.541 93.226 572.261 97.071 577.957 101.053L573.541 107.255C567.976 103.356 562.375 99.5946 556.661 95.9163L554.102 99.9993C559.994 103.713 565.77 107.604 571.428 111.671C569.482 114.391 568.511 115.754 566.559 118.474C558.482 112.629 550.09 107.213 541.513 102.13L558.709 72.8701Z" fill="#231815"/>
<path d="M590.296 93.7855C595.367 97.5412 597.873 99.4816 602.795 103.487C602.271 112.957 601.468 122.415 600.254 131.819C605.384 126.018 610.517 120.212 615.652 114.403C618.895 117.284 620.496 118.76 623.675 121.754L600.462 146.496C596.194 142.467 594.028 140.509 589.623 136.705C590.855 127.391 591.671 118.022 592.213 108.648L577.856 126.998C574.797 124.617 573.255 123.426 570.148 121.111L590.296 93.7855Z" fill="#231815"/>
<path d="M628.299 126.17C634.057 131.793 639.626 137.598 645.006 143.586C651.714 150.383 649.917 161.501 643.108 167.317C636.424 173.025 625.93 172.632 619.823 166.311C614.935 160.878 609.88 155.609 604.658 150.502L628.299 126.17ZM623.942 156.942C628.186 161.555 632.096 162.222 635.936 158.859C639.775 155.496 639.542 151.431 635.108 146.616C632.823 144.134 631.668 142.907 629.341 140.497L618.419 151.085C620.645 153.371 621.752 154.561 623.942 156.942Z" fill="#231815"/>
<path d="M668.404 200.856C678.986 195.327 689.688 203.196 694.325 212.618C698.259 220.611 699.045 233.491 689.724 238.312C688.051 234.146 687.182 232.081 685.367 227.944C687.837 226.277 688.343 221.754 685.903 216.576C683.123 210.689 678.165 208.457 673.63 210.743C669.094 213.028 667.862 218.201 670.511 223.807C672.838 228.736 676.403 231.265 679.349 230.563C681.135 234.622 681.98 236.658 683.617 240.741C674.219 243.461 665.642 235.664 662.041 227.783C658.023 218.927 658.696 205.927 668.404 200.856Z" fill="#231815"/>
<path d="M704.14 237.527C707.306 245.949 710.229 254.401 712.937 262.983C714.937 269.471 713.949 276.625 706.55 278.542C702.039 279.732 698.474 278.232 696.004 274.584C696.819 278.476 695.021 281.518 690.998 282.571L683.772 284.464C682.784 280.72 682.254 278.851 681.147 275.12L686.593 273.524C689.492 272.673 690.165 271.679 689.343 269.072C687.7 263.715 686.82 261.067 684.945 255.758L675.88 258.93C674.564 255.216 673.88 253.365 672.451 249.675L704.14 237.527ZM697.414 265.102C698.236 267.739 699.313 269.376 701.944 268.602C704.574 267.828 704.533 265.846 703.693 263.162C702.122 258.144 701.313 255.645 699.527 250.663L693.331 252.829C695.063 257.722 695.879 260.18 697.414 265.102V265.102Z" fill="#231815"/>
<path d="M717.942 281.078C720.496 291.791 722.656 302.505 724.442 313.403L716.169 314.671C715.062 307.469 713.73 300.305 712.175 293.178L707.509 294.19C708.913 300.963 710.175 307.713 711.318 314.54L703.801 315.73C702.682 309.052 701.42 302.451 700.069 295.821L695.361 296.839C696.765 303.648 698.027 310.427 699.158 317.296L690.891 318.557C689.403 308.695 687.373 298.916 684.992 289.226L717.942 281.078Z" fill="#231815"/>
<path d="M726.971 333.604C727.483 338.895 727.692 341.538 728.007 346.824C717.067 352.776 705.985 358.317 694.676 363.519C694.616 359.513 694.557 357.513 694.372 353.502C696.842 352.377 698.068 351.805 700.527 350.645C700.175 344.02 699.931 340.699 699.229 334.062C696.622 333.277 695.313 332.872 692.682 332.146C692.235 328.14 691.98 326.14 691.414 322.135C703.413 325.575 715.228 329.396 726.971 333.604ZM708.306 346.841C713.026 344.461 715.377 343.27 720.055 340.758C715.044 339.015 712.532 338.181 707.502 336.592C707.883 340.687 708.02 342.74 708.306 346.841Z" fill="#231815"/>
<path d="M728.543 359.667C728.728 372.167 728.388 384.553 727.519 397.016L718.187 396.302C718.603 391.064 718.782 388.439 718.984 383.208L694.42 382.226C694.575 378.5 694.629 376.637 694.676 372.899L719.258 373.19C719.33 367.899 719.318 365.245 719.187 359.935L728.543 359.667Z" fill="#231815"/>
<path d="M727.162 401.272C726.787 405.35 726.567 407.385 726.091 411.444L692.385 407.522C692.825 403.838 693.021 401.987 693.355 398.291L727.162 401.272Z" fill="#231815"/>
<path d="M725.668 414.849C725.115 419.164 724.805 421.313 724.127 425.598C714.871 428.021 705.556 430.223 696.152 432.098C704.17 437.288 712.062 442.674 719.758 448.323C718.812 452.561 718.3 454.674 717.228 458.882C707.523 451.319 697.603 444.071 687.468 437.139C688.557 431.985 689.057 429.402 689.944 424.199C701.985 421.456 713.854 418.343 725.668 414.849Z" fill="#231815"/>
<path d="M716.389 462.179C713.58 472.392 710.437 482.415 706.961 492.433L699.093 489.617C701.473 483.011 703.656 476.34 705.64 469.607L701.057 468.267C699.111 474.642 697.063 480.927 694.891 487.225L687.748 484.677C689.873 478.517 691.879 472.368 693.783 466.131L689.159 464.78C687.201 471.184 685.135 477.499 682.933 483.826L675.064 481.011C678.326 471.999 681.135 462.815 683.617 453.56L716.389 462.179Z" fill="#231815"/>
<path d="M691.98 528.163C687.301 537.645 682.337 546.906 677.04 556.054L668.999 551.293C672.57 545.277 675.943 539.162 679.117 532.949L674.082 530.342C671.326 535.698 668.404 541.055 665.35 546.263L657.273 541.543C660.249 536.472 663.089 531.282 665.773 526.068L657.297 521.687C658.982 518.42 659.803 516.777 661.404 513.462L691.98 528.163Z" fill="#231815"/>
<path d="M674.844 559.715C670.404 566.857 665.803 573.904 661.006 580.844C657.577 586.397 650.738 589.272 645.209 584.838C641.638 581.987 640.406 578.368 641.638 574.351C639.185 577.225 635.751 577.594 632.448 575.071L626.496 570.553C628.722 567.607 629.817 566.125 631.96 563.125L636.596 566.44C639.055 568.226 640.209 568.143 641.691 566.03C644.721 561.708 646.197 559.518 649.054 555.09L641.007 549.876C643.001 546.781 643.983 545.221 645.893 542.073L674.844 559.715ZM649.727 570.012C648.239 572.148 647.661 573.928 649.887 575.523C652.113 577.118 653.595 575.952 655.113 573.767C657.94 569.696 659.321 567.637 662.005 563.476L656.5 559.905C653.857 564 652.506 566.018 649.727 570.012Z" fill="#231815"/>
<path d="M637.828 583.701C646.869 591.022 644.971 603.432 637.977 611.473C630.984 619.514 618.889 623.466 610.419 615.044C602.795 607.473 604.432 595.373 611.163 587.921C617.651 580.725 629.531 576.957 637.828 583.701ZM618.187 594.111C613.961 598.944 613.639 604.229 617.407 607.753C621.175 611.276 626.537 610.407 630.972 605.336C635.406 600.265 635.442 594.861 631.507 591.611C627.573 588.361 622.365 589.308 618.199 594.081L618.187 594.111Z" fill="#231815"/>
<path d="M619.443 630.019C615.14 634.287 612.937 636.382 608.444 640.477C599.379 638.346 590.361 635.942 581.469 633.156L596.349 651.012C593.189 653.649 591.588 654.952 588.338 657.506L567.375 630.811C571.738 627.377 573.874 625.615 578.088 622.014C586.951 624.698 595.831 627.127 604.831 629.329L588.927 612.294C591.641 609.753 592.98 608.461 595.617 605.842L619.443 630.019Z" fill="#231815"/>
<path d="M584.897 660.196C574.779 667.797 564.476 674.897 553.768 681.623C551.81 678.433 550.834 676.862 548.87 673.648C553.447 670.844 555.697 669.404 560.143 666.44L546.495 645.989C549.643 643.893 551.197 642.822 554.274 640.632L568.487 660.69C572.844 657.601 574.987 656.018 579.201 652.78L584.897 660.196Z" fill="#231815"/>
<path d="M550.036 683.867C540.513 689.414 530.883 694.581 520.996 699.444C519.544 696.432 518.818 694.92 517.36 691.908C523.959 688.734 530.456 685.361 536.853 681.79L534.519 677.624C528.419 680.951 522.306 684.123 516.068 687.206L512.747 680.361C518.842 677.344 524.824 674.237 530.793 670.987C529.853 669.303 529.383 668.457 528.413 666.779C522.33 670.172 516.146 673.374 509.86 676.386L506.229 668.85C515.235 664.571 524.008 659.797 532.585 654.708L550.036 683.867Z" fill="#231815"/>
<path d="M516.533 701.551C510.801 704.199 507.896 705.473 502.01 707.889C493.957 702.884 486.041 697.64 478.368 692.063C480.999 699.356 483.632 706.646 486.267 713.931C482.178 715.389 480.118 716.097 475.964 717.442L465.393 685.206C470.976 683.421 473.726 682.433 479.184 680.397C486.767 685.938 494.594 691.152 502.563 696.128C499.492 688.986 496.419 681.843 493.344 674.701C496.915 673.177 498.7 672.386 502.206 670.761L516.533 701.551Z" fill="#231815"/>
<path d="M469.887 719.353C462.193 721.702 454.428 723.803 446.591 725.656C437.407 728.287 428.515 721.371 426.681 712.609C424.896 704.009 430.253 694.992 438.734 692.664C445.841 690.986 452.888 689.077 459.876 686.938C463.209 697.747 466.546 708.552 469.887 719.353ZM444.984 700.771C438.901 702.283 436.437 705.402 437.544 710.377C438.651 715.353 442.305 717.109 448.686 715.526C451.959 714.711 453.584 714.282 456.822 713.401C455.203 707.532 454.394 704.604 452.769 698.735C449.704 699.581 448.115 699.991 444.984 700.771V700.771Z" fill="#231815"/>
<path d="M368.025 713.556C367.173 725.46 354.859 730.442 344.407 729.442C335.539 728.59 324.17 722.496 324.956 712.032C329.372 712.794 331.592 713.145 336.068 713.77C336.187 716.746 339.77 719.555 345.46 720.192C351.93 720.918 356.448 717.847 356.871 712.812C357.293 707.776 353.549 703.991 347.389 703.289C341.973 702.693 337.943 704.39 336.997 707.259C332.61 706.663 330.45 706.3 326.093 705.55C328.712 696.122 339.854 692.914 348.448 693.992C358.109 695.212 368.804 702.634 368.025 713.556Z" fill="#231815"/>
<path d="M318.057 724.716C309.225 722.99 300.493 721.038 291.773 718.835C285.226 717.133 279.625 712.538 281.881 705.235C283.256 700.777 286.387 698.521 290.809 698.337C287.071 696.986 285.452 693.861 286.643 689.879C287.512 687.022 287.952 685.593 288.821 682.736C292.529 683.861 294.398 684.397 298.154 685.409L296.654 690.885C295.856 693.801 296.356 694.873 298.999 695.563C304.403 696.968 307.135 697.616 312.641 698.807L314.694 689.438C318.539 690.266 320.474 690.629 324.372 691.379C322.257 702.493 320.152 713.606 318.057 724.716ZM298.118 704.527C295.44 703.842 293.481 703.896 292.761 706.539C292.041 709.181 293.749 710.193 296.475 710.889C301.564 712.187 304.13 712.794 309.302 713.913C309.867 711.342 310.147 710.062 310.712 707.497C305.629 706.384 303.112 705.789 298.118 704.527Z" fill="#231815"/>
<path d="M273.739 713.597C263.275 710.139 253.008 706.348 242.788 702.158C244.092 699.075 244.747 697.533 246.056 694.456C252.762 697.289 259.557 699.916 266.442 702.336L268.031 697.837C261.525 695.456 255.121 693.003 248.711 690.391C249.901 687.587 250.496 686.182 251.687 683.379C257.96 685.932 264.228 688.349 270.596 690.658L272.203 686.117C265.656 683.736 259.234 681.254 252.794 678.612C254.103 675.528 254.752 673.987 256.061 670.91C265.233 674.82 274.632 678.231 284.125 681.284L273.739 713.597Z" fill="#231815"/>
<path d="M224.295 693.706C219.534 691.361 217.153 690.135 212.499 687.641C213.189 675.213 214.284 662.869 215.796 650.506C219.236 652.56 220.974 653.56 224.48 655.506C224.141 658.196 223.98 659.547 223.682 662.244C229.503 665.428 232.468 666.946 238.479 669.85C240.515 668.065 241.526 667.13 243.538 665.297C247.175 667.023 249.014 667.856 252.722 669.463C243.497 677.868 234.021 685.949 224.295 693.706ZM222.831 670.868C222.361 676.124 222.165 678.761 221.837 684.058C225.956 680.713 227.986 679.01 231.985 675.57C228.289 673.743 226.462 672.803 222.831 670.868V670.868Z" fill="#231815"/>
<path d="M201.285 681.356C190.572 674.951 180.191 668.16 170.037 660.875L175.549 653.31C179.786 656.411 181.935 657.929 186.298 660.875L200.029 640.489C203.118 642.578 204.678 643.602 207.832 645.602C203.468 652.526 199.083 659.448 194.678 666.369C199.148 669.208 201.41 670.589 205.987 673.273L201.285 681.356Z" fill="#231815"/>
<path d="M166.609 658.339C163.335 655.881 161.71 654.631 158.514 652.089L179.56 625.466C182.465 627.775 183.935 628.912 186.905 631.138L166.609 658.339Z" fill="#231815"/>
<path d="M155.835 649.941C152.455 647.203 150.788 645.81 147.503 642.983C150.3 633.835 153.318 624.746 156.645 615.782C148.021 619.871 139.295 623.764 130.456 627.347C127.349 624.317 125.814 622.776 122.802 619.651C134.333 615.358 145.707 610.723 156.925 605.747C160.74 609.378 162.68 611.157 166.638 614.675C162.651 626.311 159.067 638.049 155.835 649.941Z" fill="#231815"/>
<path d="M120.421 617.187C113.213 609.449 106.303 601.497 99.6249 593.284L106.172 588.064C110.537 593.544 115.068 598.9 119.766 604.134L123.338 600.944C118.939 595.938 114.66 590.897 110.446 585.737L116.398 580.975C120.522 586.022 124.73 590.956 129.016 595.855C130.45 594.569 131.165 593.921 132.587 592.629C128.165 587.6 123.873 582.511 119.647 577.338L126.195 572.112C132.147 579.624 138.491 586.838 145.068 593.807L120.421 617.187Z" fill="#231815"/>
<path d="M77.1084 561.774C71.4956 552.846 66.2162 543.727 61.2106 534.395L69.4957 530.056C72.7455 536.246 76.1739 542.337 79.7808 548.328L84.6436 545.412C81.5128 540.24 78.513 534.96 75.6799 529.621L83.9353 525.223C86.6911 530.419 89.6135 535.561 92.655 540.591L100.839 535.68C102.732 538.829 103.702 540.394 105.684 543.489L77.1084 561.774Z" fill="#231815"/>
<path d="M59.2522 530.627C55.4846 523.08 51.9253 515.479 48.5386 507.753C45.6161 501.92 46.753 494.587 53.4311 492.213C57.7285 490.677 61.4604 491.522 64.228 494.683C63.0674 491.111 64.5614 487.975 68.4421 486.481L75.4119 483.802C76.7451 487.243 77.4355 488.951 78.8581 492.349L73.6263 494.534C70.8348 495.724 70.2812 496.718 71.299 499.087C73.3584 503.944 74.4476 506.325 76.7153 511.086L85.3815 506.974C86.9647 510.295 87.7623 511.949 89.4526 515.229L59.2522 530.627ZM63.6805 503.843C62.6389 501.462 61.4306 500.028 58.9189 501.087C56.4071 502.146 56.6095 504.015 57.6689 506.444C59.645 510.985 60.6747 513.241 62.8055 517.717L68.7575 514.902C66.5969 510.491 65.5911 508.301 63.6507 503.837L63.6805 503.843Z" fill="#231815"/>
<path d="M58.2701 486.541C47.3006 490.392 37.7119 482.285 34.5574 472.089C31.4028 461.893 34.3728 449.543 45.9673 446.752C56.4191 444.234 65.853 451.983 68.6683 461.632C71.3764 470.923 68.3409 483.005 58.2701 486.541ZM59.7224 464.37C57.8237 458.239 53.4907 455.186 48.5208 456.543C43.5508 457.9 41.4617 462.923 43.4556 469.357C45.4495 475.791 50.0028 478.666 54.8477 477.018C59.6927 475.369 61.5914 470.423 59.7224 464.37Z" fill="#231815"/>
<path d="M28.4803 446.561C27.1054 440.656 26.4805 437.686 25.3496 431.681C31.8968 425.08 38.7059 418.67 45.7471 412.569L22.7188 415.854C22.1236 411.777 21.8677 409.73 21.3975 405.629L55.1275 401.802C55.7584 407.313 56.1334 410.063 56.9904 415.527C50.0564 421.664 43.3008 427.949 36.7536 434.443L59.5974 429.854C60.3355 433.502 60.7342 435.318 61.5735 438.936L28.4803 446.561Z" fill="#231815"/>
<path d="M20.9334 401.314C19.743 388.737 19.1478 376.22 19.0526 363.584H28.4151C28.4151 368.941 28.4449 371.625 28.6353 376.958L53.1992 376.083C53.3361 379.863 53.4314 381.75 53.6695 385.511L29.1353 387.077C29.4805 392.433 29.7305 395.064 30.2424 400.35L20.9334 401.314Z" fill="#231815"/>
<path d="M19.094 359.221C19.3618 348.204 20.0225 337.288 21.082 326.325L29.4148 327.188C28.6212 334.469 28.0736 341.764 27.772 349.073L32.5336 349.276C32.9145 342.336 33.4205 335.467 34.0633 328.551L41.6342 329.319C41.0033 336.086 40.5093 342.812 40.1403 349.597L44.9673 349.788C45.2769 342.824 45.7986 335.88 46.5327 328.956L54.8655 329.819C53.7823 339.729 53.2347 349.71 53.0799 359.674L19.094 359.221Z" fill="#231815"/>
<path d="M21.6354 321.42C22.3913 315.153 22.8258 312.016 23.8674 305.731C32.3549 301.505 40.9734 297.523 49.7467 293.922L26.9922 289.16C27.8909 284.911 28.373 282.792 29.4087 278.548L62.3947 286.47C61.0079 292.178 60.377 295.029 59.252 300.755C50.5502 304.296 41.9912 308.225 33.587 312.391L56.6391 315.784C56.0439 319.629 55.7999 321.551 55.3416 325.396L21.6354 321.42Z" fill="#231815"/>
<path d="M30.9684 272.37C33.0079 264.585 35.2975 256.873 37.837 249.235C40.4201 240.039 50.973 236.099 59.3951 239.116C67.6625 242.092 72.4895 251.413 70.0433 259.847C67.7379 266.779 65.6606 273.779 63.8115 280.846L30.9684 272.37ZM59.8475 260.93C61.7521 254.978 60.3951 251.234 55.574 249.556C50.7528 247.878 47.3364 250.104 45.3484 256.341C44.3247 259.555 43.8307 261.162 42.8843 264.377L57.4905 268.632C58.4071 265.549 58.8773 264.007 59.8475 260.93Z" fill="#231815"/>
</svg>
