<svg width="520" height="390" viewBox="0 0 520 390" fill="none" xmlns="http://www.w3.org/2000/svg">
<path d="M374.457 119.688H185.878C175.85 119.688 167.717 127.808 167.701 137.836L167.506 262.869C167.49 272.919 175.633 281.074 185.682 281.074H417.806C420.227 281.074 422.061 278.889 421.642 276.505L397.473 139.011C395.509 127.837 385.803 119.688 374.457 119.688Z" fill="#FA7070" stroke="#FA7070" stroke-width="5.19321"/>
<path d="M338.16 67.7557H182.364C178.062 67.7557 174.574 71.2433 174.574 75.5455V101.512C174.574 105.814 178.062 109.301 182.364 109.301H338.16C342.463 109.301 345.95 105.814 345.95 101.512V75.5455C345.95 71.2433 342.463 67.7557 338.16 67.7557Z" fill="#FA7070" stroke="#FA7070" stroke-width="5.19321"/>
<path d="M299.908 119.688H138.918C128.88 119.688 120.742 127.826 120.742 137.864V205.376C120.742 215.414 128.88 223.552 138.918 223.552H299.908C309.947 223.552 318.084 215.414 318.084 205.376V137.864C318.084 127.826 309.947 119.688 299.908 119.688Z" fill="white" stroke="#FA7070" stroke-width="5.19321"/>
<path d="M289.522 67.7557H133.725C129.423 67.7557 125.936 71.2433 125.936 75.5455V101.512C125.936 105.814 129.423 109.301 133.725 109.301H289.522C293.824 109.301 297.312 105.814 297.312 101.512V75.5455C297.312 71.2433 293.824 67.7557 289.522 67.7557Z" fill="white" stroke="#FA7070" stroke-width="5.19321"/>
<path d="M273.942 88.5285C273.942 87.0944 275.105 85.9319 276.539 85.9319H286.925C288.359 85.9319 289.522 87.0944 289.522 88.5285V98.9149C289.522 100.349 288.359 101.512 286.925 101.512H276.539C275.105 101.512 273.942 100.349 273.942 98.9149V88.5285Z" fill="#FA7070"/>
<path d="M133.726 93.7218C133.726 92.2878 134.888 91.1252 136.322 91.1252H141.515C142.949 91.1252 144.112 92.2878 144.112 93.7218V98.9151C144.112 100.349 142.949 101.512 141.515 101.512H136.322C134.888 101.512 133.726 100.349 133.726 98.9151V93.7218Z" fill="#FA7070"/>
<path d="M148.96 109.301H144.759L146.637 113.059L148.516 116.817C149.396 118.576 151.194 119.688 153.161 119.688H154.153C157.021 119.688 159.346 117.363 159.346 114.495V111.898V109.301H156.75H148.96Z" fill="#FA7070" stroke="#FA7070" stroke-width="5.19321"/>
<path d="M144.112 109.301H139.911L141.79 113.059L143.669 116.817C144.548 118.576 146.347 119.688 148.314 119.688H149.306C152.174 119.688 154.499 117.363 154.499 114.495V111.898V109.301H151.902H144.112Z" fill="white" stroke="#FA7070" stroke-width="5.19321"/>
<path d="M279.136 109.301H274.934L276.813 113.059L278.692 116.817C279.572 118.576 281.37 119.688 283.337 119.688H284.329C287.197 119.688 289.522 117.363 289.522 114.495V111.898V109.301H286.926H279.136Z" fill="#FA7070" stroke="#FA7070" stroke-width="5.19321"/>
<path d="M274.288 109.301H270.087L271.966 113.059L273.845 116.817C274.724 118.576 276.522 119.688 278.489 119.688H279.481C282.349 119.688 284.675 117.363 284.675 114.495V111.898V109.301H282.078H274.288Z" fill="white" stroke="#FA7070" stroke-width="5.19321"/>
<path d="M331.067 109.301H335.269L333.39 113.059L331.348 117.144C330.568 118.703 328.974 119.688 327.231 119.688C324.689 119.688 322.628 117.627 322.628 115.085V111.898V109.301H325.225H331.067Z" fill="#FA7070" stroke="#FA7070" stroke-width="5.19321"/>
<path d="M149.306 93.7218C149.306 92.2878 150.468 91.1252 151.902 91.1252H188.255C189.689 91.1252 190.851 92.2878 190.851 93.7218V98.9151C190.851 100.349 189.689 101.512 188.255 101.512H151.902C150.468 101.512 149.306 100.349 149.306 98.9151V93.7218Z" fill="#FA7070"/>
<path d="M227.203 130.074H138.919C134.617 130.074 131.129 133.562 131.129 137.864V205.376C131.129 209.678 134.617 213.166 138.919 213.166H227.203C231.506 213.166 234.993 209.678 234.993 205.376V137.864C234.993 133.562 231.506 130.074 227.203 130.074Z" fill="white" fill-opacity="0.7" stroke="#FA7070" stroke-width="5.19321"/>
<line x1="268.993" y1="205.376" x2="300.802" y2="205.376" stroke="#FA7070" stroke-width="5.19321" stroke-linecap="round"/>
<line x1="250.573" y1="182.006" x2="302.505" y2="182.006" stroke="#FA7070" stroke-width="5.19321" stroke-linecap="round"/>
<line x1="250.573" y1="171.62" x2="302.505" y2="171.62" stroke="#FA7070" stroke-width="5.19321" stroke-linecap="round"/>
<line x1="250.573" y1="161.233" x2="302.505" y2="161.233" stroke="#FA7070" stroke-width="5.19321" stroke-linecap="round"/>
<line x1="250.573" y1="150.847" x2="302.505" y2="150.847" stroke="#FA7070" stroke-width="5.19321" stroke-linecap="round"/>
<line x1="250.573" y1="140.461" x2="302.505" y2="140.461" stroke="#FA7070" stroke-width="5.19321" stroke-linecap="round"/>
<line x1="330.98" y1="130.371" x2="330.98" y2="145.654" stroke="white" stroke-width="5.19321" stroke-linecap="round"/>
<line x1="341.366" y1="130.371" x2="341.366" y2="145.654" stroke="white" stroke-width="5.19321" stroke-linecap="round"/>
<line x1="351.753" y1="130.371" x2="351.753" y2="145.654" stroke="white" stroke-width="5.19321" stroke-linecap="round"/>
<line x1="362.14" y1="130.371" x2="362.14" y2="145.654" stroke="white" stroke-width="5.19321" stroke-linecap="round"/>
<line x1="383.036" y1="130.371" x2="383.036" y2="145.654" stroke="white" stroke-width="5.19321" stroke-linecap="round"/>
<line x1="372.525" y1="130.371" x2="372.525" y2="145.654" stroke="white" stroke-width="5.19321" stroke-linecap="round"/>
<line x1="317.961" y1="98.915" x2="317.961" y2="104.108" stroke="white" stroke-width="5.19321" stroke-linecap="round"/>
<line x1="338.857" y1="98.915" x2="338.857" y2="104.108" stroke="white" stroke-width="5.19321" stroke-linecap="round"/>
<line x1="328.347" y1="98.915" x2="328.347" y2="104.108" stroke="white" stroke-width="5.19321" stroke-linecap="round"/>
<rect x="287.818" y="200.183" width="15.5796" height="10.3864" rx="3.24576" fill="#FA7070"/>
<path d="M167.12 223.151H324.192L325.874 241.399H172.377L167.12 223.151Z" fill="#FA7070"/>
<path d="M170.078 223.744H167.481V226.341V247.914C167.481 248.131 167.373 248.333 167.192 248.454L138.924 267.3C137.291 268.388 136.322 270.228 136.322 272.172C136.322 275.395 138.945 278.06 142.211 278.035L153.904 277.942C157.091 277.917 159.661 275.327 159.661 272.14C159.661 271.936 159.763 271.745 159.933 271.632L188.219 252.775C189.844 251.691 190.82 249.867 190.82 247.914V226.341V223.744H188.224H170.078Z" fill="white" stroke="#FA7070" stroke-width="5.19321"/>
<path d="M233.566 244.607C233.638 241.791 235.941 239.545 238.758 239.545H292.393C294.056 239.545 295.618 240.341 296.595 241.686L304.109 252.029C304.754 252.916 305.101 253.985 305.101 255.081V275.898C305.101 278.766 302.776 281.091 299.908 281.091H237.968C235.048 281.091 232.703 278.685 232.777 275.766L233.566 244.607Z" fill="#FA7070" stroke="#FA7070" stroke-width="5.19321"/>
<path d="M102.137 269.301L100.815 276.492C100.375 278.885 102.213 281.091 104.646 281.091H236.954C238.828 281.091 240.437 279.756 240.782 277.914L242.35 269.554C242.625 268.085 243.52 266.806 244.807 266.044L273.219 249.207C277.763 246.514 275.854 239.546 270.572 239.546H158.828C152.593 239.546 146.47 241.209 141.092 244.364L104.617 265.76C103.315 266.524 102.409 267.816 102.137 269.301Z" fill="white" stroke="#FA7070" stroke-width="5.19321"/>
<line x1="105.384" y1="268.108" x2="220.307" y2="268.108" stroke="#FA7070" stroke-width="5.19321" stroke-linecap="round"/>
<path d="M294.453 251.452L266.209 269.943C264.573 271.014 263.587 272.838 263.587 274.793C263.587 277.995 266.183 280.59 269.384 280.59L281.129 280.59C284.33 280.59 286.926 277.995 286.926 274.793C286.926 274.589 287.029 274.399 287.199 274.288L315.443 255.797C317.091 254.718 318.085 252.88 318.085 250.909V230.505C318.085 228.354 316.341 226.61 314.19 226.61H298.641C296.49 226.61 294.746 228.354 294.746 230.505V250.909C294.746 251.128 294.636 251.333 294.453 251.452Z" fill="white" stroke="#FA7070" stroke-width="5.19321"/>
<path d="M225.5 130.074H154.499C150.197 130.074 146.709 133.562 146.709 137.864V205.376C146.709 209.678 150.197 213.166 154.499 213.166H225.5C229.802 213.166 233.29 209.678 233.29 205.376V137.864C233.29 133.562 229.802 130.074 225.5 130.074Z" fill="#FA7070" stroke="#FA7070" stroke-width="5.19321"/>
<path d="M191.493 191.744H199.708C198.979 193.279 197.412 194.34 195.601 194.34C193.789 194.34 192.223 193.279 191.493 191.744Z" stroke="white" stroke-width="3.89491" stroke-linecap="round"/>
<rect x="212.479" y="179.41" width="7.78982" height="15.5796" rx="3.89491" fill="white"/>
<path d="M216.577 181.331H219.563C220.624 181.331 221.485 180.471 221.485 179.41V179.41" stroke="white" stroke-width="3.89491" stroke-linecap="round"/>
<rect width="7.78982" height="15.5796" rx="3.89491" transform="matrix(-1 0 0 1 176.126 179.41)" fill="white"/>
<path d="M172.027 181.331H169.042C167.98 181.331 167.12 180.471 167.12 179.41V179.41" stroke="white" stroke-width="3.89491" stroke-linecap="round"/>
<path d="M272.657 306.156H351.841C363.313 306.156 372.613 296.855 372.613 285.383V261.672" stroke="#FA7070" stroke-width="5.19321" stroke-linecap="round" stroke-linejoin="round"/>
<path d="M308.124 299.755L311.521 313.829C312.175 316.535 310.125 319.139 307.341 319.139H243.25V309.311L297.879 293.173H299.763C303.736 293.173 307.191 295.893 308.124 299.755Z" fill="#FF9696" stroke="#FA7070" stroke-width="5.19321" stroke-linecap="round" stroke-linejoin="round"/>
<path d="M237.292 311.471V315.913C237.292 317.695 238.736 319.139 240.517 319.139H268.688C270.469 319.139 271.913 317.695 271.913 315.913V311.471C271.913 308.213 273.754 305.235 276.668 303.778L297.879 293.173H265.288C263.953 293.173 262.636 293.483 261.442 294.081L242.046 303.778C239.133 305.235 237.292 308.213 237.292 311.471Z" fill="white" stroke="#FA7070" stroke-width="5.19321" stroke-linecap="round" stroke-linejoin="round"/>
<path d="M240.971 308.205H260.867" stroke="#FA7070" stroke-width="5.19321" stroke-linecap="round"/>
<path d="M218.115 307.798L227.03 307.798" stroke="#FA7070" stroke-width="5.19321" stroke-linecap="round"/>
<path d="M224.146 292.278L230.449 298.581" stroke="#FA7070" stroke-width="5.19321" stroke-linecap="round"/>
</svg>
