<svg width="25" height="25" viewBox="0 0 25 25" fill="none" xmlns="http://www.w3.org/2000/svg">
<path d="M17.2951 6.52637L12.7241 11.0973L8.15315 6.52637L6.97461 7.70485L11.5456 12.2758L6.97461 16.8469L8.15315 18.0254L12.7241 13.4544L17.2951 18.0254L18.4736 16.8469L13.9026 12.2758L18.4736 7.70485L17.2951 6.52637Z" fill="white"/>
<path d="M21.3388 3.66117C18.9946 1.31696 15.8152 -2.47002e-08 12.5 0C9.18479 2.47002e-08 6.00537 1.31696 3.66117 3.66117C1.31696 6.00537 2.47002e-08 9.18479 0 12.5C-2.47002e-08 15.8152 1.31696 18.9946 3.66117 21.3388C6.00537 23.683 9.18479 25 12.5 25C15.8152 25 18.9946 23.683 21.3388 21.3388C23.683 18.9946 25 15.8152 25 12.5C25 9.18479 23.683 6.00537 21.3388 3.66117V3.66117ZM12.5 23.3333C6.52652 23.3333 1.66669 18.4735 1.66669 12.5C1.66669 6.52652 6.52652 1.66669 12.5 1.66669C18.4735 1.66669 23.3333 6.52652 23.3333 12.5C23.3333 18.4735 18.4735 23.3333 12.5 23.3333Z" fill="white"/>
</svg>
