<svg width="225" height="45" viewBox="0 0 225 45" fill="none" xmlns="http://www.w3.org/2000/svg">
<g clip-path="url(#clip0_927_1703)">
<circle cx="22.5" cy="22.5" r="22.5" fill="#F5F5F5"/>
<circle cx="67.5" cy="22.5" r="22.5" fill="#F5F5F5"/>
<circle cx="112.5" cy="22.5" r="22.5" fill="#F5F5F5"/>
<circle cx="157.5" cy="22.5" r="22.5" fill="#F5F5F5"/>
<circle cx="202.5" cy="22.5" r="22.5" fill="#F5F5F5"/>
<g clip-path="url(#clip1_927_1703)">
<path d="M33 23C33 17.4771 28.5229 13 23 13C17.4771 13 13 17.4771 13 23C13 27.9912 16.6568 32.1283 21.4375 32.8785V25.8906H18.8984V23H21.4375V20.7969C21.4375 18.2906 22.9305 16.9063 25.2146 16.9063C26.3084 16.9063 27.4531 17.1016 27.4531 17.1016V19.5625H26.1922C24.95 19.5625 24.5625 20.3334 24.5625 21.125V23H27.3359L26.8926 25.8906H24.5625V32.8785C29.3432 32.1283 33 27.9912 33 23Z" fill="black"/>
</g>
<g clip-path="url(#clip2_927_1703)">
<path d="M68 14.8008C70.6719 14.8008 70.9883 14.8125 72.0391 14.8594C73.0156 14.9023 73.543 15.0664 73.8945 15.2031C74.3594 15.3828 74.6953 15.6016 75.043 15.9492C75.3945 16.3008 75.6094 16.6328 75.7891 17.0977C75.9258 17.4492 76.0898 17.9805 76.1328 18.9531C76.1797 20.0078 76.1914 20.3242 76.1914 22.9922C76.1914 25.6641 76.1797 25.9805 76.1328 27.0313C76.0898 28.0078 75.9258 28.5352 75.7891 28.8867C75.6094 29.3516 75.3906 29.6875 75.043 30.0352C74.6914 30.3867 74.3594 30.6016 73.8945 30.7813C73.543 30.918 73.0117 31.082 72.0391 31.125C70.9844 31.1719 70.668 31.1836 68 31.1836C65.3281 31.1836 65.0117 31.1719 63.9609 31.125C62.9844 31.082 62.457 30.918 62.1055 30.7813C61.6406 30.6016 61.3047 30.3828 60.957 30.0352C60.6055 29.6836 60.3906 29.3516 60.2109 28.8867C60.0742 28.5352 59.9102 28.0039 59.8672 27.0313C59.8203 25.9766 59.8086 25.6602 59.8086 22.9922C59.8086 20.3203 59.8203 20.0039 59.8672 18.9531C59.9102 17.9766 60.0742 17.4492 60.2109 17.0977C60.3906 16.6328 60.6094 16.2969 60.957 15.9492C61.3086 15.5977 61.6406 15.3828 62.1055 15.2031C62.457 15.0664 62.9883 14.9023 63.9609 14.8594C65.0117 14.8125 65.3281 14.8008 68 14.8008ZM68 13C65.2852 13 64.9453 13.0117 63.8789 13.0586C62.8164 13.1055 62.0859 13.2773 61.4531 13.5234C60.793 13.7812 60.2344 14.1211 59.6797 14.6797C59.1211 15.2344 58.7813 15.793 58.5234 16.4492C58.2773 17.0859 58.1055 17.8125 58.0586 18.875C58.0117 19.9453 58 20.2852 58 23C58 25.7148 58.0117 26.0547 58.0586 27.1211C58.1055 28.1836 58.2773 28.9141 58.5234 29.5469C58.7813 30.207 59.1211 30.7656 59.6797 31.3203C60.2344 31.875 60.793 32.2188 61.4492 32.4727C62.0859 32.7188 62.8125 32.8906 63.875 32.9375C64.9414 32.9844 65.2813 32.9961 67.9961 32.9961C70.7109 32.9961 71.0508 32.9844 72.1172 32.9375C73.1797 32.8906 73.9102 32.7188 74.543 32.4727C75.1992 32.2188 75.7578 31.875 76.3125 31.3203C76.8672 30.7656 77.2109 30.207 77.4648 29.5508C77.7109 28.9141 77.8828 28.1875 77.9297 27.125C77.9766 26.0586 77.9883 25.7188 77.9883 23.0039C77.9883 20.2891 77.9766 19.9492 77.9297 18.8828C77.8828 17.8203 77.7109 17.0898 77.4648 16.457C77.2188 15.793 76.8789 15.2344 76.3203 14.6797C75.7656 14.125 75.207 13.7813 74.5508 13.5273C73.9141 13.2812 73.1875 13.1094 72.125 13.0625C71.0547 13.0117 70.7148 13 68 13Z" fill="black"/>
<path d="M68 17.8633C65.1641 17.8633 62.8633 20.1641 62.8633 23C62.8633 25.8359 65.1641 28.1367 68 28.1367C70.8359 28.1367 73.1367 25.8359 73.1367 23C73.1367 20.1641 70.8359 17.8633 68 17.8633ZM68 26.332C66.1602 26.332 64.668 24.8398 64.668 23C64.668 21.1602 66.1602 19.668 68 19.668C69.8398 19.668 71.332 21.1602 71.332 23C71.332 24.8398 69.8398 26.332 68 26.332Z" fill="black"/>
<path d="M74.5391 17.6602C74.5391 18.3242 74 18.8594 73.3398 18.8594C72.6758 18.8594 72.1406 18.3203 72.1406 17.6602C72.1406 16.9961 72.6797 16.4609 73.3398 16.4609C74 16.4609 74.5391 17 74.5391 17.6602Z" fill="black"/>
</g>
<g clip-path="url(#clip3_927_1703)">
<path d="M122.602 18.1541C122.489 17.7286 122.266 17.3403 121.955 17.028C121.645 16.7157 121.258 16.4904 120.833 16.3746C119.27 15.9541 113.02 15.9541 113.02 15.9541C113.02 15.9541 106.77 15.9541 105.206 16.3746C104.781 16.4904 104.394 16.7157 104.084 17.028C103.774 17.3403 103.551 17.7286 103.438 18.1541C103.02 19.7246 103.02 22.9996 103.02 22.9996C103.02 22.9996 103.02 26.2746 103.438 27.845C103.551 28.2705 103.774 28.6588 104.084 28.9711C104.394 29.2834 104.781 29.5088 105.206 29.6246C106.77 30.045 113.02 30.045 113.02 30.045C113.02 30.045 119.27 30.045 120.833 29.6246C121.258 29.5088 121.645 29.2834 121.955 28.9711C122.266 28.6588 122.489 28.2705 122.602 27.845C123.02 26.2746 123.02 22.9996 123.02 22.9996C123.02 22.9996 123.02 19.7246 122.602 18.1541Z" fill="black"/>
<path d="M110.974 25.9741V20.0264L116.202 23.0002L110.974 25.9741Z" fill="#FEFEFE"/>
</g>
<g clip-path="url(#clip4_927_1703)">
<path fill-rule="evenodd" clip-rule="evenodd" d="M158 13.417C155.626 13.4182 153.33 14.259 151.522 15.7891C149.715 17.3191 148.513 19.4387 148.133 21.7687C147.753 24.0986 148.218 26.4872 149.447 28.5071C150.675 30.5271 152.586 32.0468 154.837 32.7945C155.334 32.8867 155.521 32.5788 155.521 32.317C155.521 32.0552 155.511 31.2962 155.508 30.4663C152.726 31.0673 152.138 29.2924 152.138 29.2924C151.685 28.1399 151.029 27.8369 151.029 27.8369C150.121 27.2211 151.097 27.2326 151.097 27.2326C152.102 27.3034 152.63 28.2584 152.63 28.2584C153.521 29.7781 154.97 29.3385 155.54 29.0816C155.629 28.4379 155.889 27.9999 156.175 27.7513C153.953 27.501 151.618 26.6481 151.618 22.8382C151.605 21.8501 151.973 20.8945 152.648 20.1692C152.546 19.919 152.203 18.908 152.746 17.5349C152.746 17.5349 153.586 17.2681 155.497 18.554C157.136 18.1083 158.865 18.1083 160.504 18.554C162.413 17.2681 163.251 17.5349 163.251 17.5349C163.796 18.9047 163.453 19.9157 163.35 20.1692C164.028 20.8947 164.397 21.8519 164.382 22.8415C164.382 26.6597 162.042 27.501 159.817 27.7463C160.174 28.0559 160.494 28.6601 160.494 29.5888C160.494 30.9191 160.482 31.9893 160.482 32.317C160.482 32.5821 160.663 32.8916 161.17 32.7945C163.422 32.0467 165.333 30.5267 166.561 28.5064C167.789 26.4861 168.255 24.0972 167.874 21.767C167.493 19.4368 166.291 17.3173 164.483 15.7875C162.674 14.2577 160.378 13.4174 158.004 13.417H158Z" fill="black"/>
<path d="M151.787 27.6935C151.766 27.7429 151.686 27.7577 151.621 27.7232C151.557 27.6886 151.509 27.6244 151.532 27.5733C151.555 27.5223 151.633 27.5091 151.698 27.5437C151.762 27.5783 151.812 27.6441 151.787 27.6935Z" fill="black"/>
<path d="M152.193 28.1433C152.158 28.1604 152.119 28.1652 152.082 28.1568C152.044 28.1484 152.011 28.1273 151.987 28.0972C151.923 28.028 151.91 27.9325 151.959 27.8897C152.009 27.8469 152.098 27.8667 152.163 27.9358C152.228 28.005 152.242 28.1005 152.193 28.1433Z" fill="black"/>
<path d="M152.587 28.7138C152.526 28.7566 152.421 28.7138 152.363 28.6282C152.347 28.6129 152.335 28.5944 152.326 28.5741C152.317 28.5537 152.313 28.5318 152.313 28.5097C152.313 28.4875 152.317 28.4656 152.326 28.4453C152.335 28.4249 152.347 28.4065 152.363 28.3911C152.425 28.35 152.529 28.3911 152.587 28.4751C152.645 28.5591 152.646 28.671 152.587 28.7138V28.7138Z" fill="black"/>
<path d="M153.122 29.2674C153.067 29.3283 152.956 29.3118 152.865 29.2295C152.774 29.1472 152.752 29.0352 152.807 28.9759C152.862 28.9167 152.973 28.9331 153.067 29.0138C153.161 29.0945 153.18 29.2081 153.122 29.2674V29.2674Z" fill="black"/>
<path d="M153.872 29.5903C153.847 29.6677 153.734 29.7023 153.622 29.6694C153.509 29.6364 153.435 29.5442 153.456 29.4652C153.478 29.3862 153.592 29.3499 153.706 29.3862C153.821 29.4224 153.893 29.5096 153.872 29.5903Z" fill="black"/>
<path d="M154.69 29.6459C154.69 29.7266 154.597 29.7957 154.478 29.7974C154.359 29.799 154.261 29.7332 154.261 29.6525C154.261 29.5718 154.354 29.5027 154.473 29.501C154.592 29.4994 154.69 29.5636 154.69 29.6459Z" fill="black"/>
<path d="M155.452 29.5189C155.466 29.5996 155.384 29.6836 155.264 29.7033C155.145 29.7231 155.041 29.6754 155.026 29.5963C155.011 29.5173 155.097 29.4317 155.213 29.4103C155.329 29.3889 155.437 29.4383 155.452 29.5189Z" fill="black"/>
</g>
<path d="M201.24 21.3896C200.67 21.3896 200.22 21.8896 200.22 22.4996C200.22 23.1096 200.68 23.6096 201.24 23.6096C201.81 23.6096 202.26 23.1096 202.26 22.4996C202.27 21.8896 201.81 21.3896 201.24 21.3896ZM204.89 21.3896C204.32 21.3896 203.87 21.8896 203.87 22.4996C203.87 23.1096 204.33 23.6096 204.89 23.6096C205.46 23.6096 205.91 23.1096 205.91 22.4996C205.91 21.8896 205.46 21.3896 204.89 21.3896Z" fill="black"/>
<path d="M209.75 13H196.35C195.22 13 194.3 13.92 194.3 15.06V28.58C194.3 29.72 195.22 30.64 196.35 30.64H207.69L207.16 28.79L208.44 29.98L209.65 31.1L211.8 33V15.06C211.8 13.92 210.88 13 209.75 13ZM205.89 26.06C205.89 26.06 205.53 25.63 205.23 25.25C206.54 24.88 207.04 24.06 207.04 24.06C206.63 24.33 206.24 24.52 205.89 24.65C205.39 24.86 204.91 25 204.44 25.08C203.48 25.26 202.6 25.21 201.85 25.07C201.28 24.96 200.79 24.8 200.38 24.64C200.15 24.55 199.9 24.44 199.65 24.3C199.62 24.28 199.59 24.27 199.56 24.25C199.54 24.24 199.53 24.23 199.52 24.22C199.34 24.12 199.24 24.05 199.24 24.05C199.24 24.05 199.72 24.85 200.99 25.23C200.69 25.61 200.32 26.06 200.32 26.06C198.11 25.99 197.27 24.54 197.27 24.54C197.27 21.32 198.71 18.71 198.71 18.71C200.15 17.63 201.52 17.66 201.52 17.66L201.62 17.78C199.82 18.3 198.99 19.09 198.99 19.09C198.99 19.09 199.21 18.97 199.58 18.8C200.65 18.33 201.5 18.2 201.85 18.17C201.91 18.16 201.96 18.15 202.02 18.15C202.63 18.07 203.32 18.05 204.04 18.13C204.99 18.24 206.01 18.52 207.05 19.09C207.05 19.09 206.26 18.34 204.56 17.82L204.7 17.66C204.7 17.66 206.07 17.63 207.51 18.71C207.51 18.71 208.95 21.32 208.95 24.54C208.95 24.54 208.1 25.99 205.89 26.06V26.06Z" fill="black"/>
</g>
<defs>
<clipPath id="clip0_927_1703">
<rect width="225" height="45" fill="white"/>
</clipPath>
<clipPath id="clip1_927_1703">
<rect width="20" height="20" fill="white" transform="translate(13 13)"/>
</clipPath>
<clipPath id="clip2_927_1703">
<rect width="20" height="20" fill="white" transform="translate(58 13)"/>
</clipPath>
<clipPath id="clip3_927_1703">
<rect width="20" height="20" fill="white" transform="translate(103 13)"/>
</clipPath>
<clipPath id="clip4_927_1703">
<rect width="20" height="20" fill="white" transform="translate(148 13)"/>
</clipPath>
</defs>
</svg>
