<svg width="500" height="500" viewBox="0 0 500 500" fill="none" xmlns="http://www.w3.org/2000/svg">
<rect width="500" height="500" fill="white"/>
<circle cx="30" cy="30" r="30" fill="#48EC9D" fill-opacity="0.2"/>
<path d="M20.1271 40.0781L24.0825 38.76L24.7856 39.0825C26.3875 39.9031 28.1259 40.3134 30.0009 40.3134C33.1846 40.2159 35.8359 39.1759 37.9546 37.1934C40.0734 35.2109 41.1721 32.8134 41.2509 30.0009C41.1728 27.1884 40.074 24.7909 37.9546 22.8084C35.8353 20.8259 33.184 19.7859 30.0009 19.6884C26.8171 19.7859 24.1659 20.8259 22.0471 22.8084C19.9284 24.7909 18.8296 27.1884 18.7509 30.0009C18.7509 31.0165 18.9268 32.0225 19.2787 33.0187C19.6306 34.015 20.1481 34.9525 20.8312 35.8312L21.4762 36.6806L20.1271 40.0781ZM18.779 42.4809C18.4078 42.5984 18.0903 42.5153 17.8265 42.2315C17.5628 41.9478 17.4993 41.6206 17.6362 41.25L19.3359 36.9721C18.5546 35.9371 17.949 34.8287 17.519 33.6468C17.089 32.465 16.874 31.249 16.874 29.999C16.9521 26.7765 18.2021 23.969 20.624 21.5765C23.0459 19.184 26.1709 17.929 29.999 17.8115C33.8271 17.929 36.9521 19.184 39.374 21.5765C41.7959 23.969 43.0459 26.7765 43.124 29.999C43.0459 33.2215 41.7959 36.029 39.374 38.4215C36.9521 40.814 33.8271 42.069 29.999 42.1865C27.8703 42.1865 25.8487 41.7178 23.9343 40.7803L18.779 42.4809ZM30 31.4943C29.7262 31.4943 29.4771 31.4309 29.2528 31.304C29.0284 31.1771 28.8478 30.9915 28.7109 30.7471C28.574 30.5028 28.5056 30.2537 28.5056 30C28.5056 29.7462 28.574 29.4971 28.7109 29.2528C28.8478 29.0084 29.0284 28.8228 29.2528 28.6959C29.4771 28.569 29.7262 28.5056 30 28.5056C30.43 28.5056 30.7865 28.6472 31.0696 28.9303C31.3528 29.2134 31.4943 29.57 31.4943 30C31.4943 30.43 31.3528 30.7865 31.0696 31.0696C30.7865 31.3528 30.43 31.4943 30 31.4943ZM35.625 31.4943C35.3512 31.4943 35.1021 31.4309 34.8778 31.304C34.6534 31.1771 34.4728 30.9915 34.3359 30.7471C34.199 30.5028 34.1306 30.2537 34.1306 30C34.1306 29.7462 34.199 29.4971 34.3359 29.2528C34.4728 29.0084 34.6534 28.8228 34.8778 28.6959C35.1021 28.569 35.3512 28.5056 35.625 28.5056C36.055 28.5056 36.4115 28.6472 36.6946 28.9303C36.9778 29.2134 37.1193 29.57 37.1193 30C37.1193 30.43 36.9778 30.7865 36.6946 31.0696C36.4115 31.3528 36.055 31.4943 35.625 31.4943ZM24.375 31.4943C24.1012 31.4943 23.8521 31.4309 23.6278 31.304C23.4034 31.1771 23.2228 30.9915 23.0859 30.7471C22.949 30.5028 22.8806 30.2537 22.8806 30C22.8806 29.7462 22.949 29.4971 23.0859 29.2528C23.2228 29.0084 23.4034 28.8228 23.6278 28.6959C23.8521 28.569 24.1012 28.5056 24.375 28.5056C24.805 28.5056 25.1615 28.6472 25.4446 28.9303C25.7278 29.2134 25.8693 29.57 25.8693 30C25.8693 30.43 25.7278 30.7865 25.4446 31.0696C25.1615 31.3528 24.805 31.4943 24.375 31.4943Z" fill="#08080A" fill-opacity="0.96"/>
<circle cx="110" cy="30" r="30" fill="#8DFF33" fill-opacity="0.2"/>
<path d="M110 28C111.602 27.9606 112.93 27.4137 113.984 26.3594C115.039 25.305 115.586 23.9769 115.625 22.375C115.586 20.7731 115.039 19.445 113.984 18.3906C112.93 17.3363 111.602 16.7894 110 16.75C108.398 16.7894 107.07 17.3363 106.016 18.3906C104.961 19.445 104.414 20.7731 104.375 22.375C104.414 23.9769 104.961 25.305 106.016 26.3594C107.07 27.4137 108.398 27.9606 110 28ZM110 29.875C107.871 29.8162 106.104 29.0837 104.697 27.6775C103.291 26.2712 102.559 24.5037 102.5 22.375C102.559 20.2463 103.291 18.4787 104.697 17.0725C106.104 15.6662 107.871 14.9338 110 14.875C112.129 14.9338 113.896 15.6662 115.302 17.0725C116.709 18.4787 117.441 20.2463 117.5 22.375C117.441 24.5037 116.709 26.2712 115.302 27.6775C113.896 29.0837 112.129 29.8162 110 29.875ZM110 28C110.274 28 110.498 28.0878 110.674 28.2634C110.85 28.4391 110.938 28.6637 110.938 28.9375V36.4375C110.938 36.7113 110.85 36.9359 110.674 37.1116C110.498 37.2872 110.274 37.375 110 37.375C109.726 37.375 109.502 37.2872 109.326 37.1116C109.15 36.9359 109.062 36.7113 109.062 36.4375V28.9375C109.062 28.6637 109.15 28.4391 109.326 28.2634C109.502 28.0878 109.726 28 110 28ZM106.25 32.0134V33.9175C104.551 34.2106 103.193 34.5962 102.178 35.0744C101.162 35.5525 100.644 36.0066 100.625 36.4366C100.684 37.0422 101.587 37.6525 103.335 38.2675C105.083 38.8825 107.305 39.2097 110 39.2491C112.696 39.2097 114.917 38.8825 116.665 38.2675C118.412 37.6525 119.316 37.0422 119.375 36.4366C119.356 36.0066 118.838 35.5525 117.823 35.0744C116.807 34.5962 115.449 34.2106 113.75 33.9175V32.0134C115.977 32.3453 117.774 32.9069 119.141 33.6981C120.507 34.4894 121.211 35.4025 121.25 36.4375C121.172 37.7656 120.073 38.8691 117.954 39.7478C115.834 40.6266 113.183 41.0856 110 41.125C106.816 41.0856 104.165 40.6266 102.046 39.7478C99.9275 38.8691 98.8287 37.7656 98.75 36.4375C98.7894 35.4025 99.4925 34.4894 100.859 33.6981C102.226 32.9069 104.023 32.3453 106.25 32.0134Z" fill="#08080A" fill-opacity="0.96"/>
<path d="M220 30C220 46.5685 206.569 60 190 60C173.431 60 160 46.5685 160 30C160 13.4315 173.431 0 190 0C206.569 0 220 13.4315 220 30Z" fill="#F76D6D" fill-opacity="0.2"/>
<path d="M178.75 24.25V37.375H201.25V24.25H178.75ZM177.812 22.375H202.188C202.461 22.375 202.686 22.4628 202.862 22.6384C203.037 22.8141 203.125 23.0387 203.125 23.3125V38.3125C203.125 38.5863 203.037 38.8109 202.862 38.9866C202.686 39.1622 202.461 39.25 202.188 39.25H177.812C177.539 39.25 177.314 39.1622 177.138 38.9866C176.963 38.8109 176.875 38.5863 176.875 38.3125V23.3125C176.875 23.0387 176.963 22.8141 177.138 22.6384C177.314 22.4628 177.539 22.375 177.812 22.375ZM179.688 18.625H200.312V20.5H179.688V18.625ZM182.5 14.875H197.5V16.75H182.5V14.875Z" fill="#08080A" fill-opacity="0.96"/>
<circle cx="270" cy="30" r="30" fill="#4857EC" fill-opacity="0.2"/>
<path d="M265.58 36.75H259.75C259.476 36.75 259.252 36.6622 259.076 36.4866C258.9 36.3109 258.812 36.0863 258.812 35.8125V19.875H256.938C256.664 19.875 256.439 19.7872 256.263 19.6116C256.088 19.4359 256 19.2113 256 18.9375C256 18.6637 256.088 18.4391 256.263 18.2634C256.439 18.0878 256.664 18 256.938 18H283.188C283.461 18 283.686 18.0878 283.862 18.2634C284.037 18.4391 284.125 18.6637 284.125 18.9375C284.125 19.2113 284.037 19.4359 283.862 19.6116C283.686 19.7872 283.461 19.875 283.188 19.875H281.312V35.8125C281.312 36.0863 281.225 36.3109 281.049 36.4866C280.873 36.6622 280.649 36.75 280.375 36.75H274.545L277.797 42.375H275.628L272.376 36.75H267.747L264.495 42.375H262.326L265.58 36.75ZM279.438 19.875H260.688V34.875H279.438V19.875ZM265.112 29.9241C264.916 30.0997 264.691 30.1875 264.438 30.1875C264.184 30.1875 263.964 30.0947 263.778 29.9091C263.593 29.7234 263.5 29.5037 263.5 29.25C263.5 28.9963 263.588 28.7716 263.763 28.5759L268.099 24.2691L271.761 27.0234L274.954 23.0391C275.189 22.7459 275.487 22.6238 275.848 22.6725C276.209 22.7213 276.453 22.9166 276.58 23.2584C276.707 23.6003 276.653 23.9178 276.419 24.2109L272.112 29.6016L268.274 26.73L265.112 29.9241Z" fill="#08080A" fill-opacity="0.96"/>
<circle cx="27" cy="107" r="27" fill="#BCFF87" fill-opacity="0.5"/>
<path d="M39.8416 112.334C40.5638 110.72 40.9355 108.99 40.9355 107.242C40.9355 103.713 39.4215 100.328 36.7264 97.833C34.0313 95.3375 30.376 93.9355 26.5646 93.9355C22.7532 93.9355 19.0978 95.3375 16.4028 97.833C13.7077 100.328 12.1936 103.713 12.1936 107.242C12.1936 108.99 12.5653 110.72 13.2875 112.334C14.0097 113.949 15.0683 115.416 16.4028 116.651C17.7372 117.887 19.3215 118.867 21.065 119.536C22.8086 120.205 24.6773 120.549 26.5646 120.549C28.4518 120.549 30.3205 120.205 32.0641 119.536C33.8077 118.867 35.3919 117.887 36.7264 116.651C38.0608 115.416 39.1194 113.949 39.8416 112.334Z" fill="#E8FFD6"/>
<path d="M31.0802 111.423C29.8825 112.532 28.2582 113.155 26.5646 113.155C24.8709 113.155 23.2467 112.532 22.0489 111.423M21.7742 104.285H21.7902M31.3549 104.285H31.3709M40.9355 107.242C40.9355 108.99 40.5638 110.72 39.8416 112.334C39.1194 113.949 38.0608 115.416 36.7264 116.651C35.3919 117.887 33.8077 118.867 32.0641 119.536C30.3205 120.205 28.4518 120.549 26.5646 120.549C24.6773 120.549 22.8086 120.205 21.065 119.536C19.3215 118.867 17.7372 117.887 16.4028 116.651C15.0683 115.416 14.0097 113.949 13.2875 112.334C12.5653 110.72 12.1936 108.99 12.1936 107.242C12.1936 103.713 13.7077 100.328 16.4028 97.833C19.0978 95.3375 22.7532 93.9355 26.5646 93.9355C30.376 93.9355 34.0313 95.3375 36.7264 97.833C39.4215 100.328 40.9355 103.713 40.9355 107.242Z" stroke="#6AAF35" stroke-width="3" stroke-linecap="round" stroke-linejoin="round"/>
<circle cx="187" cy="107" r="27" fill="#FFD6D6" fill-opacity="0.5"/>
<path d="M191.08 111.423C189.882 112.532 188.258 113.155 186.565 113.155C184.871 113.155 183.247 112.532 182.049 111.423M181.774 104.285H181.79M191.355 104.285H191.371M200.936 107.242C200.936 108.99 200.564 110.72 199.842 112.334C199.119 113.949 198.061 115.416 196.726 116.651C195.392 117.887 193.808 118.867 192.064 119.536C190.321 120.205 188.452 120.549 186.565 120.549C184.677 120.549 182.809 120.205 181.065 119.536C179.321 118.867 177.737 117.887 176.403 116.651C175.068 115.416 174.01 113.949 173.288 112.334C172.565 110.72 172.194 108.99 172.194 107.242C172.194 103.713 173.708 100.328 176.403 97.833C179.098 95.3375 182.753 93.9355 186.565 93.9355C190.376 93.9355 194.031 95.3375 196.726 97.833C199.421 100.328 200.936 103.713 200.936 107.242Z" stroke="#C66464" stroke-width="3" stroke-linecap="round" stroke-linejoin="round"/>
<circle cx="107" cy="107" r="27" fill="#4857EC" fill-opacity="0.1"/>
<path d="M111.08 111.423C109.882 112.532 108.258 113.155 106.565 113.155C104.871 113.155 103.247 112.532 102.049 111.423M101.774 104.285H101.79M111.355 104.285H111.371M120.936 107.242C120.936 108.99 120.564 110.72 119.842 112.334C119.119 113.949 118.061 115.416 116.726 116.651C115.392 117.887 113.808 118.867 112.064 119.536C110.321 120.205 108.452 120.549 106.565 120.549C104.677 120.549 102.809 120.205 101.065 119.536C99.3215 118.867 97.7372 117.887 96.4028 116.651C95.0683 115.416 94.0097 113.949 93.2875 112.334C92.5653 110.72 92.1936 108.99 92.1936 107.242C92.1936 103.713 93.7077 100.328 96.4028 97.833C99.0978 95.3375 102.753 93.9355 106.565 93.9355C110.376 93.9355 114.031 95.3375 116.726 97.833C119.421 100.328 120.936 103.713 120.936 107.242Z" stroke="#4857EC" stroke-width="3" stroke-linecap="round" stroke-linejoin="round"/>
<path d="M20 170C20 164.477 15.5229 160 10 160C4.47715 160 0 164.477 0 170C0 174.991 3.65684 179.128 8.4375 179.879V172.891H5.89844V170H8.4375V167.797C8.4375 165.291 9.93047 163.906 12.2146 163.906C13.3084 163.906 14.4531 164.102 14.4531 164.102V166.563H13.1922C11.95 166.563 11.5625 167.333 11.5625 168.125V170H14.3359L13.8926 172.891H11.5625V179.879C16.3432 179.128 20 174.991 20 170Z" fill="black"/>
<g clip-path="url(#clip0_992_1718)">
<path d="M40 161.801C42.6719 161.801 42.9883 161.812 44.0391 161.859C45.0156 161.902 45.543 162.066 45.8945 162.203C46.3594 162.383 46.6953 162.602 47.043 162.949C47.3945 163.301 47.6094 163.633 47.7891 164.098C47.9258 164.449 48.0898 164.98 48.1328 165.953C48.1797 167.008 48.1914 167.324 48.1914 169.992C48.1914 172.664 48.1797 172.98 48.1328 174.031C48.0898 175.008 47.9258 175.535 47.7891 175.887C47.6094 176.352 47.3906 176.688 47.043 177.035C46.6914 177.387 46.3594 177.602 45.8945 177.781C45.543 177.918 45.0117 178.082 44.0391 178.125C42.9844 178.172 42.668 178.184 40 178.184C37.3281 178.184 37.0117 178.172 35.9609 178.125C34.9844 178.082 34.457 177.918 34.1055 177.781C33.6406 177.602 33.3047 177.383 32.957 177.035C32.6055 176.684 32.3906 176.352 32.2109 175.887C32.0742 175.535 31.9102 175.004 31.8672 174.031C31.8203 172.977 31.8086 172.66 31.8086 169.992C31.8086 167.32 31.8203 167.004 31.8672 165.953C31.9102 164.977 32.0742 164.449 32.2109 164.098C32.3906 163.633 32.6094 163.297 32.957 162.949C33.3086 162.598 33.6406 162.383 34.1055 162.203C34.457 162.066 34.9883 161.902 35.9609 161.859C37.0117 161.812 37.3281 161.801 40 161.801ZM40 160C37.2852 160 36.9453 160.012 35.8789 160.059C34.8164 160.105 34.0859 160.277 33.4531 160.523C32.793 160.781 32.2344 161.121 31.6797 161.68C31.1211 162.234 30.7813 162.793 30.5234 163.449C30.2773 164.086 30.1055 164.812 30.0586 165.875C30.0117 166.945 30 167.285 30 170C30 172.715 30.0117 173.055 30.0586 174.121C30.1055 175.184 30.2773 175.914 30.5234 176.547C30.7813 177.207 31.1211 177.766 31.6797 178.32C32.2344 178.875 32.793 179.219 33.4492 179.473C34.0859 179.719 34.8125 179.891 35.875 179.938C36.9414 179.984 37.2813 179.996 39.9961 179.996C42.7109 179.996 43.0508 179.984 44.1172 179.938C45.1797 179.891 45.9102 179.719 46.543 179.473C47.1992 179.219 47.7578 178.875 48.3125 178.32C48.8672 177.766 49.2109 177.207 49.4648 176.551C49.7109 175.914 49.8828 175.188 49.9297 174.125C49.9766 173.059 49.9883 172.719 49.9883 170.004C49.9883 167.289 49.9766 166.949 49.9297 165.883C49.8828 164.82 49.7109 164.09 49.4648 163.457C49.2188 162.793 48.8789 162.234 48.3203 161.68C47.7656 161.125 47.207 160.781 46.5508 160.527C45.9141 160.281 45.1875 160.109 44.125 160.063C43.0547 160.012 42.7148 160 40 160Z" fill="black"/>
<path d="M40 164.863C37.1641 164.863 34.8633 167.164 34.8633 170C34.8633 172.836 37.1641 175.137 40 175.137C42.8359 175.137 45.1367 172.836 45.1367 170C45.1367 167.164 42.8359 164.863 40 164.863ZM40 173.332C38.1602 173.332 36.668 171.84 36.668 170C36.668 168.16 38.1602 166.668 40 166.668C41.8398 166.668 43.332 168.16 43.332 170C43.332 171.84 41.8398 173.332 40 173.332Z" fill="black"/>
<path d="M46.5391 164.66C46.5391 165.324 46 165.859 45.3398 165.859C44.6758 165.859 44.1406 165.32 44.1406 164.66C44.1406 163.996 44.6797 163.461 45.3398 163.461C46 163.461 46.5391 164 46.5391 164.66Z" fill="black"/>
</g>
<g clip-path="url(#clip1_992_1718)">
<path d="M79.6016 165.154C79.4885 164.729 79.2657 164.34 78.9554 164.028C78.6451 163.716 78.2582 163.49 77.8334 163.375C76.2698 162.954 70.0198 162.954 70.0198 162.954C70.0198 162.954 63.7698 162.954 62.2061 163.375C61.7814 163.49 61.3945 163.716 61.0842 164.028C60.7739 164.34 60.551 164.729 60.438 165.154C60.0198 166.725 60.0198 170 60.0198 170C60.0198 170 60.0198 173.275 60.438 174.845C60.551 175.27 60.7739 175.659 61.0842 175.971C61.3945 176.283 61.7814 176.509 62.2061 176.625C63.7698 177.045 70.0198 177.045 70.0198 177.045C70.0198 177.045 76.2698 177.045 77.8334 176.625C78.2582 176.509 78.6451 176.283 78.9554 175.971C79.2657 175.659 79.4885 175.27 79.6016 174.845C80.0198 173.275 80.0198 170 80.0198 170C80.0198 170 80.0198 166.725 79.6016 165.154Z" fill="black"/>
<path d="M67.9744 172.974V167.026L73.2016 170L67.9744 172.974Z" fill="#FEFEFE"/>
</g>
<g clip-path="url(#clip2_992_1718)">
<path fill-rule="evenodd" clip-rule="evenodd" d="M100 160.417C97.6261 160.418 95.33 161.259 93.5223 162.789C91.7146 164.319 90.5132 166.439 90.1329 168.769C89.7526 171.099 90.2182 173.487 91.4465 175.507C92.6747 177.527 94.5856 179.047 96.8373 179.794C97.3341 179.887 97.5212 179.579 97.5212 179.317C97.5212 179.055 97.5113 178.296 97.508 177.466C94.7261 178.067 94.1382 176.292 94.1382 176.292C93.6845 175.14 93.0288 174.837 93.0288 174.837C92.1213 174.221 93.0967 174.233 93.0967 174.233C94.1018 174.303 94.63 175.258 94.63 175.258C95.5209 176.778 96.9698 176.339 97.5394 176.082C97.6289 175.438 97.8888 175 98.1753 174.751C95.9531 174.501 93.6183 173.648 93.6183 169.838C93.6045 168.85 93.9733 167.895 94.6482 167.169C94.5456 166.919 94.2028 165.908 94.7459 164.535C94.7459 164.535 95.5855 164.268 97.4964 165.554C99.1355 165.108 100.865 165.108 102.504 165.554C104.413 164.268 105.251 164.535 105.251 164.535C105.796 165.905 105.453 166.916 105.35 167.169C106.027 167.895 106.397 168.852 106.382 169.841C106.382 173.66 104.042 174.501 101.817 174.746C102.174 175.056 102.494 175.66 102.494 176.589C102.494 177.919 102.482 178.989 102.482 179.317C102.482 179.582 102.663 179.892 103.17 179.794C105.422 179.047 107.333 177.527 108.561 175.506C109.789 173.486 110.254 171.097 109.874 168.767C109.493 166.437 108.291 164.317 106.483 162.787C104.674 161.258 102.378 160.417 100.003 160.417H100Z" fill="black"/>
<path d="M93.7871 174.694C93.7655 174.743 93.686 174.758 93.6215 174.723C93.5569 174.689 93.5089 174.624 93.532 174.573C93.5552 174.522 93.6331 174.509 93.6976 174.544C93.7622 174.578 93.8119 174.644 93.7871 174.694Z" fill="black"/>
<path d="M94.1929 175.143C94.1586 175.16 94.1193 175.165 94.0819 175.157C94.0444 175.148 94.0111 175.127 93.9875 175.097C93.9229 175.028 93.9097 174.933 93.9594 174.89C94.009 174.847 94.0985 174.867 94.163 174.936C94.2276 175.005 94.2425 175.1 94.1929 175.143Z" fill="black"/>
<path d="M94.587 175.714C94.5257 175.757 94.4214 175.714 94.3634 175.628C94.3474 175.613 94.3347 175.594 94.3259 175.574C94.3172 175.554 94.3127 175.532 94.3127 175.51C94.3127 175.488 94.3172 175.466 94.3259 175.445C94.3347 175.425 94.3474 175.406 94.3634 175.391C94.4247 175.35 94.529 175.391 94.587 175.475C94.6449 175.559 94.6466 175.671 94.587 175.714Z" fill="black"/>
<path d="M95.1217 176.267C95.067 176.328 94.9561 176.312 94.865 176.23C94.7739 176.147 94.7524 176.035 94.8071 175.976C94.8617 175.917 94.9726 175.933 95.067 176.014C95.1614 176.094 95.1796 176.208 95.1217 176.267Z" fill="black"/>
<path d="M95.8717 176.59C95.8469 176.668 95.7343 176.702 95.6217 176.669C95.5091 176.636 95.4346 176.544 95.4561 176.465C95.4776 176.386 95.5919 176.35 95.7061 176.386C95.8204 176.422 95.8933 176.51 95.8717 176.59Z" fill="black"/>
<path d="M96.6899 176.646C96.6899 176.727 96.5971 176.796 96.4779 176.797C96.3587 176.799 96.261 176.733 96.261 176.652C96.261 176.572 96.3537 176.503 96.4729 176.501C96.5922 176.499 96.6899 176.564 96.6899 176.646Z" fill="black"/>
<path d="M97.4517 176.519C97.4666 176.6 97.3838 176.684 97.2645 176.703C97.1453 176.723 97.041 176.675 97.0261 176.596C97.0112 176.517 97.0973 176.432 97.2132 176.41C97.3291 176.389 97.4368 176.438 97.4517 176.519Z" fill="black"/>
</g>
<path d="M128.24 168.39C127.67 168.39 127.22 168.89 127.22 169.5C127.22 170.11 127.68 170.61 128.24 170.61C128.81 170.61 129.26 170.11 129.26 169.5C129.27 168.89 128.81 168.39 128.24 168.39ZM131.89 168.39C131.32 168.39 130.87 168.89 130.87 169.5C130.87 170.11 131.33 170.61 131.89 170.61C132.46 170.61 132.91 170.11 132.91 169.5C132.91 168.89 132.46 168.39 131.89 168.39Z" fill="black"/>
<path d="M136.75 160H123.35C122.22 160 121.3 160.92 121.3 162.06V175.58C121.3 176.72 122.22 177.64 123.35 177.64H134.69L134.16 175.79L135.44 176.98L136.65 178.1L138.8 180V162.06C138.8 160.92 137.88 160 136.75 160ZM132.89 173.06C132.89 173.06 132.53 172.63 132.23 172.25C133.54 171.88 134.04 171.06 134.04 171.06C133.63 171.33 133.24 171.52 132.89 171.65C132.39 171.86 131.91 172 131.44 172.08C130.48 172.26 129.6 172.21 128.85 172.07C128.28 171.96 127.79 171.8 127.38 171.64C127.15 171.55 126.9 171.44 126.65 171.3C126.62 171.28 126.59 171.27 126.56 171.25C126.54 171.24 126.53 171.23 126.52 171.22C126.34 171.12 126.24 171.05 126.24 171.05C126.24 171.05 126.72 171.85 127.99 172.23C127.69 172.61 127.32 173.06 127.32 173.06C125.11 172.99 124.27 171.54 124.27 171.54C124.27 168.32 125.71 165.71 125.71 165.71C127.15 164.63 128.52 164.66 128.52 164.66L128.62 164.78C126.82 165.3 125.99 166.09 125.99 166.09C125.99 166.09 126.21 165.97 126.58 165.8C127.65 165.33 128.5 165.2 128.85 165.17C128.91 165.16 128.96 165.15 129.02 165.15C129.63 165.07 130.32 165.05 131.04 165.13C131.99 165.24 133.01 165.52 134.05 166.09C134.05 166.09 133.26 165.34 131.56 164.82L131.7 164.66C131.7 164.66 133.07 164.63 134.51 165.71C134.51 165.71 135.95 168.32 135.95 171.54C135.95 171.54 135.1 172.99 132.89 173.06Z" fill="black"/>
<path d="M158.641 160.537C158.39 159.821 157.296 159.821 157.044 160.537L155.768 164.172C155.713 164.328 155.606 164.464 155.463 164.561C155.319 164.657 155.146 164.709 154.969 164.709H150.842C150.029 164.709 149.689 165.673 150.348 166.117L153.687 168.363C153.831 168.459 153.938 168.595 153.992 168.752C154.047 168.908 154.047 169.076 153.992 169.232L152.717 172.867C152.465 173.584 153.351 174.18 154.009 173.737L157.349 171.491C157.492 171.394 157.665 171.342 157.842 171.342C158.02 171.342 158.193 171.394 158.336 171.491L161.676 173.737C162.334 174.18 163.22 173.584 162.968 172.867L161.693 169.232C161.638 169.076 161.638 168.908 161.693 168.752C161.747 168.595 161.854 168.459 161.998 168.363L165.337 166.117C165.995 165.673 165.657 164.709 164.843 164.709H160.715C160.538 164.709 160.365 164.657 160.222 164.56C160.079 164.464 159.972 164.328 159.917 164.172L158.641 160.537Z" stroke="#F9C94E" stroke-linecap="round" stroke-linejoin="round"/>
<path d="M179.641 160.537C179.39 159.821 178.296 159.821 178.044 160.537L176.768 164.172C176.713 164.328 176.606 164.464 176.463 164.561C176.319 164.657 176.146 164.709 175.969 164.709H171.842C171.029 164.709 170.689 165.673 171.348 166.117L174.687 168.363C174.831 168.459 174.938 168.595 174.992 168.752C175.047 168.908 175.047 169.076 174.992 169.232L173.717 172.867C173.465 173.584 174.351 174.18 175.009 173.737L178.349 171.491C178.492 171.394 178.665 171.342 178.842 171.342C179.02 171.342 179.193 171.394 179.336 171.491L182.676 173.737C183.334 174.18 184.22 173.584 183.968 172.867L182.693 169.232C182.638 169.076 182.638 168.908 182.693 168.752C182.747 168.595 182.854 168.459 182.998 168.363L186.337 166.117C186.995 165.673 186.657 164.709 185.843 164.709H181.715C181.538 164.709 181.365 164.657 181.222 164.56C181.079 164.464 180.972 164.328 180.917 164.172L179.641 160.537Z" fill="#F9C94E"/>
<defs>
<clipPath id="clip0_992_1718">
<rect width="20" height="20" fill="white" transform="translate(30 160)"/>
</clipPath>
<clipPath id="clip1_992_1718">
<rect width="20" height="20" fill="white" transform="translate(60 160)"/>
</clipPath>
<clipPath id="clip2_992_1718">
<rect width="20" height="20" fill="white" transform="translate(90 160)"/>
</clipPath>
</defs>
</svg>
