<svg width="300" height="300" viewBox="0 0 300 300" fill="none" xmlns="http://www.w3.org/2000/svg">
<g clip-path="url(#clip0_889_2011)">
<circle cx="8" cy="78" r="7" fill="#FF3344"/>
<circle cx="28" cy="78" r="5" stroke="#FF3344" stroke-width="4"/>
<path d="M53 78L41 84.9282L41 71.0718L53 78Z" fill="#FF3344"/>
<path d="M71.389 71H67.611C67.2736 71 67 71.2394 67 71.5346V84.4654C67 84.7606 67.2736 85 67.611 85H71.389C71.7264 85 72 84.7606 72 84.4654V71.5346C72 71.2394 71.7264 71 71.389 71Z" fill="#FF3344"/>
<path d="M65.389 71H61.611C61.2736 71 61 71.2394 61 71.5346V84.4654C61 84.7606 61.2736 85 61.611 85H65.389C65.7264 85 66 84.7606 66 84.4654V71.5346C66 71.2394 65.7264 71 65.389 71Z" fill="#FF3344"/>
<path d="M24.15 7.35C24.15 7.85 24.0833 8.33333 23.95 8.8C23.8167 9.26666 23.5833 9.68333 23.25 10.05C23.1167 10.25 22.8833 10.5167 22.55 10.85C22.2167 11.15 21.7667 11.5833 21.2 12.15C19.8 13.3167 18.4667 14.55 17.2 15.85C15.9667 17.15 14.7667 18.5167 13.6 19.95C13.2 20.4167 12.8 20.9 12.4 21.4C12 21.9 11.6833 22.4167 11.45 22.95C11.2167 23.4833 11.1 24.05 11.1 24.65C11.1333 25.25 11.3833 25.8667 11.85 26.5C12.6833 27.6667 13.5667 28.7833 14.5 29.85C15.4333 30.9167 16.4333 31.9667 17.5 33C18.1333 33.6667 18.7667 34.3167 19.4 34.95C20.0667 35.5833 20.7 36.2167 21.3 36.85C22.1 37.65 22.5833 38.5 22.75 39.4C22.9167 40.2667 22.8333 41.0333 22.5 41.7C22.1667 42.3667 21.6167 42.85 20.85 43.15C20.1167 43.45 19.2333 43.4 18.2 43C17.6667 42.7667 17.15 42.45 16.65 42.05C16.15 41.6833 15.6667 41.2667 15.2 40.8C14.7333 40.3 14.2833 39.8 13.85 39.3C13.4167 38.8 13.0167 38.3333 12.65 37.9C6.38333 31 3.25 26.4333 3.25 24.2C3.25 22.5 4.46667 20.0333 6.9 16.8C7.83333 15.6333 8.86667 14.4167 10 13.15C11.1333 11.85 12.4 10.5667 13.8 9.3C14.6667 8.43333 15.55 7.58333 16.45 6.75C17.3833 5.88333 18.4 5.15 19.5 4.55C19.9667 4.31667 20.4667 4.21666 21 4.25C21.5667 4.25 22.0833 4.38333 22.55 4.65C23.0167 4.88333 23.4 5.23333 23.7 5.7C24 6.16667 24.15 6.71667 24.15 7.35Z" fill="#4857EC"/>
<path d="M53.85 40.65C53.85 40.15 53.9167 39.6667 54.05 39.2C54.1833 38.7333 54.4167 38.3167 54.75 37.95C54.8833 37.75 55.1167 37.4833 55.45 37.15C55.7833 36.85 56.2333 36.4167 56.8 35.85C58.2 34.6833 59.5333 33.45 60.8 32.15C62.0333 30.85 63.2333 29.4833 64.4 28.05C64.8 27.5833 65.2 27.1 65.6 26.6C66 26.1 66.3167 25.5833 66.55 25.05C66.7833 24.5167 66.9 23.95 66.9 23.35C66.8667 22.75 66.6167 22.1333 66.15 21.5C65.3167 20.3333 64.4333 19.2167 63.5 18.15C62.5667 17.0833 61.5667 16.0333 60.5 15C59.8667 14.3333 59.2333 13.6833 58.6 13.05C57.9333 12.4167 57.3 11.7833 56.7 11.15C55.9 10.35 55.4167 9.5 55.25 8.6C55.0833 7.73333 55.1667 6.96666 55.5 6.3C55.8333 5.63333 56.3833 5.15 57.15 4.85C57.8833 4.55 58.7667 4.6 59.8 5C60.3333 5.23333 60.85 5.55 61.35 5.95C61.85 6.31667 62.3333 6.73333 62.8 7.2C63.2667 7.7 63.7167 8.2 64.15 8.7C64.5833 9.2 64.9833 9.66667 65.35 10.1C71.6167 17 74.75 21.5667 74.75 23.8C74.75 25.5 73.5333 27.9667 71.1 31.2C70.1667 32.3667 69.1333 33.5833 68 34.85C66.8667 36.15 65.6 37.4333 64.2 38.7C63.3333 39.5667 62.45 40.4167 61.55 41.25C60.6167 42.1167 59.6 42.85 58.5 43.45C58.0333 43.6833 57.5333 43.7833 57 43.75C56.4333 43.75 55.9167 43.6167 55.45 43.35C54.9833 43.1167 54.6 42.7667 54.3 42.3C54 41.8333 53.85 41.2833 53.85 40.65Z" fill="#4857EC"/>
</g>
<defs>
<clipPath id="clip0_889_2011">
<rect width="300" height="300" fill="white"/>
</clipPath>
</defs>
</svg>
