<svg width="92" height="14" viewBox="0 0 92 14" fill="none" xmlns="http://www.w3.org/2000/svg">
<path d="M8.64123 0.537216C8.39009 -0.179072 7.29566 -0.179072 7.04368 0.537216L5.76782 4.17232C5.71287 4.32837 5.60601 4.46433 5.46253 4.56072C5.31905 4.65711 5.14631 4.709 4.96905 4.70896H0.84162C0.0285657 4.70896 -0.310767 5.67334 0.34774 6.11664L3.68731 8.36273C3.83076 8.45929 3.93753 8.59542 3.9923 8.75162C4.04707 8.90781 4.04704 9.07605 3.99221 9.23223L2.71719 12.8673C2.46521 13.5836 3.35134 14.1801 4.009 13.7368L7.34858 11.4908C7.49211 11.3941 7.665 11.3421 7.84246 11.3421C8.01991 11.3421 8.1928 11.3941 8.33634 11.4908L11.6759 13.7368C12.3336 14.1801 13.2197 13.5844 12.9677 12.8673L11.6927 9.23223C11.6379 9.07605 11.6378 8.90781 11.6926 8.75162C11.7474 8.59542 11.8541 8.45929 11.9976 8.36273L15.3372 6.11664C15.9948 5.67334 15.6572 4.70896 14.8433 4.70896H10.715C10.5379 4.70883 10.3654 4.65687 10.222 4.56049C10.0787 4.46411 9.972 4.32825 9.91709 4.17232L8.64123 0.537216Z" fill="#F9C94E"/>
<path d="M27.6412 0.537216C27.3901 -0.179072 26.2957 -0.179072 26.0437 0.537216L24.7678 4.17232C24.7129 4.32837 24.606 4.46433 24.4625 4.56072C24.319 4.65711 24.1463 4.709 23.969 4.70896H19.8416C19.0286 4.70896 18.6892 5.67334 19.3477 6.11664L22.6873 8.36273C22.8308 8.45929 22.9375 8.59542 22.9923 8.75162C23.0471 8.90781 23.047 9.07605 22.9922 9.23223L21.7172 12.8673C21.4652 13.5836 22.3513 14.1801 23.009 13.7368L26.3486 11.4908C26.4921 11.3941 26.665 11.3421 26.8425 11.3421C27.0199 11.3421 27.1928 11.3941 27.3363 11.4908L30.6759 13.7368C31.3336 14.1801 32.2197 13.5844 31.9677 12.8673L30.6927 9.23223C30.6379 9.07605 30.6378 8.90781 30.6926 8.75162C30.7474 8.59542 30.8541 8.45929 30.9976 8.36273L34.3372 6.11664C34.9948 5.67334 34.6572 4.70896 33.8433 4.70896H29.715C29.5379 4.70883 29.3654 4.65687 29.222 4.56049C29.0787 4.46411 28.972 4.32825 28.9171 4.17232L27.6412 0.537216Z" fill="#F9C94E"/>
<path d="M46.6412 0.537216C46.3901 -0.179072 45.2957 -0.179072 45.0437 0.537216L43.7678 4.17232C43.7129 4.32837 43.606 4.46433 43.4625 4.56072C43.319 4.65711 43.1463 4.709 42.969 4.70896H38.8416C38.0286 4.70896 37.6892 5.67334 38.3477 6.11664L41.6873 8.36273C41.8308 8.45929 41.9375 8.59542 41.9923 8.75162C42.0471 8.90781 42.047 9.07605 41.9922 9.23223L40.7172 12.8673C40.4652 13.5836 41.3513 14.1801 42.009 13.7368L45.3486 11.4908C45.4921 11.3941 45.665 11.3421 45.8425 11.3421C46.0199 11.3421 46.1928 11.3941 46.3363 11.4908L49.6759 13.7368C50.3336 14.1801 51.2197 13.5844 50.9677 12.8673L49.6927 9.23223C49.6379 9.07605 49.6378 8.90781 49.6926 8.75162C49.7474 8.59542 49.8541 8.45929 49.9976 8.36273L53.3372 6.11664C53.9948 5.67334 53.6572 4.70896 52.8433 4.70896H48.715C48.5379 4.70883 48.3654 4.65687 48.222 4.56049C48.0787 4.46411 47.972 4.32825 47.9171 4.17232L46.6412 0.537216Z" fill="#F9C94E"/>
<path d="M65.6412 0.537216C65.3901 -0.179072 64.2957 -0.179072 64.0437 0.537216L62.7678 4.17232C62.7129 4.32837 62.606 4.46433 62.4625 4.56072C62.319 4.65711 62.1463 4.709 61.969 4.70896H57.8416C57.0286 4.70896 56.6892 5.67334 57.3477 6.11664L60.6873 8.36273C60.8308 8.45929 60.9375 8.59542 60.9923 8.75162C61.0471 8.90781 61.047 9.07605 60.9922 9.23223L59.7172 12.8673C59.4652 13.5836 60.3513 14.1801 61.009 13.7368L64.3486 11.4908C64.4921 11.3941 64.665 11.3421 64.8425 11.3421C65.0199 11.3421 65.1928 11.3941 65.3363 11.4908L68.6759 13.7368C69.3336 14.1801 70.2197 13.5844 69.9677 12.8673L68.6927 9.23223C68.6379 9.07605 68.6378 8.90781 68.6926 8.75162C68.7474 8.59542 68.8541 8.45929 68.9976 8.36273L72.3372 6.11664C72.9948 5.67334 72.6572 4.70896 71.8433 4.70896H67.715C67.5379 4.70883 67.3654 4.65687 67.222 4.56049C67.0787 4.46411 66.972 4.32825 66.9171 4.17232L65.6412 0.537216Z" fill="#F9C94E"/>
<path d="M84.6412 0.537216C84.3901 -0.179072 83.2957 -0.179072 83.0437 0.537216L81.7678 4.17232C81.7129 4.32837 81.606 4.46433 81.4625 4.56072C81.319 4.65711 81.1463 4.709 80.969 4.70896H76.8416C76.0286 4.70896 75.6892 5.67334 76.3477 6.11664L79.6873 8.36273C79.8308 8.45929 79.9375 8.59542 79.9923 8.75162C80.0471 8.90781 80.047 9.07605 79.9922 9.23223L78.7172 12.8673C78.4652 13.5836 79.3513 14.1801 80.009 13.7368L83.3486 11.4908C83.4921 11.3941 83.665 11.3421 83.8425 11.3421C84.0199 11.3421 84.1928 11.3941 84.3363 11.4908L87.6759 13.7368C88.3336 14.1801 89.2197 13.5844 88.9677 12.8673L87.6927 9.23223C87.6379 9.07605 87.6378 8.90781 87.6926 8.75162C87.7474 8.59542 87.8541 8.45929 87.9976 8.36273L91.3372 6.11664C91.9948 5.67334 91.6572 4.70896 90.8433 4.70896H86.715C86.5379 4.70883 86.3654 4.65687 86.222 4.56049C86.0787 4.46411 85.972 4.32825 85.9171 4.17232L84.6412 0.537216Z" fill="#F9C94E"/>
</svg>
