<svg width="30" height="30" viewBox="0 0 30 30" fill="none" xmlns="http://www.w3.org/2000/svg">
<path d="M3.75 11.25V24.375H26.25V11.25H3.75ZM2.8125 9.375H27.1875C27.4613 9.375 27.6859 9.46281 27.8616 9.63844C28.0372 9.81406 28.125 10.0387 28.125 10.3125V25.3125C28.125 25.5863 28.0372 25.8109 27.8616 25.9866C27.6859 26.1622 27.4613 26.25 27.1875 26.25H2.8125C2.53875 26.25 2.31406 26.1622 2.13844 25.9866C1.96281 25.8109 1.875 25.5863 1.875 25.3125V10.3125C1.875 10.0387 1.96281 9.81406 2.13844 9.63844C2.31406 9.46281 2.53875 9.375 2.8125 9.375ZM4.6875 5.625H25.3125V7.5H4.6875V5.625ZM7.5 1.875H22.5V3.75H7.5V1.875Z" fill="#08080A" fill-opacity="0.96"/>
</svg>
