<svg width="30" height="26" viewBox="0 0 30 26" fill="none" xmlns="http://www.w3.org/2000/svg">
<path d="M10.5178 19.5H4.6875C4.41375 19.5 4.18906 19.4122 4.01344 19.2366C3.83781 19.0609 3.75 18.8363 3.75 18.5625V2.625H1.875C1.60125 2.625 1.37656 2.53719 1.20094 2.36156C1.02531 2.18594 0.9375 1.96125 0.9375 1.6875C0.9375 1.41375 1.02531 1.18906 1.20094 1.01344C1.37656 0.837813 1.60125 0.75 1.875 0.75H28.125C28.3988 0.75 28.6234 0.837813 28.7991 1.01344C28.9747 1.18906 29.0625 1.41375 29.0625 1.6875C29.0625 1.96125 28.9747 2.18594 28.7991 2.36156C28.6234 2.53719 28.3988 2.625 28.125 2.625H26.25V18.5625C26.25 18.8363 26.1622 19.0609 25.9866 19.2366C25.8109 19.4122 25.5863 19.5 25.3125 19.5H19.4822L22.7344 25.125H20.5659L17.3138 19.5H12.6844L9.43219 25.125H7.26375L10.5178 19.5ZM24.375 2.625H5.625V17.625H24.375V2.625ZM10.0491 12.6741C9.85344 12.8497 9.62875 12.9375 9.375 12.9375C9.12125 12.9375 8.90156 12.8447 8.71594 12.6591C8.53031 12.4734 8.4375 12.2537 8.4375 12C8.4375 11.7463 8.52531 11.5216 8.70094 11.3259L13.0369 7.01906L16.6988 9.77344L19.8919 5.78906C20.1263 5.49594 20.4241 5.37375 20.7853 5.4225C21.1466 5.47125 21.3906 5.66656 21.5175 6.00844C21.6444 6.35031 21.5906 6.66781 21.3563 6.96094L17.0494 12.3516L13.2113 9.48L10.0491 12.6741Z" fill="#08080A" fill-opacity="0.96"/>
</svg>
