<svg width="33" height="31" viewBox="0 0 33 31" fill="none" xmlns="http://www.w3.org/2000/svg">
<path d="M21.0802 19.4234C19.8825 20.5321 18.2582 21.1549 16.5646 21.1549C14.8709 21.1549 13.2467 20.5321 12.0489 19.4234M11.7742 12.2851H11.7902M21.3549 12.2851H21.3709M30.9355 15.2422C30.9355 16.9896 30.5638 18.7199 29.8416 20.3344C29.1194 21.9488 28.0608 23.4157 26.7264 24.6513C25.3919 25.887 23.8077 26.8671 22.0641 27.5359C20.3205 28.2046 18.4518 28.5488 16.5646 28.5488C14.6773 28.5488 12.8086 28.2046 11.065 27.5359C9.32147 26.8671 7.73723 25.887 6.40276 24.6513C5.06829 23.4157 4.00974 21.9488 3.28753 20.3344C2.56532 18.7199 2.1936 16.9896 2.1936 15.2422C2.1936 11.713 3.70768 8.32843 6.40276 5.83296C9.09784 3.33749 12.7532 1.93555 16.5646 1.93555C20.376 1.93555 24.0313 3.33749 26.7264 5.83296C29.4215 8.32843 30.9355 11.713 30.9355 15.2422Z" stroke="#4857EC" stroke-width="3" stroke-linecap="round" stroke-linejoin="round"/>
</svg>
