<svg width="24" height="24" viewBox="0 0 24 24" fill="none" xmlns="http://www.w3.org/2000/svg">
<path fill-rule="evenodd" clip-rule="evenodd" d="M11.8261 2C8.46435 2 5.73912 4.72522 5.73912 8.08696V10.1795C5.73912 11.2798 5.03004 12.2422 4.46645 13.1872C4.17019 13.684 3.99999 14.2647 3.99999 14.8851C3.99999 16.488 5.14519 17.8633 6.7329 18.0834C8.30958 18.3021 10.2797 18.522 11.8261 18.522C13.3724 18.522 15.3426 18.3021 16.9192 18.0834C18.507 17.8633 19.6522 16.488 19.6522 14.8851C19.6522 14.2647 19.482 13.684 19.1857 13.1872C18.6221 12.2422 17.913 11.2798 17.913 10.1795V8.08696C17.913 4.72522 15.1878 2 11.8261 2Z" fill="white"/>
<path d="M3.99999 14.8851H3.24999H3.99999ZM6.7329 18.0834L6.83591 17.3405H6.83591L6.7329 18.0834ZM16.9192 18.0834L16.8162 17.3405L16.9192 18.0834ZM4.46645 13.1872L3.8223 12.8031L4.46645 13.1872ZM6.48912 8.08696C6.48912 5.13944 8.87856 2.75 11.8261 2.75V1.25C8.05013 1.25 4.98912 4.31101 4.98912 8.08696H6.48912ZM6.48912 10.1795V8.08696H4.98912V10.1795H6.48912ZM4.74999 14.8851C4.74999 14.4037 4.88169 13.9552 5.1106 13.5714L3.8223 12.8031C3.45869 13.4128 3.24999 14.1257 3.24999 14.8851H4.74999ZM6.83591 17.3405C5.63627 17.1742 4.74999 16.1313 4.74999 14.8851H3.24999C3.24999 16.8448 4.6541 18.5524 6.62989 18.8263L6.83591 17.3405ZM11.8261 17.772C10.3341 17.772 8.4065 17.5583 6.83591 17.3405L6.62989 18.8263C8.21266 19.0458 10.2254 19.272 11.8261 19.272V17.772ZM16.8162 17.3405C15.2456 17.5583 13.3181 17.772 11.8261 17.772V19.272C13.4268 19.272 15.4395 19.0458 17.0223 18.8263L16.8162 17.3405ZM18.9022 14.8851C18.9022 16.1313 18.0159 17.1742 16.8162 17.3405L17.0223 18.8263C18.998 18.5524 20.4022 16.8448 20.4022 14.8851H18.9022ZM18.5415 13.5714C18.7705 13.9552 18.9022 14.4037 18.9022 14.8851H20.4022C20.4022 14.1257 20.1935 13.4128 19.8298 12.8031L18.5415 13.5714ZM17.163 8.08696V10.1795H18.663V8.08696H17.163ZM11.8261 2.75C14.7736 2.75 17.163 5.13944 17.163 8.08696H18.663C18.663 4.31101 15.602 1.25 11.8261 1.25V2.75ZM19.8298 12.8031C19.521 12.2851 19.2404 11.8701 19.0091 11.4066C18.7876 10.9629 18.663 10.567 18.663 10.1795H17.163C17.163 10.8924 17.3931 11.5278 17.667 12.0766C17.9311 12.6056 18.2869 13.1443 18.5415 13.5714L19.8298 12.8031ZM4.98912 10.1795C4.98912 10.567 4.8646 10.9629 4.64309 11.4066C4.41175 11.8701 4.1312 12.2851 3.8223 12.8031L5.1106 13.5714C5.3653 13.1443 5.72108 12.6056 5.98518 12.0766C6.2591 11.5278 6.48912 10.8923 6.48912 10.1795H4.98912Z" fill="#FCFDFF"/>
<path d="M14 20.834C13.5326 21.5369 12.7335 22.0002 11.8261 22.0002C10.9187 22.0002 10.1195 21.5369 9.65218 20.834" stroke="#FCFDFF" stroke-width="1.5" stroke-linecap="round"/>
</svg>
