<svg width="30" height="30" viewBox="0 0 30 30" fill="none" xmlns="http://www.w3.org/2000/svg">
<path d="M15 15C16.6019 14.9606 17.93 14.4137 18.9844 13.3594C20.0387 12.305 20.5856 10.9769 20.625 9.375C20.5856 7.77313 20.0387 6.445 18.9844 5.39062C17.93 4.33625 16.6019 3.78937 15 3.75C13.3981 3.78937 12.07 4.33625 11.0156 5.39062C9.96125 6.445 9.41437 7.77313 9.375 9.375C9.41437 10.9769 9.96125 12.305 11.0156 13.3594C12.07 14.4137 13.3981 14.9606 15 15ZM15 16.875C12.8713 16.8162 11.1037 16.0837 9.6975 14.6775C8.29125 13.2712 7.55875 11.5037 7.5 9.375C7.55875 7.24625 8.29125 5.47875 9.6975 4.0725C11.1037 2.66625 12.8713 1.93375 15 1.875C17.1287 1.93375 18.8962 2.66625 20.3025 4.0725C21.7087 5.47875 22.4412 7.24625 22.5 9.375C22.4412 11.5037 21.7087 13.2712 20.3025 14.6775C18.8962 16.0837 17.1287 16.8162 15 16.875ZM15 15C15.2738 15 15.4984 15.0878 15.6741 15.2634C15.8497 15.4391 15.9375 15.6637 15.9375 15.9375V23.4375C15.9375 23.7113 15.8497 23.9359 15.6741 24.1116C15.4984 24.2872 15.2738 24.375 15 24.375C14.7262 24.375 14.5016 24.2872 14.3259 24.1116C14.1503 23.9359 14.0625 23.7113 14.0625 23.4375V15.9375C14.0625 15.6637 14.1503 15.4391 14.3259 15.2634C14.5016 15.0878 14.7262 15 15 15ZM11.25 19.0134V20.9175C9.55062 21.2106 8.19313 21.5962 7.1775 22.0744C6.16188 22.5525 5.64437 23.0066 5.625 23.4366C5.68375 24.0422 6.58719 24.6525 8.33531 25.2675C10.0834 25.8825 12.305 26.2097 15 26.2491C17.6956 26.2097 19.9172 25.8825 21.6647 25.2675C23.4122 24.6525 24.3156 24.0422 24.375 23.4366C24.3556 23.0066 23.8381 22.5525 22.8225 22.0744C21.8069 21.5962 20.4494 21.2106 18.75 20.9175V19.0134C20.9769 19.3453 22.7738 19.9069 24.1406 20.6981C25.5075 21.4894 26.2106 22.4025 26.25 23.4375C26.1719 24.7656 25.0731 25.8691 22.9537 26.7478C20.8344 27.6266 18.1831 28.0856 15 28.125C11.8162 28.0856 9.165 27.6266 7.04625 26.7478C4.9275 25.8691 3.82875 24.7656 3.75 23.4375C3.78937 22.4025 4.4925 21.4894 5.85938 20.6981C7.22625 19.9069 9.02313 19.3453 11.25 19.0134Z" fill="#08080A" fill-opacity="0.96"/>
</svg>
