<svg width="352" height="381" viewBox="0 0 352 381" fill="none" xmlns="http://www.w3.org/2000/svg">
<path d="M298.38 132.32C306.88 122.8 307.02 120.68 307.96 121.4C311 123.66 275.96 153.16 292.74 163.92C296.74 166.46 298 167.12 296.74 169.92C296.6 171.6 295.3 173.3 295.46 176.08C295.62 178.86 295.46 179.9 300.02 181.66C302.497 181.783 304.953 181.148 307.06 179.84C309.64 178.28 313.06 176.76 314.82 179.1C317.324 178.594 319.677 177.52 321.7 175.96C320.661 176.007 319.62 175.886 318.62 175.6C328.02 172.26 330.2 167.6 331.1 161.78C331.34 155.4 326.92 150.12 326.46 148.94C325.22 151.44 323.16 157.26 319.38 158.04C322.456 154.192 324.709 149.754 326 145C325.6 139.42 325.52 133.68 323 129.14C320.8 125.14 317.74 125.14 315.22 128.86C314.02 130.66 314.04 131.06 313.36 130.86C312.68 130.66 312.76 130.08 312.58 129.6C308.74 119.6 309 119.6 307.92 119.6C297.12 119.26 292.32 114.68 291.26 116.14C291.78 121.7 292.54 127.08 295.54 131.92C296.84 134.04 296.82 134.06 298.38 132.32Z" fill="#FEF0BB"/>
<path d="M140.96 96.5998C142.098 98.0671 143.518 99.2931 145.135 100.206C146.752 101.12 148.535 101.702 150.38 101.92C154.14 102.68 157.62 100.08 161.1 98.4798C156.64 97.9998 152.5 97.6998 148.88 95.3198C146.6 93.8398 148.88 91.5398 149.2 93.4598C149.74 95.9798 159.92 96.6198 161.46 98.3198C173.84 92.5998 174.94 95.7398 167.46 93.8998C166 93.5398 161.98 92.1398 162.6 90.7798C163.22 89.4198 164.32 92.7798 177.34 93.4398C188.32 91.4398 188.4 97.2598 190.5 97.8598C186.5 93.0198 184.24 86.1598 185.44 85.8598C187.7 85.1398 184.64 95.5998 204.42 106.7C207.266 108.117 210.34 109.024 213.5 109.38C213.089 109.836 212.565 110.175 211.98 110.36C220.26 113.66 217.98 121.4 218.66 117.64C218.66 117.2 218.4 116.42 219.1 116.36C219.8 116.3 219.92 117.08 219.86 117.64C219.48 121.14 220.62 124.64 220.18 128.16C220.58 128.3 220.64 127.64 220.72 127.44C221.603 125.27 222.345 123.046 222.94 120.78C222.94 105.04 217.6 103.26 208.1 89.0398C202.1 80.0198 189.62 80.8598 177.42 81.0398C153.42 81.2198 198.42 87.4598 177.9 86.2798C175.292 86.2341 172.723 85.6346 170.365 84.5208C168.006 83.4071 165.912 81.8047 164.22 79.8198C154.9 68.7598 156.02 68.9998 154.94 63.8198C153.018 67.6259 151.857 71.7697 151.52 76.0198C151.52 77.8798 150.94 79.8998 153.32 80.9798C148.7 80.7398 147.02 76.9798 144.6 73.9398C144.094 75.1418 143.79 76.4189 143.7 77.7198C143.2 84.0398 146.44 87.4998 144.38 88.5798C142.32 89.6598 139.12 84.2998 138 82.3398C137.505 84.7935 137.512 87.3219 138.021 89.7726C138.529 92.2234 139.529 94.5458 140.96 96.5998ZM206.32 101.1C206.74 100.56 206.64 100.46 217.24 106.8C217.617 106.981 217.935 107.264 218.158 107.618C218.381 107.972 218.499 108.382 218.5 108.8C216.44 107.78 205.02 102.86 206.32 101.1Z" fill="#FEF0BB"/>
<path d="M152.6 361.34C146.88 362.66 132.26 370.2 119.42 361.34C115.42 358.878 111.178 356.834 106.76 355.24C106.646 355.365 106.552 355.507 106.48 355.66C105.7 357.38 104.36 354.94 103.7 356.24C103.24 357.1 103.6 359.38 104.08 364.98C104.08 365.48 104.88 366.98 103.32 366.84C105.12 373.1 114.94 376.28 121.32 377.36C137.72 380.16 156.26 383.62 183.94 374.62C187.94 373.3 185.46 369.74 188.18 351.98C176.44 355.68 164.56 358.6 152.6 361.34Z" fill="#FEF0BB"/>
<path d="M126.52 53.2198C126.72 53.2198 159.14 51.0398 164.66 50.5798C166.06 50.4598 166.66 49.7198 166.02 48.3198C165.38 46.9198 164.92 45.1198 164.14 43.6198C162.9 41.2598 164.38 41.7598 173.96 39.2398C177.96 38.2198 174.82 36.5998 167.48 28.0798C166.985 27.4266 166.268 26.9781 165.464 26.8195C164.66 26.6609 163.826 26.8034 163.12 27.2198C160.64 28.3398 150 32.9998 147.28 34.1998C144.14 35.6598 144.68 35.4798 150.58 41.1198C126 51.4398 123.6 50.5798 124.3 52.4798C124.66 53.4398 125.7 53.4598 126.52 53.2198Z" fill="#FEF0BB"/>
<path d="M228.36 161.44C225.04 148.9 233.56 137.06 227.88 138.22C229.08 138.94 227.88 139.54 227.6 139.92C219.6 149.18 213.48 166.76 223.08 171.18C227.4 173.18 227.72 172.14 226.94 175.76C226.28 178.84 227.7 179.04 230.76 179C233.271 178.746 235.675 177.851 237.74 176.4C241.04 174.4 231.74 174.22 228.36 161.44Z" fill="#FEF0BB"/>
<path d="M249.68 309.3C251.68 309.86 253.68 310.8 255.88 309.82C256.31 309.622 256.777 309.52 257.25 309.52C257.723 309.52 258.19 309.622 258.62 309.82C259.804 309.944 260.925 310.417 261.84 311.18C263.518 310.874 265.046 310.015 266.18 308.74C265.98 308.74 244.96 304.1 224.96 297.36C225.96 300.86 226.96 301.88 226 301.88C233.755 304.774 241.66 307.25 249.68 309.3Z" fill="#FEF0BB"/>
<path d="M255.58 286C253.7 281.78 253.94 281.26 252.64 281.02C243.4 279.3 234.16 277.56 224.86 276.18C224.62 279.22 224.28 279.76 224.48 279.76C226.5 280.2 255.32 286.58 255.58 286Z" fill="#FEF0BB"/>
<path d="M287.68 262.36C287.98 261.48 286.04 258.36 285.12 258.36C278.76 258.18 272.46 257.14 266.1 257.14C262.4 257.14 258.72 256.8 255.04 256.48C255.98 260.26 255.78 260.12 255.98 260.22C286.58 262.24 287.24 263.68 287.68 262.36Z" fill="#FEF0BB"/>
<path d="M280.12 234.42C282.12 234.42 280.12 233.62 278.12 230.98C268.26 230.98 272.6 229.1 267.2 234.5L274.76 234.9C275.88 235 278 234.38 280.12 234.42Z" fill="#FEF0BB"/>
<path d="M258.92 231C259.327 232.152 259.914 233.232 260.66 234.2C265.96 234.46 264.66 235.08 268.66 231.1C269.5 230.12 268.88 230.84 258.92 231Z" fill="#FEF0BB"/>
<path d="M250 230.58C248.7 230.58 248.92 230.04 249.7 233.64C251.04 233.64 257.7 234.02 258.96 234.1C256.78 230.42 258.32 231.04 256.4 230.92C254.48 230.8 252.16 230.66 250 230.58Z" fill="#FEF0BB"/>
<path d="M290 286.4C284.52 285.94 279.12 284.82 273.62 284.56C270.507 284.321 267.418 283.839 264.38 283.12C265.48 285.12 266.38 286.48 267.22 287.92C294.78 290.18 293.22 290.18 293.22 289.26C292 286.58 292.8 286.62 290 286.4Z" fill="#FEF0BB"/>
<path d="M246.34 259.28C247.82 259.58 247.34 258.98 246.9 256.4C246.34 255.74 246.22 256.08 238.16 255.52C222.16 254.42 215.94 250.42 215.2 250.2C215.767 251.761 216.435 253.285 217.2 254.76C222.78 257.38 242.24 258.84 246.34 259.28Z" fill="#FEF0BB"/>
<path d="M242.16 232.74C241.48 230.02 241.62 229.88 240.68 229.78C233.46 229.02 225.1 226.5 223.22 226.36C222.123 227.264 221.081 228.232 220.1 229.26C243.26 233.22 242 233 242.16 232.74Z" fill="#FEF0BB"/>
<path d="M243.62 204.08C243.02 204.62 242.68 202.58 243.92 207.64C245.7 207.64 245.26 207.38 245.5 205.46C245.6 204.6 246.18 203.76 243.62 204.08Z" fill="#FEF0BB"/>
<path d="M319.48 203.88C316.574 202.302 313.583 200.886 310.52 199.64C308.76 198.98 307.1 196.68 305.32 197.82C303.54 198.96 303.08 201.08 301.98 202.76C301.48 203.5 308.1 202.44 306.92 206.34C301.96 202.34 295.74 208.58 293.6 214.34C293.298 215.201 293.23 216.126 293.402 217.022C293.574 217.918 293.981 218.752 294.58 219.44C296.1 221.56 298.58 219.22 299.7 216.86C301.52 213.02 305.88 206.18 310.06 207.14C318.6 209.14 312.64 216.04 312.38 218.66C310.64 236 310.38 228.26 315.22 231.14C322.36 234.32 315.22 236.58 317.52 239.78C319.82 242.98 319.24 246.46 315.52 248.5C312.7 250.04 311.1 249.6 312.12 251.62C315.88 259.12 315.9 267.12 322.84 274C328.6 279.7 325.96 286.14 327.54 288.22C328.274 284.694 328.735 281.117 328.92 277.52C328.76 267.88 324.76 266.46 325.72 253.02C326.38 243 340.14 214.28 319.48 203.88Z" fill="#FFC7D6"/>
<path d="M310.96 209C309.68 208.74 308.16 208.4 307.1 210.24C305 213.92 297.1 220.92 302.62 224.4C303.72 225.08 304.62 223.76 305.34 223.06C308.026 220.412 310.359 217.427 312.28 214.18C313.14 212.78 313.08 209.36 310.96 209Z" fill="#FFC7D6"/>
<path d="M232.4 127.94C230.4 140.24 233.58 139.64 231.08 145.24C226.84 154.72 229.08 163.04 235.76 170.5C238.025 172.737 240.757 174.444 243.76 175.5C251.76 178.88 255.48 178.3 258.58 184.16C259.64 186.16 261.76 189.8 260.94 190.28C260.12 190.76 259.68 189.68 258.78 188.92C258.42 188.64 258.34 187.8 257.64 188.22C256.94 188.64 256.58 188.8 256.48 189.64C255.337 199.387 255.203 209.226 256.08 219C256.4 222.2 268.08 221 271.3 220.76C275.14 220.56 270 215.94 269.3 207.86C268.6 199.78 275.6 198.4 283.04 198.58C281.84 179.96 280.6 171.92 285.04 171.28C293.26 170.06 289.26 183.28 293.9 197.12C296.364 192.218 299.449 187.653 303.08 183.54C301.495 183.417 299.926 183.128 298.4 182.68C292.96 180.5 292.02 175.58 294 170.08C294.28 169.32 295.18 168.7 295.42 167.96C294.86 166.36 284.1 164.26 286.7 152.24C287.28 146.82 289.72 143.72 295.6 135.22C296.26 134.24 296.14 134.86 294.7 133.22C289.14 126.64 290.16 114.62 290.14 114.42C289.74 113.64 281.06 111.1 272.54 102.26C270.994 100.952 269.838 99.2424 269.2 97.3201C268.44 97.2001 268.14 98.0201 266.68 99.7401C267.06 99.4001 267.48 99.0001 267.9 99.4801C268.32 99.9601 267.54 100.42 267.22 100.74C261.22 106.94 253.84 111.42 246.48 115.84C244.04 117.3 243.74 116.94 246.48 117.14C242.07 119.101 238.083 121.899 234.74 125.38C234.48 124.3 234.48 124.3 238.2 120.26C237.04 120.46 236.04 121.08 234.88 121.28C233.698 122.765 232.729 124.407 232 126.16C233.02 126.36 232.5 127.28 232.4 127.94ZM280.88 140.74C275.46 140.74 276.44 132.3 281.32 132.24C282.395 132.271 283.416 132.722 284.163 133.496C284.911 134.269 285.326 135.304 285.32 136.38C285.192 137.506 284.681 138.553 283.873 139.347C283.065 140.141 282.008 140.633 280.88 140.74ZM289.28 125.44C289.1 126.5 287.72 126.66 287.28 127.7C287.28 127.94 286.86 127.58 286.68 127.44C277.4 120.6 269.6 129.78 270.06 124.9C270.34 121.84 270.5 121.64 273.58 120.9C282 118.64 289.56 123.84 289.28 125.44ZM268.92 112.5C274.983 110.708 281.506 111.354 287.1 114.3C287.602 114.515 288.031 114.871 288.333 115.326C288.635 115.781 288.797 116.314 288.8 116.86C278.8 109.58 268.36 114.86 267.92 113.46C267.72 112.76 268.46 112.62 268.92 112.5ZM262 144.68C269.08 144.68 274.66 144.68 273.26 151.62C271.68 159.46 265.9 162.9 263.86 165.62C261.56 168.7 249.18 168.5 244.2 156.76C243.433 154.821 242.857 152.811 242.48 150.76C242.273 150.195 242.297 149.571 242.549 149.024C242.8 148.477 243.257 148.051 243.82 147.84C248.86 145 256 144.64 262 144.68ZM245.4 138.68C248.9 133.24 256.7 128.84 257.24 131.32C257.44 132.3 256.52 131.88 256.06 132.06C252.718 133.474 249.807 135.744 247.62 138.64C247.562 138.733 247.53 138.84 247.53 138.95C247.53 139.06 247.562 139.167 247.62 139.26C247.675 139.357 247.758 139.436 247.857 139.486C247.957 139.536 248.07 139.555 248.18 139.54C251 139.26 253.44 138.1 255.96 137.82C256.104 137.809 256.247 137.846 256.367 137.926C256.486 138.005 256.576 138.123 256.62 138.26C256.655 138.399 256.642 138.545 256.584 138.675C256.526 138.806 256.426 138.913 256.3 138.98C246.6 143.68 243.76 141.12 245.34 138.68H245.4ZM241.04 123.76C241.4 122.86 241.86 121.76 243.04 122.14C244.22 122.52 244.2 123.56 244.08 124.56C244.092 127.016 243.53 129.44 242.44 131.64C240.8 134.28 237.2 133.32 240.98 123.76H241.04ZM239.04 135.26C240.146 135.249 241.212 135.673 242.008 136.439C242.805 137.206 243.269 138.255 243.3 139.36C243.158 140.615 242.586 141.782 241.682 142.664C240.779 143.546 239.598 144.088 238.34 144.2C237.194 144.122 236.118 143.624 235.317 142.801C234.516 141.978 234.047 140.888 234 139.74C234.124 138.511 234.7 137.372 235.617 136.544C236.534 135.717 237.725 135.259 238.96 135.26H239.04Z" fill="#FFC7D6"/>
<path d="M292.94 239.48C286.76 239.86 283.88 234.9 286.84 238.94C288.04 238.7 288.84 241.92 289.7 242.78C291.7 243.8 296.02 240.04 299.46 241.6C299.86 241.74 300.38 242.02 300.76 241.42C303.54 236.9 308.56 239.08 308.04 236.08C307.92 235.4 308.18 235.66 307.14 236.24C306.7 236.48 306.06 237.08 305.56 236.48C304.62 235.26 309.24 235.52 310.06 220.82C306.88 223.52 302.62 231.04 298.8 221.88C298.709 221.567 298.649 221.245 298.62 220.92C297.854 221.295 297.002 221.459 296.151 221.397C295.301 221.335 294.482 221.049 293.778 220.567C293.075 220.085 292.512 219.425 292.147 218.654C291.781 217.884 291.627 217.03 291.7 216.18C291.54 208.8 298.96 204.54 299.32 203.72C305.32 190.26 317.04 184.86 313.76 180.68C311.62 177.94 305.48 183.56 303.18 186.18C297.9 192.18 295.78 199.86 293.56 199.46C291.34 199.06 290.42 190.98 290.18 188.86C288.48 174.64 288.94 172.86 285.66 173.08C283.66 173.08 284.06 174.92 284 176C283.4 188.82 285.34 190.58 284.46 195.64C284.14 197.64 284.2 198.88 286.46 199.84C289.86 201.24 289.78 204.18 286.56 206.06C285.216 206.799 283.834 207.466 282.42 208.06C284.218 208.969 285.676 210.431 286.58 212.232C287.484 214.032 287.785 216.075 287.44 218.06C287.44 218.64 287.44 219.48 286.7 219.46C285.96 219.44 286.28 218.54 286.22 218.02C285.68 213.7 284.22 210.02 279.52 208.78C273.52 207.08 293.1 205.26 285.76 200.88C282.9 199.16 279.88 199.7 276.9 200.4C266.26 202.92 273.02 213.58 277.96 226.4C282.16 237 290.34 236.34 292.94 239.48Z" fill="#FFC7D6"/>
<path d="M254.98 219.46C253.981 209.611 254.102 199.681 255.34 189.86C252.34 191.16 251.04 190.92 250.12 194.16C246.86 205.72 243.64 216.26 254.98 219.46Z" fill="#FFC7D6"/>
<path d="M324.42 294.88C326.42 291 325 289.24 324.86 284.98C324.5 274.3 319.18 276.02 315.1 264.68C310.92 253.02 310.8 245.42 307.8 256.06C306.48 260.72 304.4 261.88 299.8 260.3C297.14 259.36 294.7 257.12 290.02 258.3C289.14 258.52 288.88 258.54 289.16 259.56C291.82 269.56 289.48 278.12 297.52 295.14C299.52 299.58 306.72 303.34 314.24 302.3C317.998 300.37 321.432 297.866 324.42 294.88Z" fill="#FFC7D6"/>
<path d="M60.72 121.88C65.6 122.7 73.02 126.14 74.46 122.1C76.46 116.34 81.16 96.1001 81.64 93.6801C84.64 79.5001 83.98 77.9401 88.96 63.1001C91.32 56.1001 102 15.4201 97.18 10.0001C82.4108 7.32223 67.4993 5.4992 52.52 4.54013C42.16 3.94013 48.72 6.00013 35.7 45.8601C36.6 46.3201 41.28 42.9801 45.7 42.5001C54.84 41.5201 64.4 45.3001 66.12 46.9001C68.56 48.5401 66.98 54.0201 65.84 56.7201C65.04 58.7201 62.72 58.8401 60.84 59.3401C52.84 61.5201 47.2 56.4801 40 61.3401C68.7 59.2401 71.74 58.8401 74 70.2801C75.46 77.4401 67.56 76.1201 38.6 79.4001C33.76 79.9401 30.6 82.8001 27.52 85.7001C27.9117 85.7506 28.3083 85.7506 28.7 85.7001C31.8484 85.2836 35.0284 85.1564 38.2 85.3201C39.8873 85.285 41.546 85.7589 42.96 86.6801C64.3 99.2001 64.2 97.6201 60.96 105.78C60.22 107.78 59.82 109.48 56.96 109.22C45.52 108.18 41.76 103.22 31.92 102.76C42.62 107.34 41.04 108.48 44.22 113.72C46.72 117.86 47.08 118.3 48 118.52C52.46 119.48 56.46 121.18 60.72 121.88ZM64.3 19.3601C50.18 16.8601 49.3 17.0001 47.86 15.5401C45.2 13.4201 46.5 9.54013 48.82 7.28013C50.5 5.64013 51.72 5.86013 65.98 9.00013C69.7 9.84013 70.38 11.5401 70.38 14.3201C70.38 18.1401 68.1 20.0401 64.3 19.3601Z" fill="#FFC7D6"/>
<path d="M209.72 348.08C210.6 338.9 215.06 336.42 214.94 331.18C214.94 329.5 214.66 330.06 213.68 329.3C211.68 327.72 211.68 326.06 213.06 323.76C213.886 322.472 214.889 321.308 216.04 320.3C219.46 317.56 210.28 319.44 211.5 313.26C213.011 306.435 215.23 299.785 218.12 293.42C219.025 292.068 220.108 290.844 221.34 289.78C221.96 286.92 222 276.66 223.12 272.12C223.32 268.32 223.84 267.5 222.04 264.5C215.9 254.34 211.42 249.64 212.04 241.82C211.92 236.32 214.28 233.82 216.7 231.1C219.852 227.581 223.372 224.409 227.2 221.64C231.2 218.84 229.76 218.42 233.76 208.04C235.76 202.72 233.08 202.32 232.98 196.04C232.898 194.941 232.724 193.851 232.46 192.78C232.23 192.117 231.862 191.51 231.38 191C228.941 190.039 226.291 189.743 223.7 190.14C216.7 191.8 213.28 205.3 211.22 212.94C209.54 219.18 209.12 223.9 207.64 253.2C207.14 263.2 209.1 261.2 204.6 272.96C196.6 293.76 187.64 345.9 190.4 348.72C190.552 348.895 190.636 349.119 190.636 349.35C190.636 349.582 190.552 349.806 190.4 349.98C189.24 351.14 189.52 352.7 189.46 353.98C189.14 360.1 188.1 370.58 189.82 376.28C189.418 376.338 189.007 376.304 188.62 376.18C188.76 376.94 189.18 377.32 190.32 377.08C191.91 376.759 193.45 376.228 194.9 375.5C202.08 371.76 209.54 362.38 210.38 360.68C208.982 356.625 208.754 352.259 209.72 348.08Z" fill="#FFC7D6"/>
<path d="M158.38 20.4201C163.567 19.2942 168.694 17.9057 173.74 16.2601C175.115 15.8494 176.336 15.0384 177.248 13.9306C178.16 12.8227 178.721 11.4682 178.86 10.0401C178.86 6.62005 174.86 5.60005 171.98 6.40005C170.92 6.68005 169.72 7.32005 168.82 7.04005C167.92 6.76005 168.62 5.62005 167.56 3.44005C167.358 2.83359 166.996 2.29247 166.514 1.87293C166.031 1.4534 165.445 1.17076 164.816 1.0544C164.187 0.938045 163.539 0.992208 162.938 1.21126C162.338 1.43032 161.806 1.80628 161.4 2.30005C158.62 5.00005 157.78 10.5001 156 17.6601C155.4 19.8401 156.2 21.0001 158.38 20.4201ZM159.38 15.4601C163.38 -0.699949 166.36 3.84005 164.94 9.70005C164.5 11.5201 166 12.6601 167.54 11.4401C169.216 10.0153 171.341 9.22894 173.54 9.22005C174.28 9.22005 175.24 8.96005 175.54 9.92005C176.24 12.1201 172.48 13.7001 170.16 14.2201C159.36 16.6001 158.98 17 159.38 15.4601Z" fill="#FFC7D6"/>
<path d="M143.26 167.72C142.28 167.3 139.42 168.46 135.64 166.78C123.1 161.14 124.2 159.22 116.36 155.52C114.101 154.097 111.508 153.29 108.84 153.18C103.22 153.66 99.8402 153.36 100.48 154.74C101.44 155.6 112.04 166.08 111.04 168.22L110.42 167.62C110.1 167.62 109.86 167.22 109.62 167C99.6202 157.16 98.3802 152.52 102.28 163.9C103.36 167.08 103.42 170.64 105.56 173.48C106.94 175.32 103.3 184.14 102.38 191.26C102.38 192.14 101.38 191.92 101.22 191.38C100.5 191.26 100.8 190.44 100.78 189.94C100.52 181.94 106.16 174.1 103.1 171.06C100.94 169 96.8602 148.7 88.2002 138.52C86.0402 137.14 80.7002 141.12 72.9602 142C75.8402 143.7 76.8202 144.5 76.6402 143.38C76.1802 140.9 77.9602 143.06 82.8802 145.38C83.606 145.714 84.2431 146.214 84.7402 146.84C85.3968 147.448 85.8758 148.224 86.1259 149.083C86.376 149.943 86.3879 150.854 86.1602 151.72C83.9002 170.56 82.3202 185.38 75.4002 203.72C73.6202 208.4 73.0402 204.44 73.8802 202.36C75.0802 199.42 72.9402 199.56 72.1802 199.04C67.8202 196.04 62.8402 194.16 58.1802 191.2C59.2402 196.46 60.3202 201.44 63.5402 205.64C74.4202 219.78 69.4002 221.26 92.2402 203.64C94.2402 202.08 94.9602 204.32 95.5402 206.6C95.5809 206.773 95.5672 206.954 95.5009 207.118C95.4347 207.283 95.3192 207.423 95.1703 207.519C95.0214 207.616 94.8463 207.664 94.669 207.657C94.4918 207.649 94.321 207.588 94.1802 207.48C91.9402 205.7 94.8202 205.88 80.4802 215.62C81.2802 215.98 81.7802 216.58 82.4802 216.92C84.3202 217.82 93.6802 220.08 98.4802 225.3C102.7 229.3 101.14 232.18 103.5 233.88C105.32 235.16 109.5 235.28 111 233.66C128.2 215.06 121 222.4 151.7 184.52C151.828 184.389 151.9 184.213 151.9 184.03C151.9 183.847 151.828 183.671 151.7 183.54C149.48 179.34 145.7 169.52 143.26 167.72ZM126 178.8C123.421 190.813 118.322 202.143 111.04 212.04C104.94 219.92 101.9 217.4 103.66 216.2C115.06 208.78 120.92 187.98 123.88 179.16C125.7 173.82 126.76 175.92 126 178.8Z" fill="#A6EEF8"/>
<path d="M344.92 348.54C344.806 347.527 344.489 346.548 343.987 345.662C343.485 344.775 342.81 343.999 342 343.38C341.5 343.08 314.4 331.38 313.76 331.84C321.56 348.88 322.76 362.96 329.56 368.18C331.78 369.58 335.9 370.36 345.94 372.18C348.08 372.58 349.04 371.58 349.04 369.46C349.04 359.36 346.42 358.2 344.92 348.54Z" fill="#A6EEF8"/>
<path d="M224.82 80.8198C223.329 77.8712 221.006 75.4238 218.14 73.7798C222.32 87.7798 219.1 99.7798 220.14 101.32C222.656 105.088 224.157 109.442 224.5 113.96C227.46 111.96 225.92 109.32 226.96 104.24C228.654 96.3977 227.907 88.225 224.82 80.8198Z" fill="#A6EEF8"/>
<path d="M218.48 99.0998C219.46 92.0356 219.257 84.8575 217.88 77.8598C217.5 75.9998 217.54 73.5798 215.88 72.5598C211.941 70.0634 207.585 68.2953 203.02 67.3398C206.228 72.3125 208.436 77.8626 209.52 83.6798C210.44 88.4798 206.62 82.6198 218.48 99.0998Z" fill="#A6EEF8"/>
<path d="M246.34 225C244.08 215.18 240.56 205.66 239.26 195.6C239.153 194.986 238.92 194.401 238.576 193.881C238.232 193.361 237.784 192.918 237.26 192.58C235.78 192.24 234.58 191.66 234.08 192.98C236.4 200.18 229.76 176.04 240.68 224.06C242.32 231.26 244.68 238.3 245.98 245.58C253.4 285.58 262.52 295.32 273.22 306.12C274.52 307.08 275.42 302.56 274.9 301.96C252.24 274.26 255.58 265 246.34 225Z" fill="#A6EEF8"/>
<path d="M247.36 46.02C250.32 47.04 250.96 46.86 251.88 43.88C258.66 21.88 258.84 21.08 257.88 17.1C258.4 15.1 257.2 15.1 243.36 8.17999C243.099 8.01203 242.801 7.90732 242.492 7.87419C242.183 7.84106 241.871 7.8804 241.58 7.98911C241.289 8.09782 241.027 8.27289 240.815 8.50044C240.603 8.72798 240.448 9.00174 240.36 9.29999C237.6 15.44 240.7 15.3 228.36 12.2C224 11 224.66 15 218.98 32.48C217.38 37.46 216 35.32 247.36 46.02ZM242.88 12.74C243.2 11.26 243.38 11.82 253.52 16.88C254.7 17.46 254.26 18.64 253.36 18.54C239.72 15 242 16.58 242.88 12.74ZM250.24 25C250.08 26.68 247.6 26 247.6 24.54C247.6 23.08 250.14 23.3 250.24 25ZM222 32.76C227.08 14.54 226.18 15.12 228 15.64L249.02 21.48C245.42 23.32 244.68 24.5 245.7 26.46C247.7 30.22 254.34 28.2 250.98 22.28C251.92 21.86 252.7 22.56 253.54 22.64C254.38 22.72 254.24 23.4 254.06 24.04C248.4 42.56 249.06 42.98 246.88 42.28C220.6 33.58 221.44 34.5 222 32.76Z" fill="#A6EEF8"/>
<path d="M201.7 54.8398C201.961 55.277 202.355 55.6191 202.825 55.8159C203.294 56.0126 203.815 56.0535 204.309 55.9326C204.804 55.8118 205.246 55.5355 205.572 55.1444C205.898 54.7533 206.09 54.268 206.12 53.7598C207.38 47.1998 206.4 48.6798 215.5 48.5598C218.64 48.5598 219.92 45.0598 216.3 43.6598C209.92 41.2398 208.94 41.3198 209.56 39.5198C210.18 37.7198 208.78 35.3398 205.9 36.6798C203.34 37.8798 202.56 38.5598 200.06 37.4398C193.88 34.6798 192.94 34.5198 191.84 35.8398C189.72 38.3598 195.42 41.4198 192.5 42.6198C190.508 43.691 188.328 44.3699 186.08 44.6198C184.8 44.6198 183.6 44.8398 183.6 46.3998C183.6 47.9598 184.84 48.4998 186.18 48.5198C200.72 49.1598 195.62 45.9598 201.7 54.8398Z" fill="#A6EEF8"/>
<path d="M213.58 190.62C210.12 188.32 205.4 186.62 203.02 183.48C202.46 182.76 202.78 182.94 196.62 189.9C195.72 190.94 196.08 190.4 202.22 197.24C204.06 199.24 208.6 204.44 210.68 206.32C215.06 191.98 218.14 193.58 213.58 190.62Z" fill="#A6EEF8"/>
<path d="M327.44 313.76C339.62 339.22 334.86 339.42 338.92 339.76C339.56 339.76 340.06 339.98 339.8 338.82C336.46 323.66 329.58 313.04 325.66 304.82C324.966 303.085 324.179 301.39 323.3 299.74C320.96 302.38 319.66 297.44 327.44 313.76Z" fill="#A6EEF8"/>
<path d="M323.22 363.64C317 351.64 316.14 334.2 309.9 329.64C310.44 332.96 310.82 335.78 311.42 338.56C312.1 341.72 317.08 356.24 317.22 356.4C318.295 356.721 319.209 357.435 319.78 358.4C322.8 361.72 320.64 362.4 320.2 361.5C319.73 360.359 319.051 359.315 318.2 358.42C316.56 357.26 315.9 358.9 315.16 359.78C314.1 361.04 315.68 360.38 321.04 363.5C322.04 364.08 323.22 365.66 324.38 366.08C324.24 365.68 324.24 365.9 323.22 363.64Z" fill="#A6EEF8"/>
<path d="M315.3 355C310.38 340.26 310.2 344.54 308.06 328.7C307.9 327.4 306.9 326.44 306.06 326.46C304.58 326.46 305.14 327.98 305.22 328.94C306.04 337.26 309.12 351.96 313.22 358.66C314.48 358.72 315.7 356.28 315.3 355Z" fill="#A6EEF8"/>
<path d="M204.4 125.68C196.86 125.56 197.12 137.56 204.28 137.68C212 137.78 210.72 125.78 204.4 125.68Z" fill="#A6EEF8"/>
<path d="M155.78 117.44C152.22 114.76 146.88 118.88 148.96 125.58C149.141 126.207 149.462 126.785 149.899 127.27C150.335 127.755 150.876 128.136 151.48 128.382C152.084 128.628 152.737 128.735 153.388 128.693C154.039 128.651 154.673 128.462 155.24 128.14C159.66 125.94 160 120.54 155.78 117.44Z" fill="#A6EEF8"/>
<path d="M287.52 311.98C286.76 311.06 287.06 311.42 286.16 312.7C284.42 315.18 285.8 316.24 286.5 317.36C291 322.36 289.72 330.12 290.5 331.36C291.96 332.38 294.5 329.56 294.28 328.02C293.69 322.115 291.335 316.526 287.52 311.98Z" fill="#A6EEF8"/>
<path d="M267.16 365.16C267.182 365.858 267.431 366.531 267.869 367.076C268.307 367.62 268.91 368.008 269.588 368.179C270.265 368.351 270.98 368.297 271.624 368.027C272.269 367.756 272.808 367.284 273.16 366.68C271.16 364.96 269.16 363.2 267.16 361.44C267.09 362.679 267.09 363.921 267.16 365.16Z" fill="#A6EEF8"/>
<path d="M268.66 355.28C266.94 356 267.08 357.62 267.08 359.5C268.82 361.14 267.08 359.66 273.6 365.26C274.76 358.16 270.88 354.38 268.66 355.28Z" fill="#A6EEF8"/>
<path d="M267.46 337.76C267.477 336.839 267.137 335.948 266.51 335.273C265.884 334.598 265.02 334.192 264.1 334.14C263.274 334.169 262.489 334.504 261.897 335.081C261.305 335.658 260.95 336.435 260.9 337.26C260.839 339.595 261.081 341.928 261.62 344.2C261.738 344.888 262.12 345.502 262.684 345.913C263.248 346.324 263.95 346.499 264.64 346.4C268.32 346.04 267.48 341.74 267.46 337.76Z" fill="#A6EEF8"/>
<path d="M319.52 328.38C322.14 327.78 321 324.38 320.8 321.34C320.26 319.74 319.84 319.18 320.62 318.86C320.621 318.311 320.54 317.765 320.38 317.24C319.52 319.24 318.52 321.52 319.28 322.92C320.58 325.44 315.9 324.4 317.28 319.8C317.732 318.334 318.307 316.909 319 315.54C314.72 313.88 314.66 322.22 315.62 326.38C315.948 327.105 316.513 327.698 317.221 328.061C317.929 328.424 318.74 328.537 319.52 328.38Z" fill="#A6EEF8"/>
<path d="M228.68 322.58C227.92 318.58 222.92 318.9 222.42 321.56C221.42 326.68 223.92 333.38 227.14 330.42C227.831 329.717 228.339 328.855 228.618 327.91C228.897 326.965 228.939 325.965 228.74 325C228.787 324.193 228.767 323.383 228.68 322.58Z" fill="#A6EEF8"/>
<path d="M234.34 317.18C236.68 317.82 239.02 318.5 241.32 319.18C241.186 318.244 240.999 317.315 240.76 316.4C240.61 315.59 240.156 314.867 239.492 314.38C238.827 313.892 238.002 313.676 237.184 313.776C236.366 313.875 235.617 314.282 235.088 314.915C234.56 315.547 234.293 316.357 234.34 317.18Z" fill="#A6EEF8"/>
<path d="M241.26 321C239 320.3 236.72 319.6 234.44 319C235.42 326.44 240.78 325.1 241.26 321Z" fill="#A6EEF8"/>
<path d="M284.18 356.48C285.46 356.06 286.04 354.96 286.18 353.22C285.46 351.38 284.78 349.22 283.74 347.08C283.398 346.548 282.888 346.145 282.291 345.936C281.693 345.726 281.043 345.723 280.444 345.925C279.844 346.127 279.329 346.524 278.981 347.052C278.632 347.58 278.47 348.209 278.52 348.84C279.02 352.64 280.54 357.72 284.18 356.48Z" fill="#A6EEF8"/>
<path d="M265.52 315.94C264.938 315.675 264.399 315.324 263.92 314.9C263.316 314.967 262.739 315.185 262.243 315.535C261.746 315.884 261.346 316.354 261.08 316.9L267.08 321.82C267.24 319.74 266.69 317.667 265.52 315.94Z" fill="#A6EEF8"/>
<path d="M266.88 322.82C264.433 321.671 262.319 319.915 260.74 317.72C260.466 318.675 260.404 319.679 260.56 320.66C260.481 321.371 260.481 322.089 260.56 322.8C260.558 323.638 260.888 324.443 261.479 325.038C262.07 325.632 262.872 325.968 263.71 325.97C264.548 325.973 265.353 325.642 265.948 325.052C266.542 324.461 266.878 323.658 266.88 322.82Z" fill="#A6EEF8"/>
<path d="M305.5 319.42C306.303 319.285 307.031 318.865 307.549 318.237C308.067 317.608 308.341 316.814 308.32 316C308.08 311.44 307.74 307.86 304.7 308.22C301.66 308.58 302.22 311.04 302.22 313.46C302.22 314.38 302.22 315.28 302.22 316.18C302.269 317.03 302.631 317.832 303.237 318.431C303.843 319.029 304.649 319.382 305.5 319.42Z" fill="#A6EEF8"/>
<path d="M282.48 370.02C282.081 370.068 281.703 370.229 281.391 370.484C281.079 370.739 280.847 371.077 280.72 371.46C281.4 372.08 282.92 373.02 282.1 373.86C281.28 374.7 280.9 373.86 280.4 373.34C280.29 374.678 280.371 376.025 280.64 377.34C282.604 377.942 284.609 378.396 286.64 378.7C286.74 378.4 286.82 378.06 286.9 377.72C286.26 374.6 285.64 369.62 282.48 370.02Z" fill="#A6EEF8"/>
<path d="M223.36 312.52C222.8 309.14 222.86 305.9 219.48 306.36C216.1 306.82 217.02 311.18 218.06 314.78C218.72 317.18 223.28 317.42 223.36 312.52Z" fill="#A6EEF8"/>
<path d="M293.8 317.5C294.329 320.786 295.549 323.921 297.38 326.7C302.12 330.48 301.76 330.46 302.24 327.52C302.78 324 304.32 326.58 293.8 317.5Z" fill="#A6EEF8"/>
<path d="M282.92 320.02C282.789 319.407 282.431 318.867 281.918 318.507C281.405 318.148 280.775 317.996 280.154 318.082C279.533 318.168 278.968 318.486 278.572 318.971C278.176 319.457 277.979 320.075 278.02 320.7C277.978 321.696 278.024 322.693 278.16 323.68C279.82 323.84 281.5 324.06 283.14 324.36C283.638 322.941 283.559 321.382 282.92 320.02Z" fill="#A6EEF8"/>
<path d="M234 35.8401C236.319 35.8353 238.544 34.9215 240.197 33.2949C241.849 31.6684 242.799 29.4587 242.84 27.1401C242.747 25.0163 241.826 23.0134 240.275 21.5595C238.724 20.1057 236.666 19.3163 234.54 19.3601C224 19.4801 222.6 35.8401 234 35.8401ZM235.26 22.6001C236.5 22.7258 237.645 23.3149 238.469 24.2494C239.292 25.184 239.732 26.395 239.7 27.6401C239.642 29.1389 239.025 30.5616 237.97 31.6278C236.915 32.6939 235.499 33.3263 234 33.4001C232.751 33.3594 231.565 32.8409 230.687 31.9515C229.809 31.0622 229.305 29.8698 229.28 28.6201C229.34 27.0425 229.993 25.5456 231.109 24.4292C232.226 23.3129 233.723 22.6595 235.3 22.6001H235.26Z" fill="#A6EEF8"/>
<path d="M347.04 345.7C346.981 345.174 346.803 344.668 346.518 344.221C346.234 343.773 345.852 343.397 345.4 343.12C341.92 341.76 342.4 339.12 340.62 333.22C335.34 315.4 323.88 299.22 324.94 298.02C327.36 295.06 327.64 291.04 329.78 288.02C330.082 287.441 330.272 286.81 330.34 286.16C334.16 267.22 324.34 265.54 329.38 245C333.58 227.84 335.84 209.84 319.48 201.74C307.8 195.94 305.48 196.68 307.7 194.44C317.46 184.18 318.08 183.12 314.7 178.9C313.22 177.38 311.64 177.82 309.84 178.58C305.06 180.58 304.7 183.54 300.1 181.66C295.5 179.78 293.46 176.68 296.54 170.5C299.92 163.7 286.66 166.24 288.44 153.72C290.22 141.2 310.32 123.14 308 121.4C307.02 120.68 306.86 122.86 298.4 132.32C296.86 134.06 296.86 134.04 295.56 132.02C292.4 127.04 291.56 120.88 291.12 114.6C296.94 116.76 305.8 119.32 311.26 118.6C311.74 118.6 312.44 118.6 312.36 117.82C312.28 117.04 311.66 117.38 311.26 117.38C296.56 117.38 277.54 107.38 271.44 99.1603C265.92 91.6803 269.44 104.5 289.04 113.7C289.64 113.98 290.36 113.96 290.22 115.06C289.54 120.86 291.12 130.12 296 134.5C296.92 135.32 288.68 142.66 286.68 152.2C284.12 164.2 294.82 166.2 295.4 167.92C295.72 168.86 294.5 170.16 293.64 172.98C293.29 173.924 293.136 174.929 293.187 175.935C293.238 176.94 293.493 177.924 293.936 178.828C294.379 179.732 295.002 180.536 295.766 181.191C296.53 181.846 297.419 182.339 298.38 182.64C299.901 183.108 301.472 183.396 303.06 183.5C299.44 187.629 296.355 192.199 293.88 197.1C289.24 183.22 293.28 170.04 285.02 171.24C282.88 171.56 282.5 173.1 282.28 174.9C281.68 179.74 281.86 178.9 283.1 198.56C275.58 198.36 268.66 199.88 269.36 207.84C270.06 215.8 275.2 220.54 271.36 220.74C267.84 220.92 256.44 222.12 256.14 218.96C255.263 209.193 255.397 199.36 256.54 189.62C256.588 189.301 256.722 189.001 256.926 188.752C257.13 188.502 257.397 188.311 257.7 188.2C258.4 187.78 258.5 188.62 258.84 188.9C259.78 189.68 260.3 190.68 261 190.26C261.7 189.84 259.64 186.02 258.64 184.14C255.52 178.26 252.08 178.92 243.82 175.46C240.81 174.42 238.074 172.71 235.82 170.46C229.1 163.02 226.9 154.7 231.14 145.2C233.7 139.5 230.34 140.2 232.46 127.92C232.46 127.56 233.1 126.08 232.1 126.08C230.44 125.7 229.62 133.3 229.56 135.14C228.58 134.62 228.48 133.7 228.26 132.96C225.9 125.58 227.88 118.78 231.16 112.2C231.415 111.518 231.875 110.93 232.476 110.519C233.078 110.107 233.791 109.891 234.52 109.9C234.84 109.9 235.28 109.78 235.04 109.38C234.5 108.44 235.32 107.9 235.64 107.38C247.22 85.8003 284.24 77.9603 300.94 92.3003C306.008 96.4009 310.296 101.38 313.6 107C309.92 104.64 308.9 102.4 308.26 103C308.139 103.16 308.086 103.361 308.112 103.559C308.138 103.758 308.242 103.938 308.4 104.06C309.44 105.1 311.36 107.08 313.2 108.58C313.419 108.755 313.687 108.86 313.966 108.879C314.246 108.898 314.525 108.832 314.767 108.688C315.008 108.545 315.199 108.331 315.316 108.076C315.433 107.821 315.469 107.537 315.42 107.26C315.254 105.977 314.818 104.743 314.14 103.64C302.7 86.2203 288.7 81.7603 269.08 84.2003C255.78 85.8803 237.64 95.2203 233.58 108.04C233.16 109.34 230.8 108.38 228.38 113.44C225.32 119.86 223.16 130.28 228.14 135.8C232.76 140.9 227.3 144.1 227.6 154.9C227.98 169.12 236.58 176.3 250.14 180.12C252.716 180.858 254.921 182.535 256.32 184.82C257.46 186.54 257.02 187.12 255.38 187.84C235.16 196.54 227.08 181.4 218.04 191.6C216.86 192.94 218.04 190.24 211.5 186.9C203.26 182.78 203.1 176.48 192.68 175.84C192.26 175.84 191.74 175.84 191.68 175.22C192.066 173.368 193.033 171.686 194.44 170.42C217.7 158.42 215.1 137 220.9 130.42C222.339 128.792 223.436 126.89 224.123 124.828C224.81 122.766 225.074 120.587 224.9 118.42C224.821 117.891 224.879 117.351 225.068 116.85C225.257 116.349 225.571 115.906 225.98 115.56C227.1 114.703 227.926 113.519 228.345 112.172C228.764 110.825 228.755 109.382 228.32 108.04C227.7 106.04 230.04 99.1603 228.48 86.1403C228.236 83.047 227.214 80.0658 225.507 77.4744C223.8 74.883 221.465 72.7659 218.72 71.3203C214.279 68.7539 209.479 66.8663 204.48 65.7203C198.48 64.5003 200.62 63.0203 194.98 60.8003C182.86 56.0203 161.54 57.3203 159.26 69.0403C156.98 69.2403 157 67.9203 156.28 61.6403C156.1 60.0803 155 60.3203 154.52 61.0403C149.64 68.4803 150.1 77.7403 149.9 77.6403C146.7 75.0003 145.12 69.0003 143.14 73.2003C141.52 76.6803 142.02 82.3203 142.84 85.7403C140.772 83.9332 139.33 81.5177 138.72 78.8403C138.56 78.2603 138.84 77.3603 137.9 77.3403C136.96 77.3203 136.92 78.3203 136.82 78.9403C136.167 82.3868 135.892 85.8942 136 89.4003C136.197 92.3884 137.283 95.2494 139.119 97.6157C140.954 99.982 143.455 101.746 146.3 102.68C147.52 103 148.8 103.1 150.3 103.34C148.01 107.704 146.372 112.381 145.44 117.22C142.14 115 140.6 115.22 138.08 118.3C135.56 121.38 135.84 124.46 136.08 127.76C136.119 129.853 136.704 131.898 137.777 133.695C138.851 135.491 140.376 136.975 142.2 138C145.14 139.6 139.52 148.9 153.44 160.96C157.936 164.483 162.674 167.684 167.62 170.54C176.28 176.1 181.8 174.12 191.22 172.02C190.08 174.82 185.82 184.14 187.08 184.64C187.92 184.98 188.2 183.96 188.46 183.36C190.98 177.54 190.64 176.88 191.5 177.14C193.652 177.557 195.747 178.229 197.74 179.14C191.08 180 182.42 205.14 169.04 192.7C161.2 185.071 155.498 175.521 152.5 165C152.28 164.22 151.88 162.86 150.7 162.72C149.63 162.536 148.535 162.567 147.477 162.811C146.42 163.055 145.421 163.507 144.54 164.14C139.28 168.14 130.1 163.06 124.92 158.98C117.12 152.84 112 149.54 104.1 150.98C101.8 151.42 99.64 151.74 99.14 154.98C97.14 149.62 91.96 134.54 86.02 136.56C64.02 144.04 71.66 139.86 44.88 124.56C44.56 124.38 44.16 124.24 44.18 123.74C45.3981 122.259 47.1229 121.282 49.02 121C74.28 129.22 75.7 129.48 77.66 122.32C79.22 116.64 102.42 23.1803 102.34 14.1003C102.34 11.2003 100.52 8.36029 98.34 8.10029C93.34 7.30029 88.34 6.30029 83.34 5.82029C50 2.58029 46.12 0.320291 43.82 6.84029C41.38 13.7203 43.82 11.0003 33.92 44.6403C31.92 51.7003 30.96 44.9203 7.69998 66.2803C2.37998 71.1803 -0.62002 76.6203 0.31998 84.2803C3.27998 107.78 6.15998 109.56 3.85998 115.5C3.42107 116.514 3.26012 117.627 3.39369 118.723C3.52726 119.82 3.95054 120.861 4.61998 121.74C27.28 154.02 32.74 169.34 53.56 187.16C59.42 192.2 55.56 198.78 61.56 205.62C69.7 214.8 68.32 220.24 75.08 219.32C77.2967 218.804 79.5923 218.723 81.84 219.08C87.3544 220.421 92.4997 222.976 96.9 226.56C101.04 230.16 100.46 230.98 100.52 234.74C100.96 266.74 96.66 267.62 95.52 288.92C94.3 311.86 100.02 317.96 99.1 322.34C98.28 326.22 103.74 328.84 102.94 330.22C100.78 333.94 100.28 338.22 99.38 342.22C97.2 351.9 102.68 348.36 101.84 355.92C101.6 357.92 101.48 367.34 103.84 366.68C104.8 366.42 104.22 365.5 104.16 364.86C103.686 361.254 103.512 357.615 103.64 353.98C109.197 355.752 114.521 358.182 119.5 361.22C132.3 370.14 147.34 362.56 152.68 361.22C164.68 358.48 176.52 355.56 188.3 351.76C187.74 355.48 185.84 374.74 188.8 376.04C189.195 376.13 189.605 376.13 190 376.04C188.28 370.46 189.32 359.7 189.64 353.74C189.64 352.42 189.42 350.88 190.58 349.74C190.736 349.568 190.822 349.343 190.822 349.11C190.822 348.878 190.736 348.653 190.58 348.48C187.92 345.8 196.82 293.7 204.8 272.74C209.34 260.74 207.32 262.74 207.82 252.96C209.26 225.74 209.58 219.56 211.42 212.72C217.12 191.54 220.94 187.4 231.92 190.88C232.54 191.06 232.34 190.88 233.14 195.28C235.62 208.66 236.06 201.98 233.14 209.66C231.48 214.16 231.78 214.98 230.82 217.16C228.22 223.16 203.9 233.64 214.82 252.44C226.56 272.8 222.82 262.28 223.24 274.74C223.36 279.44 221.6 283.98 222 288.74C222 289.6 219.02 291.52 218.26 293.3C215.378 299.669 213.16 306.317 211.64 313.14C210.48 318.92 218.64 317.68 216.6 319.78C214.874 321.172 213.503 322.955 212.6 324.98C212.21 325.701 212.116 326.546 212.341 327.335C212.565 328.123 213.089 328.793 213.8 329.2C214.5 329.72 215.8 329.9 215.32 331.38C215.02 332.34 215.54 333.38 215 334.4C213.008 338.546 211.355 342.847 210.06 347.26C208.854 351.65 209.05 356.307 210.62 360.58C212.62 357.18 210 354.32 211.74 348.78C218.02 328.78 213.56 339.08 223.1 336.14C217.1 353.8 217.74 376.14 220.3 375.76C221.06 375.76 220.8 374.56 220.8 373.88C220.94 366.76 218.8 363.12 222.1 361.64C228.979 358.356 235.143 353.748 240.24 348.08C240.92 347.32 243.54 344.66 244.66 343.22C247.962 345.037 251.671 345.987 255.44 345.98C256.44 345.98 256.44 346.66 256.52 347.22C256.715 349.391 257.411 351.487 258.553 353.344C259.694 355.2 261.251 356.767 263.1 357.92C265.92 359.74 260.8 367.32 262.48 370.76C262.531 370.86 262.614 370.94 262.715 370.987C262.817 371.034 262.931 371.046 263.04 371.02C263.153 370.994 263.254 370.93 263.326 370.839C263.399 370.749 263.439 370.636 263.44 370.52C263.44 366.78 265.64 363.62 265.3 359.66C282.26 373.66 281.06 374.92 282.22 373.66C283.38 372.4 279.28 370.9 267.22 359.28C264.26 356.44 259.22 355.28 258.26 349.42C257.16 342.74 258.26 336.1 258.84 329.42C258.84 328.74 258.84 327.72 259.9 327.54C261.36 327.3 262.6 333.94 267.46 329.44C269.18 327.86 271.34 326.32 272.98 327.98C281.54 336.76 285.56 339.98 288.98 346.98C291.963 352.359 294.261 358.091 295.82 364.04C295.96 364.72 296.34 364.88 296.94 364.5C297.6 363.18 295.48 361.88 302.26 357.64C305.1 355.64 305.24 354.96 303.06 352.24C300.62 349.18 299.06 345.62 296.48 342.42C299.527 342.116 302.435 340.997 304.9 339.18C310.62 355.48 311.76 361.64 315.6 362.98C319.44 364.32 322.72 368.28 327.34 368.68C329.354 369.986 331.602 370.889 333.96 371.34C346.26 373.64 345.64 375.06 349.48 374.24C350.169 374.147 350.8 373.805 351.253 373.278C351.707 372.751 351.951 372.076 351.94 371.38C352 359.68 349.72 358.08 347.04 345.7ZM224.82 80.8203C227.85 88.2425 228.548 96.4117 226.82 104.24C225.6 110.46 227.54 110.24 224.4 114.58C224.171 109.842 222.649 105.256 220 101.32C219 99.8003 222.22 87.7203 218 73.7803C220.914 75.4084 223.285 77.8563 224.82 80.8203ZM216 72.5603C217.6 73.6003 217.56 76.0003 218 77.8603C219.384 84.8568 219.593 92.0349 218.62 99.1003C206.74 82.6603 210.62 88.3003 209.7 83.6803C208.632 77.8426 206.416 72.275 203.18 67.3003C207.717 68.3249 212.051 70.1029 216 72.5603ZM162.36 66.4603C168.36 58.8603 181.74 58.3403 191.54 61.6603C200.86 64.8203 205.42 74.7403 207.38 84.4203C204.213 82.1349 200.556 80.6213 196.7 80.0003C168.7 76.9803 169.38 81.8803 167.1 79.4603C165.34 77.6203 163.54 75.8603 161.88 73.9403C161.175 72.7974 160.843 71.4638 160.929 70.1238C161.015 68.7839 161.515 67.5037 162.36 66.4603ZM142.82 117.92C147.02 120.46 142.58 122.22 142.82 137C133.54 129.1 139.24 115.76 142.82 117.92ZM176.82 171.92C174.763 171.576 172.805 170.792 171.08 169.62C161.08 164.2 153.68 160.06 147.34 152.32C141 144.58 147.06 117.24 149.62 107.52C150.04 105.96 151.4 104.72 151 102.82C150.76 101.58 149.64 102.32 146.2 101.12C143.674 100.069 141.505 98.3117 139.951 96.0594C138.398 93.8072 137.526 91.155 137.44 88.4203C137.411 86.404 137.612 84.3909 138.04 82.4203C139.14 84.4203 142.34 89.6003 144.34 88.5403C146.34 87.4803 143.2 83.6803 143.66 77.6803C143.757 76.3805 144.061 75.1045 144.56 73.9003C147 76.8603 148.56 80.6803 153.3 80.9403C150.92 79.8803 151.3 77.8403 151.48 75.9803C151.831 71.7302 152.999 67.5877 154.92 63.7803C155.96 68.7403 155.72 69.0803 158.3 72.2403C162.3 77.2603 165.84 85.4803 177.88 86.2403C179.689 86.6542 181.574 86.6061 183.36 86.1003C179.12 84.1003 174.24 84.3603 169.9 81.8203C173.7 80.4403 190.32 80.7803 196.82 82.0203C206.98 84.0203 207.32 89.2003 217.16 101.52C221.28 107.095 223.312 113.94 222.9 120.86C222.588 123.826 221.596 126.68 220 129.2C220.86 125.2 219.42 121.44 219.84 117.6C219.84 117.04 219.84 116.26 219.08 116.32C218.32 116.38 218.72 117.16 218.64 117.6C217.58 124.2 221.46 120.22 212.94 146.14C211.941 149.274 210.759 152.346 209.4 155.34C202.3 162.44 194.6 173.14 176.86 171.94L176.82 171.92ZM146.14 165.92C146.66 165.72 149.82 163.14 150.88 166.7C154.12 177.48 163.04 194.38 172.38 197.42C181.72 200.46 188.38 191.24 197.46 180.32C198.7 178.84 199.2 179.78 201.9 182.32C193.9 188.92 177.48 216.78 163.9 200.06C153.64 187.5 150.62 176.28 147.9 171.68C145.62 167.8 143.54 167 146.18 166L146.14 165.92ZM35.7 45.8603C48.84 6.06029 42 3.96029 52.54 4.56029C67.5542 5.57093 82.5028 7.3936 97.32 10.0203C101.74 10.7803 100.24 18.0203 99.32 22.3803C92.52 57.7403 90.46 53.3603 82.56 91.4203C80.56 101.14 78.18 110.78 75.66 120.4C74.66 124.4 72.84 125.28 68.86 124.26C52 119.88 48.48 119.44 47.3 118.04C43.3 113.4 43.02 108.18 38.62 106.04C29.9 102.04 31.34 102.64 32.18 102.68C42.02 103.26 45.86 108.12 57.24 109.16C60 109.4 60.42 107.56 61.24 105.72C63.66 99.4803 63.64 98.9803 57.86 95.4003C42.78 86.0803 41.38 85.6203 38.64 85.6603C38.44 85.6603 27.52 85.8203 27.72 85.6603C34.98 78.7003 34.12 79.5003 65.3 76.6403C67.5025 76.5019 69.6693 76.0159 71.72 75.2003C72.1985 75.0839 72.6478 74.87 73.0399 74.572C73.432 74.274 73.7583 73.8983 73.9986 73.4685C74.2389 73.0386 74.3879 72.5638 74.4363 72.0737C74.4847 71.5836 74.4315 71.0889 74.28 70.6203C72.76 62.0803 70.28 60.6203 62.66 60.6203C47.56 60.4803 42.36 62.1803 39.46 61.7403C47.04 56.1803 52.7 61.5003 60.88 59.3003C62.76 58.8003 65.1 58.5803 65.88 56.6803C67 53.9803 68.6 48.5003 66.16 46.8603C59.6344 43.2464 52.0749 41.956 44.72 43.2003C41.583 44.1023 38.5205 45.2458 35.56 46.6203C35.52 46.4003 35.62 46.1403 35.7 45.8603ZM27.22 151.58C17.84 136.02 20.7 142.56 6.01998 120.08C5.6323 119.559 5.38155 118.95 5.2907 118.307C5.19985 117.664 5.27181 117.008 5.49998 116.4C8.31998 108.64 3.49998 104.9 2.03998 81.8603C1.98123 79.8354 2.32783 77.8192 3.05939 75.9302C3.79096 74.0412 4.89274 72.3174 6.29998 70.8603C19.26 55.9203 32.84 50.3003 38.74 46.8603C46.3 42.3603 55.94 44.6403 64.22 47.7803C64.8563 47.9356 65.4249 48.2936 65.84 48.8003C67.1 50.8003 65 56.5203 62.74 57.2403C53.82 60.0603 44.74 54.3803 36.08 62.1003C35.3312 62.7369 34.3828 63.0908 33.4 63.1003C29.983 63.488 26.6253 64.2872 23.4 65.4803C22.8 65.6403 22.18 65.8603 22.36 66.6203C22.74 68.4403 26.24 64.9203 42.36 63.6603C49.7968 62.9337 57.2686 62.6266 64.74 62.7403C65.8946 62.8138 67.021 63.129 68.046 63.6655C69.0711 64.2021 69.972 64.948 70.6904 65.8549C71.4087 66.7618 71.9286 67.8096 72.2162 68.9302C72.5038 70.0509 72.5528 71.2195 72.36 72.3603C71.94 74.6403 64.92 75.3403 61.7 75.6803C45.92 77.3003 34.58 75.9003 30.4 80.9803C26.62 85.6003 21.94 86.1803 22.4 87.4803C22.58 88.0603 23.16 88.1203 23.7 88.0603C28.42 87.4603 33.18 88.0603 37.92 87.4403C39.8067 87.2304 41.7065 87.6983 43.28 88.7603C64.56 101.98 61.78 97.4003 59.08 105.96C58.34 108.32 58.14 108.44 55.64 107.96C44.66 105.72 47.64 103.62 29.64 100.28C28.44 100.06 27.44 101.06 26.22 100.7C25.96 100.7 25.8 100.96 25.8 101.22C25.8 101.82 26.28 101.92 26.66 102.14C35.82 107.48 39.76 106.3 41.48 111.38C43.86 118.42 48.2 119.62 44.8 121.14C42.3 122.24 41.4 125.58 38.8 122.56C32 114.8 32 114.32 30.36 115.62C28.4361 116.463 26.4234 117.087 24.36 117.48C21.5 118.38 20.8 119.64 24.64 119.24C27.06 118.96 29.22 117.76 30.82 117.66C31.5 117.66 31.94 117.42 32.42 118.04C34 120.04 38.6 125.8 41.16 125.32C43.72 124.84 54.98 135.32 66.2 141.32C86.2 152.12 84.2 150.62 83.82 154.44C81.54 173.4 79.94 184.44 75.32 199.34C70.5 194.32 66.24 195.72 59.48 189.74C46.837 178.746 35.9569 165.876 27.22 151.58ZM96.92 223.96C89.86 218.68 84.32 218.72 81.46 216.52C80.6 215.86 80.16 217.44 79.3 216.52C88.56 210.52 92.48 206.24 93.3 206.7C93.68 206.9 94.08 207.72 94.84 208.36C94.9615 208.463 95.1135 208.523 95.2725 208.53C95.4314 208.537 95.5882 208.491 95.7184 208.4C95.8486 208.308 95.9449 208.177 95.9923 208.025C96.0396 207.873 96.0353 207.709 95.98 207.56C95.7 206.78 95.38 206 95.26 205.56C94.76 203.9 94.14 202.9 92.56 204.12C76.34 216.54 74.1 219.8 70.36 214.92C61.02 202.7 60.36 201.96 58.18 191.26C62.82 194.24 67.8 196.12 72.18 199.12C72.6486 199.377 73.1452 199.578 73.66 199.72C74.6 200.04 74.88 200.54 74.84 201.14C74.84 202.18 73.86 203.56 73.84 204.88C73.8421 204.996 73.8797 205.107 73.9477 205.2C74.0158 205.293 74.1108 205.363 74.22 205.4C74.3325 205.43 74.4517 205.423 74.5598 205.38C74.668 205.337 74.7592 205.26 74.82 205.16C77.46 200.68 82.5 181.16 84.38 166.08C85.3 158.8 86.06 154.5 86.2 151.74C86.32 149.44 86.56 147.74 85.56 146.6C83.5264 145.02 81.3187 143.678 78.98 142.6C77.78 141.92 77.1 143 78.28 143.8C80.2919 144.916 82.2055 146.201 84 147.64C84.56 148.34 84.16 149.12 84 150.08C80.1704 146.96 76.0047 144.277 71.58 142.08C79.26 141.38 86.14 137.12 88.32 138.52C94.58 142.52 102.6 170.24 103.14 170.96C106.9 174.72 101.48 180.46 101.24 189.78C101.191 190.312 101.191 190.848 101.24 191.38C101.42 191.9 102.28 192.14 102.4 191.26C103.46 183.68 106.98 175.26 105.58 173.46C103.42 170.64 103.4 167.08 102.3 163.88C100.52 158.7 99.98 157.22 100.3 157.18C100.62 157.14 103.26 160.74 110.3 167.38C110.394 167.462 110.515 167.507 110.64 167.507C110.765 167.507 110.886 167.462 110.98 167.38C111.081 167.308 111.153 167.201 111.183 167.08C111.212 166.959 111.197 166.831 111.14 166.72C110.941 166.393 110.721 166.079 110.48 165.78C110.1 165.24 108.14 162.7 106.3 160.7C98.7 152.44 97.78 154.04 108.94 153.12C112.94 152.78 121.1 157.84 123.94 160.02C127.597 162.703 131.558 164.945 135.74 166.7C137.85 167.606 140.172 167.897 142.44 167.54C145.34 167.18 148.96 177.76 152.32 183.88C152.52 184.26 152.54 184.48 152.16 184.96C123.54 220.58 125.44 219.5 111.14 234.44C110.06 235.56 104.38 235.78 102.8 233.02C101.48 231 102.18 227.9 96.92 223.96ZM210.34 209.36C206.54 224.86 205.04 254.48 205.76 259.36C206.48 264.24 204.04 269.02 202.08 274.34C195.36 292.62 193.78 308.84 192.08 314.72C188.62 327 188.72 341.58 187.92 345.6C187.56 347.44 189.32 347.94 187.1 349.6C183.76 352.08 148.6 362.1 134.08 362.96C123.02 363.62 121.22 357.1 104.58 352.96C103.372 352.393 102.352 351.489 101.643 350.358C100.933 349.227 100.565 347.915 100.58 346.58C101.273 341.71 102.268 336.887 103.56 332.14C104.04 330.3 103.56 329.86 116.52 344.62C117.7 345.96 118.24 346.78 119.08 346.1C121.08 344.58 106.94 330.84 102.02 325.08C101.158 324.204 100.615 323.062 100.48 321.84C100.18 317.5 98.36 313.46 97.86 309.14C94.6 280.64 102.62 275.24 102.62 234.78C104.118 236.097 106.076 236.767 108.066 236.643C110.057 236.519 111.917 235.612 113.24 234.12C123.82 223.02 147.02 194.32 152.88 185.82C158.3 193.62 166.76 214.5 181.96 203.62C193.82 195.14 194.26 189.92 196.18 192.22C211.24 210.26 210.9 207 210.34 209.36ZM215.14 196.18C209.7 207.08 212.26 207.9 210 205.62C206.38 201.98 202 197.12 196.56 191.1C195.82 190.3 195.98 190.68 202 183.72C202.44 183.2 202.76 182.94 203.2 183.52C205.8 186.9 210.08 188.32 213.58 190.62C217.08 192.92 216.8 192.84 215.14 196.18ZM340.34 340.18C337.4 340.18 337.12 340 336.34 337.06C333.36 324.52 322.84 304.36 321.68 302.28C320.52 300.2 322.78 300.54 323.36 299.58C329.6 313 337.82 325.44 340.34 340.18ZM324.34 294.88C318.12 306.6 302.34 302.66 298.34 296.7C296.16 293.42 291.82 282.7 290.74 270.7C289.6 257.78 287.9 258.7 289.94 258.3C294.54 257.22 297.04 259.42 299.72 260.3C308.06 263.22 306.94 255.38 309.1 251.84C312 247.06 312.16 265.56 320.62 274.32C324.86 278.7 324.5 283.4 325.32 290.14C325.515 291.775 325.201 293.431 324.42 294.88H324.34ZM310.34 199.64C313.408 200.874 316.4 202.29 319.3 203.88C339.56 214.12 326.74 243.16 325.68 251.44C323.54 268.2 331.4 269.44 327.68 286.72C327.68 287.02 327.26 288.06 327.2 288.24C325.66 286.24 328.2 279.66 322.5 274.02C315.62 267.24 315.46 259.02 311.78 251.64C310.76 249.64 312.4 250.06 315.18 248.54C318.92 246.54 319.72 243.28 317.18 239.8C314.92 236.66 321.98 234.16 314.86 231.16C309.84 229.04 310.34 234.82 312.02 218.7C312.28 216.14 318.22 209.12 309.7 207.18C308.817 206.967 307.889 207.022 307.038 207.339C306.186 207.657 305.449 208.221 304.92 208.96C302.572 211.251 300.679 213.965 299.34 216.96C295.1 226.04 287.6 214.6 299.34 206.36C300.333 205.498 301.604 205.023 302.92 205.023C304.235 205.023 305.507 205.498 306.5 206.36C307.14 204.24 306.16 203.56 301.6 202.96C301.6 202.96 301.6 202.82 301.6 202.78C302.7 201.1 303.4 198.78 304.94 197.84C306.48 196.9 308.76 199 310.52 199.64H310.34ZM302.44 224.3C296.88 220.82 304.82 213.86 306.92 210.14C307.96 208.32 309.48 208.64 310.8 208.9C312.96 209.36 312.92 212.9 312.1 214.08C311.28 215.26 304.76 225.64 302.62 224.3H302.44ZM276.74 200.3C279.7 199.6 282.74 199.06 285.6 200.78C292.88 205.14 273.44 207 279.34 208.78C286.98 210.96 285.54 219.42 286.54 219.46C287.2 219.46 287.18 218.64 287.28 218.08C287.625 216.096 287.324 214.052 286.42 212.252C285.516 210.452 284.058 208.989 282.26 208.08C283.669 207.49 285.045 206.823 286.38 206.08C289.62 204.08 289.68 201.28 286.28 199.86C283.96 198.9 283.9 197.58 284.28 195.68C285.14 190.66 283.24 188.72 283.84 176.02C283.84 174.94 283.4 173.2 285.48 173.1C288.82 172.92 288.34 174.96 290 188.9C290.26 190.9 291.32 199.12 293.38 199.48C295.44 199.84 297.72 192.22 303.02 186.2C305.3 183.6 311.46 177.96 313.6 180.7C314.42 181.78 314.84 182.7 314.02 183.88C313.42 184.66 312.16 186.26 311.56 186.9C297.92 201.48 301.82 201.36 297.84 204.9C287.72 213.92 291.18 223.48 298.44 220.9C298.481 221.225 298.548 221.546 298.64 221.86C302.38 230.88 306.5 223.68 309.88 220.82C309 236.96 304.1 234.82 305.4 236.46C305.92 237.12 307.4 235.96 307.8 235.66C310.22 233.66 309.5 230.64 312.2 232.02C312.48 232.16 312.82 232.22 313.12 232.34C317.12 233.68 317.12 233.68 315.36 237.32C314.12 239.94 320.98 244.6 313.12 247.32C302.42 251.18 308.82 261.02 300.5 258.42C296.5 257.14 295.16 255.74 291.4 256.98C290.631 257.321 289.798 257.492 288.957 257.481C288.116 257.47 287.287 257.277 286.528 256.916C285.768 256.556 285.095 256.035 284.556 255.39C284.016 254.745 283.622 253.992 283.4 253.18C283.146 252.171 282.573 251.272 281.765 250.615C280.958 249.959 279.96 249.582 278.92 249.54C276.6 249.32 274.44 248.28 275.16 246.04C275.56 245.116 275.655 244.089 275.432 243.108C275.209 242.126 274.68 241.241 273.92 240.58C273 239.76 273.22 238.58 274.34 238.02C283.76 232.4 285.34 239.82 292.82 239.36C290.32 236.34 281.94 236.68 277.84 226.2C272.52 212.48 266.76 202.82 276.92 200.4L276.74 200.3ZM257.14 221.76C268.68 224.84 272.6 220.68 273.94 222.52C274.6 223.4 273.58 223.56 273.3 224C271.834 226.44 270.197 228.773 268.4 230.98C260.58 239.38 258.82 233.22 256.4 222.36C256.46 221.86 256.66 221.68 257.32 221.86L257.14 221.76ZM264.3 247.02C264.3 248.3 263.68 248.68 262.74 248.7C261.8 248.72 260.4 249.52 259.76 247.84C259.12 246.16 259.76 240.54 260.22 237.64C260.4 236.7 260.68 236.72 261.48 236.88C266.56 237.94 264 237.5 264.48 247.12L264.3 247.02ZM255.16 189.74C253.922 199.568 253.801 209.505 254.8 219.36C243.48 216.16 246.6 205.62 249.92 194.04C251.04 190.88 252.3 191.16 255.34 189.84L255.16 189.74ZM242.06 193.04C252.6 193.28 248.06 187.24 245.48 204.34C243.02 220.5 254.4 217.68 255.32 222.86C255.82 226.745 257.005 230.51 258.82 233.98C259.62 235.34 259.4 235.04 259.12 236.16C258.18 240.16 256.9 244.16 257.9 248.16C258.76 251.56 261.18 250.84 264.88 250.28C267.42 249.9 265.66 247.48 266.5 239.52C266.64 238.18 267.5 236.8 266.3 235.52C265.92 235.08 266.64 234.78 267.02 234.48C279.42 222.08 271.02 221.68 277.94 230.96C278.886 232.208 279.973 233.343 281.18 234.34C276.58 234.54 269.18 237.42 273.44 241.9C276.18 244.72 269.7 249.48 277.44 251.24C283.44 252.6 280.98 257.02 284.96 257.66C289.9 258.48 286.38 271.78 292.82 289.24C296.98 300.5 300.82 302.08 308.4 304.22C301.28 304.92 295.38 307.66 289.3 309.8C286.52 310.78 289.02 308.74 287.66 307.68C284.9 305.5 282.92 302.48 280.04 300.42C277.82 298.84 277.82 298.86 276.38 301.16C258.38 279.74 255.74 262.4 249.46 233.6C241.1 194.06 239.7 193 242.24 193.14L242.06 193.04ZM294.06 325.24C294.575 326.71 294.624 328.302 294.2 329.8C293.66 330.96 292.92 332.02 291.48 331.92C288.48 331.72 291.72 323.3 286.32 317.24C285 315.24 284.18 315.12 286.88 311.06C290.58 315.067 293.124 320.002 294.24 325.34L294.06 325.24ZM293.62 317.4C304.62 326.92 303.08 323.72 302.32 330.26C296.7 328.28 295.16 323.44 293.8 317.5L293.62 317.4ZM282.7 316.84C276.84 312.36 276.94 312.34 275.94 311.98C274.2 311.36 275.62 309.7 275.82 308.56C276.421 306.461 277.176 304.408 278.08 302.42C278.42 301.42 278.78 301.56 279.38 302.1C283.68 305.96 285.82 308.2 285.9 308.7C285.98 309.2 284.14 312.62 282.88 317L282.7 316.84ZM235.1 192C239.36 192.86 239.68 192.86 239.72 194C240.06 203.36 243.32 212 245.72 221.02C248.12 230.04 249.62 239.16 251.56 248.24C256.64 272 256.68 277.5 272.58 298.68C274.32 301 277.58 302.96 274.12 306.84C262.68 295.96 253.34 284.84 246.12 245.52C244.76 238.24 242.46 231.2 240.82 224C232.9 189.78 233.62 191.7 235.1 192ZM224 337.52C224.552 336.671 225.367 336.025 226.32 335.682C227.274 335.339 228.313 335.317 229.28 335.62C232.501 337.65 235.841 339.487 239.28 341.12C234.08 347.12 228.62 352.7 220.56 355.34C221.015 349.287 222.169 343.307 224 337.52ZM220.28 361.34C220.28 358.28 219.94 355.96 223.04 355.72C229.081 352.999 234.392 348.887 238.54 343.72C240.16 341.72 241.48 341.94 243.44 342.86C238.32 347.38 232 355.76 220.32 361.34H220.28ZM255.2 345C250.02 344.34 251.54 344.7 230.78 334.8C239.9 332.12 248.64 330.34 257.5 328.32C255 343 257.4 345.3 255.2 345ZM223.2 335C222.08 335.24 220.92 335.38 219.78 335.66C218.18 336.06 217.48 335.26 217.22 333.86C217.034 333.102 216.966 332.319 217.02 331.54C217.42 328.52 210.84 329.7 214.88 323.54C216.5 321.1 220.72 319.06 217.22 317.54C212.04 315.42 212.68 315.38 213.98 310.12C217.28 296.76 221.04 292.12 221.98 290.56C222.5 292.652 222.821 294.788 222.94 296.94C223.24 299.16 224.74 301.76 226.06 301.84C228.26 301.84 221.94 298.72 224.48 279.62C226.48 264.18 221.52 262.88 217.24 254.66C211.64 243.84 212.4 237.18 220.14 229.18C227.88 221.18 232.62 223.18 233.62 214.58C234.007 212.226 234.82 209.963 236.02 207.9C246.34 249.7 243.18 235.64 246.94 256.28C252.94 288.52 261.64 298.12 272.18 307.64C274.04 309.32 273.12 311.02 273.36 312.7C273.36 313.18 272.9 313.26 272.58 312.9C272.058 311.672 271.319 310.548 270.4 309.58C268.78 308.38 264.9 310.66 264.7 310.8C261.18 313.46 262.12 307.34 253.68 310.94C252.56 311.42 253.1 312.32 253.42 313.1C255.147 317.48 257.103 321.766 259.28 325.94C231.02 331.94 236.58 332.02 223.1 335H223.2ZM266.56 328.64C264.82 330.36 264.12 330.26 262.74 328.24C259.5 323.5 257.54 318.1 254.9 313.08C254.48 312.32 254.9 312.22 255.46 312.04C256.254 311.667 257.131 311.503 258.007 311.567C258.883 311.63 259.727 311.917 260.46 312.4C265.1 315.74 265.46 316.4 266.66 316.02C265.98 313.18 261.6 313.44 268.34 311.4C270.56 310.74 272.84 315.12 272.66 317.68C272.6 320.637 273.158 323.573 274.3 326.3C270.82 325 268.6 326.52 266.46 328.6L266.56 328.64ZM273.42 315.44C273.2 314.34 274.42 313.64 275.52 314.2C281.32 317.06 283.26 320.76 284.84 317.12C286.411 319.214 287.491 321.633 288 324.2C288.54 326.64 286.96 324.46 278.1 323.68C274.76 323.4 275.22 324.66 273.32 315.4L273.42 315.44ZM301.64 354.3C302.6 355.88 301.54 356.08 296.7 359.44C296.06 357.88 295.46 356.4 294.88 354.9C286.62 333.52 274.74 332.26 276.6 327.44C276.82 326.86 276.46 326.06 276.34 325.06C276.767 325.162 277.178 325.324 277.56 325.54C296 342.1 296.1 345.28 301.54 354.26L301.64 354.3ZM296.22 341C295.68 341.2 295.24 341.34 294.76 340.7C281.58 322.84 272.14 324.8 287.4 326.96C288.96 327.18 288.28 329.64 288.8 331.24C290.26 335.8 295.68 334.34 296.52 327.92C298.92 329.62 300.94 331.74 303.34 333.36C304.32 334 304.06 335.86 304.18 337.18C304.26 338.02 304.58 337.78 296.22 341ZM289.66 311.38C297.18 308.98 311.86 302.76 318.56 305.38C318.56 304.3 317.56 304.16 316.88 303.56L320.08 302.02C320.08 307.66 322.54 308.24 320.28 312.84C319.071 315.066 318.048 317.387 317.22 319.78C315.9 324.36 320.6 325.42 319.22 322.9C317.74 320.06 323 313.78 323.02 309.5C327.44 318.94 332.14 328.24 334.78 338.78C326.18 334.78 325.88 335.14 326.3 333.46C327.14 330.14 325.06 326.94 321.68 319.66C321.52 319.32 321.22 318.5 320.56 318.84C319.9 319.18 320.14 319.66 320.74 321.32C321.34 322.98 325.52 332.26 324.46 333.32C323.74 334 322.72 332.78 321.82 332.42C316.872 330.438 312.135 327.966 307.68 325.04C307.057 324.666 306.383 324.383 305.68 324.2C304.5 323.9 305.22 324.82 305.1 325.2C300 320.78 294.68 316.32 289.66 311.38ZM313.66 359.26C309.18 352.3 306.1 337.26 305.3 329C305.3 328.04 304.66 326.54 306.14 326.52C306.748 326.569 307.32 326.83 307.755 327.258C308.19 327.686 308.461 328.253 308.52 328.86C309.46 335.46 308.82 338.42 315.16 353.62C316.18 356.06 316.28 357.84 313.66 359.26ZM322.58 364.78C320.493 363.46 318.322 362.277 316.08 361.24C315.36 360.84 314.24 360.72 315.12 359.7C316 358.68 316.52 357.18 318.16 358.34C319.28 358.9 320.46 361.44 320.92 362.34C320.92 362.54 321.1 362.8 321.76 362.72C321.571 361.363 321.061 360.07 320.271 358.95C319.481 357.83 318.435 356.914 317.22 356.28C317.08 356.06 312.12 341.68 311.42 338.44C310.64 334.82 310.14 330.68 309.88 329.36C317.48 335.94 317.88 353.64 324.34 365.92C324.74 366.72 324.54 366.28 322.58 364.78ZM340.84 371.54C334.62 370.3 332.56 370.44 329.56 368.16C322.62 362.86 318.42 339.54 313.68 331.64C317.68 332.8 341.68 343.16 342 343.36C342.924 343.942 343.705 344.724 344.287 345.649C344.868 346.573 345.235 347.616 345.36 348.7C346.9 358.44 349.36 358.8 349.36 370.98C349.46 373.96 343.82 372.12 340.84 371.54Z" fill="#471280"/>
<path d="M242.4 150.88C242.793 152.93 243.376 154.938 244.14 156.88C249.1 168.56 261.48 168.88 263.8 165.72C265.66 163.24 271.66 159.36 273.2 151.72C274.6 144.78 269.02 144.82 261.94 144.78C256.16 144.78 248.76 145.16 243.76 148.06C243.213 148.264 242.766 148.671 242.512 149.197C242.259 149.722 242.219 150.326 242.4 150.88ZM245.14 149.32C250.64 146.88 263.14 146.14 269.14 146.98C270.72 147.2 271.3 148.18 271.34 149.74C270.58 156.08 265.34 160.86 260.9 164.84C259.36 166.22 257.64 165.48 256.1 165.14C253.554 164.544 251.251 163.183 249.5 161.24C246.944 158.386 245.119 154.955 244.18 151.24C243.76 150.2 244.22 149.74 245.14 149.32Z" fill="#471280"/>
<path d="M320 120.14C319.7 121.08 321.14 120.14 323.08 122.42C331.4 132.12 326.64 148.96 319.48 157.98C323.7 157.1 326 149.7 326.72 148.56C328.152 151.041 329.377 153.637 330.38 156.32C332.92 163.8 329.9 171.58 318.72 175.54C329.52 178.38 339.74 161.36 328.4 148.66C325.92 145.88 329.82 143.22 329.16 134.1C328.26 122.56 320.58 118.2 320 120.14Z" fill="#471280"/>
<path d="M227.6 139.92C227.92 139.54 229.08 138.94 227.88 138.2C227.34 137.92 226.94 138.52 226.36 139.16C220.04 146.16 216.08 153.86 216.36 163.16C216.31 165.453 217.024 167.697 218.389 169.54C219.754 171.383 221.692 172.72 223.9 173.34C225.36 173.8 225.76 174.32 225.32 175.8C225.094 176.329 224.991 176.902 225.021 177.476C225.051 178.051 225.212 178.611 225.492 179.113C225.772 179.615 226.164 180.046 226.637 180.373C227.11 180.701 227.651 180.915 228.22 181C230.057 181.421 231.968 181.398 233.795 180.932C235.621 180.466 237.31 179.57 238.72 178.32C237.82 177.86 237.36 178.32 236.84 178.46C232.08 180 225.88 180.6 226.94 175.72C227.74 172.06 227.18 173 223.8 171.52C212.9 166.78 219.7 149.12 227.6 139.92Z" fill="#471280"/>
<path d="M296.8 364.74C294.136 368.933 291.712 373.273 289.54 377.74C288.26 380.48 282.14 377.16 264.22 373.32C263.84 373.32 264.12 371.76 263.22 372.86C261.08 375.54 267.22 375.04 278.76 378.98C280.781 379.67 282.846 380.225 284.94 380.64C287.86 381.18 290.32 381.48 291.82 378.1C296.44 367.72 300.94 363.88 299.98 363.12C299.854 363.015 299.695 362.957 299.53 362.957C299.365 362.957 299.206 363.015 299.08 363.12C298.279 363.6 297.517 364.142 296.8 364.74Z" fill="#471280"/>
<path d="M286.76 127.44C286.94 127.58 287.28 127.94 287.36 127.7C287.7 126.66 289.1 126.5 289.36 125.44C289.64 123.82 282.08 118.66 273.76 120.84C270.68 121.64 270.52 121.84 270.22 124.84C269.7 129.7 277.74 120.56 286.76 127.44Z" fill="#471280"/>
<path d="M234.68 125.24C238.023 121.759 242.01 118.961 246.42 117L244.42 116.84C252.658 112.432 260.295 106.98 267.14 100.62C267.48 100.28 268.44 100 267.82 99.3405C267.2 98.6805 267.18 99.3405 263.48 102.14C246.1 115.56 234.78 119.16 233.06 121.06C235.06 121.62 236.44 120.4 238.12 120.1C234.42 124.18 234.42 124.18 234.68 125.24Z" fill="#471280"/>
<path d="M256 132.06C256.46 131.88 257.38 132.28 257.18 131.3C256.66 128.9 248.96 133.04 245.34 138.66C243.7 141.18 246.7 143.66 256.34 138.88C256.46 138.824 256.556 138.726 256.611 138.605C256.666 138.484 256.676 138.348 256.64 138.22C256.603 138.092 256.524 137.98 256.414 137.904C256.305 137.827 256.173 137.791 256.04 137.8C253.36 138.04 250.8 139.32 247.8 139.58C247.709 139.585 247.619 139.563 247.54 139.517C247.462 139.471 247.399 139.402 247.36 139.32C247.316 139.244 247.293 139.158 247.293 139.07C247.293 138.982 247.316 138.896 247.36 138.82C249.587 135.838 252.57 133.505 256 132.06Z" fill="#471280"/>
<path d="M301.4 108.84C289.88 103.92 290.86 101.14 289.84 101.86C286.84 103.98 307.56 115 313.06 113.7C312.82 112.58 310.26 112.62 301.4 108.84Z" fill="#471280"/>
<path d="M242.44 131.66C243.539 129.463 244.101 127.037 244.08 124.58C244.2 123.58 244.24 122.48 243.04 122.16C241.84 121.84 241.34 122.86 241.04 123.78C237.2 133.32 240.78 134.28 242.44 131.66Z" fill="#471280"/>
<path d="M316 115C315.84 113.28 316.7 112.4 318.52 112.24C321 112.02 323.08 115.34 315.44 116.94C315 116.94 314.26 116.74 314.32 117.58C314.46 119.72 324.1 117.58 322.32 112.84C320.54 108.1 311.56 113 316 115Z" fill="#471280"/>
<path d="M287.1 114.3C281.509 111.344 274.982 110.698 268.92 112.5C268.46 112.62 267.72 112.76 267.94 113.44C268.34 114.66 279.2 109.9 288.84 116.84C288.82 116.296 288.646 115.768 288.338 115.318C288.03 114.869 287.6 114.516 287.1 114.3Z" fill="#471280"/>
<path d="M247.86 106.68C247.4 105.96 246.66 106.68 246.14 106.86C243.22 108.3 235.48 112.48 234.54 115.66C242.36 110.02 248.72 108.02 247.86 106.68Z" fill="#471280"/>
<path d="M260.8 365.72C253.782 365.144 246.847 363.803 240.12 361.72C242.84 364.34 257.46 366.84 260.8 365.72Z" fill="#471280"/>
<path d="M261.06 361.38C256.8 361.04 252.78 359.6 248.56 359.24C252.475 361.013 256.779 361.75 261.06 361.38Z" fill="#471280"/>
<path d="M277.6 309.26C277.57 310.28 277.858 311.285 278.424 312.134C278.99 312.983 279.807 313.635 280.76 314C284.02 315.06 284.76 309.3 283.32 307.26C281.4 304.34 277.14 304.42 277.6 309.26ZM282.06 307.26C284.06 309.62 282.68 312.48 281.46 312.38C280.24 312.28 280.22 311.38 279.78 310.66C279.34 309.94 279.78 309.68 280.28 309.44C281.061 308.878 281.659 308.099 282 307.2L282.06 307.26Z" fill="#471280"/>
<path d="M116.78 333.58C116.3 333.26 115.66 332.8 115.24 333.44C114.24 334.92 130.04 344.94 142.34 347.14C142.8 347.14 143.36 347.34 143.52 346.8C144 345.16 131.24 343.16 116.78 333.58Z" fill="#471280"/>
<path d="M14.94 82.4005C11.82 75.1205 17.72 74.1205 16.54 73.0205C14.64 71.2405 8.82 79.0005 14.94 82.4005Z" fill="#471280"/>
<path d="M193.78 137C187.02 133.66 178.34 131.1 161.62 134.08C161.04 134.2 160.2 134.08 160.24 134.86C160.4 137.66 160.1 140.48 161.7 143.08C166.16 150.36 173.06 153.08 181.02 152.84C187.96 152.68 192.34 147.94 195.64 142.32C197.42 139.26 196.96 138.54 193.78 137ZM193.78 141.42C192.387 143.871 190.474 145.988 188.177 147.622C185.88 149.256 183.253 150.368 180.48 150.88C173.06 152.26 163.24 145.52 161.96 138.22C161.56 135.94 161.84 135.42 164.06 135.36C174.9 135.06 181.8 133.36 193.02 138.82C194.42 139.52 194.5 140.14 193.74 141.4L193.78 141.42Z" fill="#471280"/>
<path d="M185.34 87.9202C188 101 208.86 114.24 213.46 109.3C210.3 108.945 207.227 108.037 204.38 106.62C184.66 95.5402 187.68 85.0602 185.4 85.7802C184.76 85.9802 185.2 87.2602 185.34 87.9202Z" fill="#471280"/>
<path d="M161.78 101.52C158.78 101.18 158.38 108.06 158.2 109.78C158.02 111.5 158.42 113.66 160.2 113.78C163.68 114.3 165.64 101.96 161.78 101.52Z" fill="#471280"/>
<path d="M176.44 116.38C178.08 116.56 177.26 114.16 175.14 114.68C167.28 116.58 162.72 124 168.88 124.68C171.48 124.98 171.68 123.54 173.98 125.76C177.24 128.9 181.5 125.76 180.72 124.44C180.38 123.86 179.92 124.32 179.54 124.44C174.2 126.96 175.82 121.9 171 122.78C169 122.78 167.24 123.08 168 121.2C168.946 119.806 170.198 118.647 171.661 117.812C173.124 116.976 174.759 116.487 176.44 116.38Z" fill="#471280"/>
<path d="M201.34 112.8C201.493 112.251 201.441 111.666 201.193 111.152C200.945 110.639 200.519 110.234 199.994 110.014C199.468 109.793 198.88 109.771 198.34 109.953C197.8 110.134 197.345 110.507 197.06 111C191.68 119.84 199.18 122.22 201.34 112.8Z" fill="#471280"/>
<path d="M162.86 91.7803C166.86 95.0003 174.54 94.7603 179.76 94.6603C180.142 94.6728 180.522 94.5962 180.869 94.4365C181.216 94.2768 181.521 94.0385 181.76 93.7403C180.38 93.4603 181.92 93.7403 177.32 93.4203C164.2 92.8203 163.18 89.4203 162.56 90.7803C162.482 90.9553 162.469 91.1525 162.524 91.336C162.58 91.5195 162.699 91.6772 162.86 91.7803Z" fill="#471280"/>
<path d="M218.5 108.72C218.495 108.303 218.375 107.895 218.152 107.542C217.93 107.189 217.614 106.905 217.24 106.72C206.86 100.44 206.74 100.48 206.32 101.02C205 102.88 216.32 107.72 218.5 108.72Z" fill="#471280"/>
<path d="M161.66 98.5202C160.16 96.5202 149.66 96.0802 149.2 93.4402C148.94 92.2202 147.62 92.7202 147.88 93.9402C148.6 97.2802 158.46 98.1002 161.66 98.5202Z" fill="#471280"/>
<path d="M183.26 124.38C184.36 123.08 184.58 120.54 183.26 120.54C182.38 120.54 182.66 121.26 182.7 121.68C182.82 122.54 182.44 123.48 183.26 124.38Z" fill="#471280"/>
<path d="M104.54 216.72C104.473 216.802 104.437 216.905 104.437 217.01C104.437 217.116 104.473 217.218 104.54 217.3C104.588 217.397 104.669 217.472 104.768 217.513C104.868 217.553 104.979 217.556 105.08 217.52C109.94 215.92 120.8 200.58 126.16 178.8C126.248 178.478 126.315 178.151 126.36 177.82C126.384 177.657 126.347 177.49 126.254 177.353C126.162 177.216 126.021 177.119 125.86 177.08C125.704 177.044 125.54 177.065 125.397 177.138C125.254 177.211 125.142 177.332 125.08 177.48C122.44 184.1 117.08 206.4 104.54 216.72Z" fill="#471280"/>
<path d="M50.5998 17.0005C55.1598 17.8605 59.7198 18.6605 64.2798 19.4405C68.0998 20.1205 70.2798 18.2205 70.2798 14.3805C70.2798 9.44052 69.1798 10.0405 52.6198 6.88052C47.3198 5.78052 43.6598 15.6205 50.5998 17.0005ZM55.7198 8.50052C68.7398 11.3805 69.4798 10.7405 68.8398 14.7005C68.0798 19.4205 65.6998 18.0805 53.3198 16.2005C57.3598 14.3405 57.9998 12.0405 55.7198 8.42052V8.50052ZM53.2598 9.66052C55.1398 9.66052 55.5998 10.7205 55.8198 11.8605C55.8179 12.5462 55.5608 13.2066 55.0987 13.7131C54.6365 14.2196 54.0024 14.5359 53.3198 14.6005C52.6541 14.6085 52.0125 14.3517 51.5362 13.8866C51.0598 13.4215 50.7878 12.7862 50.7798 12.1205C50.7718 11.4548 51.0287 10.8132 51.4938 10.3369C51.9588 9.86055 52.5941 9.58848 53.2598 9.58052V9.66052ZM54.7998 8.24052C53.8026 8.24864 52.834 8.5751 52.0353 9.17232C51.2366 9.76953 50.6496 10.6063 50.3598 11.5605C50.1913 12.3208 50.2579 13.1143 50.5508 13.8359C50.8437 14.5574 51.349 15.1728 51.9998 15.6005C51.1542 15.7667 50.2771 15.6133 49.5381 15.1699C48.7992 14.7266 48.2511 14.0248 47.9998 13.2005C47.9315 12.168 48.1705 11.1383 48.6866 10.2414C49.2027 9.34442 49.9728 8.62038 50.8998 8.16052C52.1807 7.84529 53.5189 7.84529 54.7998 8.16052V8.24052Z" fill="#471280"/>
<path d="M252.42 313.821C241.38 308.481 230.56 305.701 219.82 299.821C219.723 299.728 219.594 299.676 219.46 299.676C219.326 299.676 219.197 299.728 219.1 299.821C219.52 302.941 246.62 312.361 251.66 314.981C252.74 315.641 253.64 314.401 252.42 313.821Z" fill="#471280"/>
<path d="M225.7 315C225.22 314.88 224.34 314.14 224.06 315C223.78 315.86 224.58 315.72 241.26 320.86C249.26 323.3 249.54 323.98 251.4 323C243.09 319.569 234.489 316.891 225.7 315Z" fill="#471280"/>
<path d="M248 279.96C239.78 275.02 238.64 273.24 231.28 265.96C232.88 270.56 243.52 279.4 248 279.96Z" fill="#471280"/>
<path d="M289.7 242.8C288.68 241.9 287.86 238.14 286.54 239.08C285.58 239.76 287.14 246.8 293.36 243.58C299.58 240.36 300.72 246.62 303.2 242.76C306.4 237.76 312.4 242.88 310.56 235.24C308.96 235.82 309.94 237.9 307.84 238C301.84 238.32 302.04 242.76 300.62 242C295.06 239.44 291.8 244.66 289.7 242.8Z" fill="#471280"/>
<path d="M259.74 315.84C260.72 319.06 266.34 323.54 268.42 323.06C268 322.66 260.2 316.2 259.74 315.84Z" fill="#471280"/>
<path d="M60.9399 15.8403C61.6195 15.8425 62.2749 15.5884 62.7754 15.1287C63.2759 14.6691 63.5846 14.0375 63.6399 13.3603C63.5993 12.6598 63.2934 12.0011 62.7844 11.5181C62.2754 11.0351 61.6016 10.7642 60.8999 10.7603C56.4199 10.7803 57.2999 15.8803 60.9399 15.8403ZM61.7199 13.3603C61.7354 13.4734 61.7252 13.5885 61.6901 13.6971C61.6549 13.8057 61.5958 13.905 61.517 13.9877C61.4382 14.0703 61.3418 14.1341 61.235 14.1744C61.1282 14.2146 61.0137 14.2303 60.8999 14.2203C57.3599 14.1803 61.3999 10.2003 61.7199 13.3603Z" fill="#471280"/>
</svg>
