<svg width="400" height="400" viewBox="0 0 400 400" fill="none" xmlns="http://www.w3.org/2000/svg">
<path fill-rule="evenodd" clip-rule="evenodd" d="M232.38 374.82C236.78 370.56 251.44 354.82 256.18 351.14C256.325 350.985 256.521 350.886 256.732 350.861C256.944 350.836 257.157 350.887 257.335 351.004C257.512 351.122 257.642 351.298 257.702 351.502C257.761 351.707 257.747 351.926 257.66 352.12C255.3 356.38 234.72 375.72 233.52 376.86C232.7 377.88 229.18 382.12 228.22 383C228.25 383.796 228.041 384.584 227.621 385.261C227.2 385.938 226.587 386.474 225.86 386.8C223.284 387.674 220.759 388.696 218.3 389.86C217.94 390.18 217.52 389.86 217.62 389.52C218.853 387.975 219.887 386.282 220.7 384.48C220.875 383.288 221.48 382.201 222.401 381.424C223.322 380.646 224.495 380.233 225.7 380.26C225.84 380 231.14 375.64 232.38 374.82V374.82ZM225.64 380.58C224.56 380.643 223.537 381.091 222.759 381.843C221.981 382.596 221.499 383.602 221.4 384.68C220.949 386.037 220.273 387.308 219.4 388.44C224.46 386.34 226.18 386.64 227.28 384.94C227.628 384.375 227.847 383.74 227.92 383.08C226.52 382.7 225.54 380.34 225.64 380.58V380.58ZM231.98 375.56C230.42 376.98 228.8 378.5 226.42 380.56C226.77 381.255 227.293 381.848 227.94 382.28L233.16 376.7C232.699 376.403 232.305 376.015 232 375.56H231.98ZM223.08 352C225.36 350.5 256.3 330.14 256.6 331.14C256.9 332.14 226.24 355.34 225.98 355.5C224.68 356.98 215.98 366.36 214.84 366.76C213.389 366.707 212.015 366.098 211 365.06C209.609 363.638 208.58 361.903 208 360C207.62 358.64 221.84 352.52 223.08 352ZM208.98 360.9C209.374 362.168 210.086 363.314 211.049 364.228C212.012 365.141 213.193 365.793 214.48 366.12C213.04 364.76 210 361.86 208.98 360.9ZM214.98 356.28C212.784 357.327 210.677 358.551 208.68 359.94C208.94 360.8 208.68 359.94 210.68 361.6C212.303 362.873 213.726 364.384 214.9 366.08C215.9 365.34 219.96 361.3 219.72 361.52C218.221 359.683 216.618 357.934 214.92 356.28H214.98ZM223.16 352.28C219.86 353.82 217.66 354.9 215.16 356.12C217.144 357.387 218.753 359.162 219.82 361.26C221.02 360.06 225.1 355.92 225.7 355.26C225.12 354.7 223.6 352.96 223.1 352.32L223.16 352.28ZM271.62 329.42C272.64 320.46 274.14 309.32 275.36 309.26C276.58 309.2 275.26 320.46 274 329.48C278 329.82 282.76 332.02 282 335.82C282.036 336.497 281.948 337.175 281.74 337.82C283.74 351.4 281.96 354.2 282.1 353.98C280.935 355.383 279.478 356.514 277.83 357.295C276.182 358.075 274.383 358.487 272.56 358.5C270.729 358.51 268.917 358.129 267.245 357.384C265.573 356.64 264.078 355.547 262.86 354.18C261.2 351.68 262.26 341.12 262.58 338.18C262.403 337.561 262.302 336.923 262.28 336.28C262.039 335.228 262.175 334.125 262.665 333.163C263.155 332.202 263.967 331.443 264.96 331.02C267.006 329.923 269.299 329.372 271.62 329.42V329.42ZM281.36 346.98C279.78 350.22 275.36 351.24 271.8 351.24C271.752 352.199 271.645 353.154 271.48 354.1C271.32 354.86 271.14 355.52 270.36 355.5C269.234 355.272 268.243 354.611 267.6 353.66C267.08 352.88 267.2 352.48 267.86 350.76C266.994 350.534 266.187 350.121 265.496 349.551C264.805 348.982 264.247 348.268 263.86 347.46C263.868 349.247 264.049 351.028 264.4 352.78C264.822 353.575 265.425 354.261 266.16 354.78C270.68 358.46 276.16 357.42 280.74 353.48C280.94 352 281.22 349.1 281.36 346.98ZM263 338.98C262.86 341.4 262.32 351.62 263.68 353.62C264.727 354.836 266.051 355.783 267.54 356.38C265.979 355.618 264.708 354.368 263.92 352.82C263.576 350.678 263.462 348.506 263.58 346.34C263.454 345.733 263.477 345.105 263.648 344.509C263.818 343.913 264.132 343.368 264.56 342.92C265.98 341.28 266.32 342.22 265.02 341.32C264.17 340.746 263.475 339.969 263 339.06V338.98ZM268.38 350.78C268.138 351.428 267.957 352.098 267.84 352.78C267.84 353.46 269.64 354.98 270.44 354.9C270.72 354.9 270.8 354.48 270.9 353.98C271.077 353.075 271.198 352.16 271.26 351.24C270.289 351.221 269.323 351.093 268.38 350.86V350.78ZM281.5 338.5C280.813 339.767 279.761 340.799 278.48 341.46C280.78 342.18 282.3 343.72 281.68 346.06C281.68 347.32 281.68 348.56 281.56 349.68C281.36 353.86 281.22 353.68 281.42 353.38C282.36 349.82 281.88 342.34 281.5 338.58V338.5ZM278.14 341.64C276.269 342.545 274.218 343.017 272.14 343.02C272.143 344.215 271.988 345.405 271.68 346.56C271.761 347.892 271.761 349.228 271.68 350.56C274.185 350.646 276.662 350.014 278.82 348.74C282 346.74 282.5 343.12 278.14 341.72V341.64ZM269.88 346.64C269.76 346.92 268.76 349.7 268.58 350.2C269.477 350.418 270.397 350.532 271.32 350.54C271.32 349.56 271.52 347.68 271.5 346.7C270.967 346.817 270.416 346.824 269.88 346.72V346.64ZM266.14 342C262.3 344.64 263.92 348.84 268.14 350.12C268.56 349.06 269.22 347.58 269.7 346.56C269.755 345.366 269.889 344.177 270.1 343C268.733 342.895 267.393 342.557 266.14 342ZM270.28 343.02L270.1 346.26C270.44 346.26 271.54 346.42 271.42 346.26C271.3 346.1 271.68 344.38 271.82 343.06C271.3 343.1 270.78 343.08 270.28 343.04V343.02ZM281.16 337.72C277.6 342.18 266.84 342.24 263.16 337.72C263.549 338.722 264.189 339.608 265.019 340.291C265.849 340.974 266.842 341.432 267.9 341.62C272.46 342.86 279.32 341.86 281.16 337.74V337.72ZM273.7 331.56C273.1 335.7 272.58 339.06 272.4 340.16C275.42 340.16 279.46 339.06 280.86 336.62C280.42 333.5 276.86 331.88 273.7 331.58V331.56ZM271.38 331.56C269.729 331.641 268.13 332.165 266.751 333.076C265.371 333.988 264.262 335.253 263.54 336.74C264.82 338.74 268.04 339.84 270.52 340.08C270.62 338.98 270.94 335.66 271.38 331.58V331.56ZM271.58 329.8C269.4 329.879 267.275 330.505 265.4 331.62C263.62 332.76 262.42 334.52 263.4 336.42C264.082 334.844 265.195 333.493 266.609 332.52C268.024 331.547 269.685 330.993 271.4 330.92L271.58 329.8ZM274 330C274 330.34 273.9 330.68 273.84 331.02C277.14 331.32 280.6 333.02 281.14 336.22C281.86 334.4 280.66 332.76 278.98 331.7C277.462 330.781 275.763 330.201 274 330V330ZM293.16 338.12C292.22 333.46 284.62 298.74 287.16 296.72C288.062 296.223 289.043 295.885 290.06 295.72C292.86 295.12 310.72 292.72 311.54 295.14C312.36 297.56 307.54 334.42 307.18 336.4C307.18 337.74 306.68 341.48 306.68 341.48C306.161 342.565 305.392 343.51 304.436 344.24C303.48 344.97 302.365 345.462 301.182 345.677C299.999 345.891 298.782 345.822 297.631 345.475C296.48 345.128 295.427 344.513 294.56 343.68C293.892 341.883 293.423 340.019 293.16 338.12V338.12ZM310.52 299.58C302.861 299.682 295.22 300.351 287.66 301.58C288.28 309.98 291.92 329.58 293.5 337.94C295.582 339.078 297.955 339.574 300.319 339.364C302.683 339.154 304.931 338.248 306.78 336.76C307 335.06 310.36 301.82 310.52 299.58V299.58ZM308.72 311.18C308.72 311.18 308.84 309.82 307.16 310.16C305.48 310.5 302.42 313.38 298.66 313.06C294.9 312.74 291.32 310.64 290.2 312.04C289.08 313.44 293.82 317.86 299.96 316.82C307 315.64 308.86 312.74 308.72 311.18ZM288.92 296.98C288.62 296.98 287.8 297.3 287.72 297.56C287.549 298.828 287.549 300.112 287.72 301.38L289.72 301C289.268 299.704 288.998 298.351 288.92 296.98V296.98ZM292.38 296.24C291.36 296.42 290.16 296.64 289.18 296.9C289.477 298.219 289.697 299.555 289.84 300.9C290.6 300.76 292.72 300.4 293.34 300.34C293.28 300.2 292.8 298.54 292.38 296.24V296.24ZM296.2 295.74C294.94 295.88 293.74 296.04 292.64 296.2C293.13 297.538 293.426 298.939 293.52 300.36L296.88 299.94C296.76 299.28 296.34 297.2 296.2 295.74ZM299.94 295.38C299.26 295.38 297.82 295.54 296.46 295.7C296.881 297.067 297.09 298.49 297.08 299.92L300.68 299.58C300.62 299.24 300.2 297.44 300 295.38H299.94ZM303.94 295.12L300.2 295.36C300.631 296.719 300.861 298.134 300.88 299.56C302.04 299.56 303.32 299.4 304.46 299.36C304.46 299.32 304 295.38 304 295.12H303.94ZM308.78 295.12C308.708 296.521 308.554 297.917 308.32 299.3H310.54C310.54 298.8 310.88 295.44 310.54 295.3C309.961 295.186 309.371 295.132 308.78 295.14V295.12ZM308.52 295.12H304.22C304.607 296.498 304.756 297.932 304.66 299.36H308.14C308.08 297.936 308.208 296.511 308.52 295.12ZM158 322.66C160.62 322.66 162.76 323.62 162.76 324.84C162.76 326.06 160.62 327.02 158 327.02C155.38 327.02 153.26 326.04 153.26 324.84C153.26 323.64 155.3 322.66 158 322.66ZM107.44 311.14C107.44 311.58 106.62 311.98 105.58 312.02C104.54 312.06 103.58 311.72 103.58 311.26C103.62 310.2 107.4 310 107.44 311.14Z" fill="black"/>
<path d="M126.38 361.62C127.661 361.62 128.7 361.003 128.7 360.24C128.7 359.478 127.661 358.86 126.38 358.86C125.099 358.86 124.06 359.478 124.06 360.24C124.06 361.003 125.099 361.62 126.38 361.62Z" fill="black"/>
<path fill-rule="evenodd" clip-rule="evenodd" d="M226.26 294C228.26 294 229.98 294.58 229.98 295.28C229.98 295.98 228.32 296.58 226.26 296.58C224.2 296.58 222.56 296 222.56 295.28C222.56 294.56 224.22 294 226.26 294ZM98.9202 242.94C98.9202 243.44 98.6202 247.22 98.7802 252.74C98.7802 253.48 98.9202 256 98.9202 256C98.9202 256 99.1602 256.14 99.1602 256C99.1602 255.86 99.2802 253.48 99.3002 252.74C99.4202 248.14 99.1602 242.74 99.1602 242.94C99.1602 242.908 99.1476 242.878 99.1251 242.855C99.1026 242.833 99.0721 242.82 99.0402 242.82C99.0084 242.82 98.9779 242.833 98.9554 242.855C98.9329 242.878 98.9202 242.908 98.9202 242.94V242.94ZM182.22 24.3999C184.72 25.0799 189.14 26.4999 190.74 28.5599C190.798 28.6356 190.829 28.7277 190.83 28.8227C190.831 28.9177 190.801 29.0103 190.744 29.0868C190.688 29.1634 190.609 29.2196 190.518 29.2472C190.427 29.2748 190.33 29.2723 190.24 29.2399C182.24 25.9799 169.5 30.1399 161.42 33.4999C158.22 34.8399 177.42 13.1799 191.22 16.5799C191.315 16.6087 191.397 16.667 191.456 16.7462C191.514 16.8254 191.546 16.9214 191.546 17.0199C191.546 17.1185 191.514 17.2145 191.456 17.2937C191.397 17.3729 191.315 17.4312 191.22 17.4599C188.084 18.1956 185.003 19.1513 182 20.3199C184.3 20.4199 189.6 20.7599 191.38 22.3199C191.451 22.381 191.502 22.4612 191.528 22.5509C191.553 22.6406 191.552 22.7358 191.525 22.8249C191.497 22.914 191.444 22.9932 191.372 23.0527C191.301 23.1122 191.213 23.1495 191.12 23.1599C188.134 23.4194 185.164 23.8333 182.22 24.3999V24.3999ZM188.86 17.1399C184.932 17.1256 181.069 18.1465 177.66 20.0999C171.561 23.3357 166.132 27.6996 161.66 32.9599C169.32 29.6399 180.22 25.8799 188.4 27.7599C185.82 26.442 183.076 25.4735 180.24 24.8799C180.137 24.8581 180.045 24.8015 179.978 24.7195C179.912 24.6376 179.876 24.5354 179.876 24.4299C179.876 24.3245 179.912 24.2223 179.978 24.1404C180.045 24.0584 180.137 24.0018 180.24 23.9799C183.287 23.1589 186.398 22.5969 189.54 22.2999C186.473 21.5767 183.332 21.2142 180.18 21.2199C180.078 21.2229 179.977 21.1914 179.894 21.1305C179.812 21.0695 179.752 20.9827 179.724 20.8838C179.696 20.7849 179.703 20.6795 179.742 20.5846C179.781 20.4897 179.851 20.4106 179.94 20.3599C182.784 18.956 185.776 17.8759 188.86 17.1399V17.1399ZM53.8002 184.44C51.8112 184.701 49.8062 184.821 47.8002 184.8C47.6983 184.804 47.5982 184.773 47.517 184.711C47.4357 184.649 47.3784 184.561 47.3547 184.462C47.3311 184.363 47.3427 184.259 47.3875 184.167C47.4322 184.075 47.5074 184.002 47.6002 183.96C50.0802 182.62 55.9202 181.3 58.9202 179.22L66.3402 174.26C66.3552 174.243 66.3737 174.229 66.3944 174.22C66.4151 174.211 66.4375 174.206 66.4602 174.206C66.4829 174.206 66.5054 174.211 66.5261 174.22C66.5468 174.229 66.5652 174.243 66.5802 174.26C66.8002 174.52 66.3402 174.54 63.8402 177.84C62.1807 179.884 60.8327 182.162 59.8402 184.6C58.7677 187.15 57.8264 189.754 57.0202 192.4C57.0202 193 55.5802 193.44 55.9802 190.16C56.1458 188.936 56.3727 187.721 56.6602 186.52C54.5853 188.018 52.3989 189.355 50.1202 190.52C50.0381 190.567 49.9435 190.588 49.8492 190.579C49.755 190.571 49.6657 190.533 49.5935 190.472C49.5213 190.411 49.4698 190.329 49.4459 190.237C49.4221 190.145 49.4271 190.049 49.4602 189.96C50.4831 187.823 51.965 185.938 53.8002 184.44V184.44ZM65.1202 175.58C55.3202 182.48 59.7002 179.98 49.9202 183.88C51.7917 183.876 53.6522 183.593 55.4402 183.04L55.6602 182.86C56.1002 182.52 56.8802 183.2 56.0202 183.76C54.0978 185.271 52.4007 187.049 50.9802 189.04C53.1952 187.907 55.2694 186.517 57.1602 184.9C57.2306 184.818 57.3275 184.764 57.434 184.746C57.5404 184.728 57.6497 184.749 57.7426 184.804C57.8356 184.859 57.9063 184.944 57.9424 185.046C57.9785 185.148 57.9778 185.259 57.9402 185.36C57.5266 186.868 57.1928 188.397 56.9402 189.94C58.5212 184.586 61.321 179.671 65.1202 175.58V175.58ZM66.4802 166.24C69.8719 160.744 74.7171 156.294 80.4802 153.38C88.2402 149.72 91.0802 153.62 87.5602 160.62C84.5628 166.212 80.2782 171.011 75.0602 174.62C75.6477 176.672 75.8843 178.809 75.7602 180.94C75.2402 182.94 65.4602 186.3 64.1202 186.14C64.0187 186.135 63.9204 186.103 63.8359 186.047C63.7513 185.99 63.6837 185.912 63.6402 185.82C63.4402 185.36 63.9002 184.94 64.3402 184.6C66.7819 182.816 69.341 181.199 72.0002 179.76L71.8602 176.44L70.7202 177C70.646 177.02 70.5675 177.02 70.4934 176.999C70.4193 176.978 70.3525 176.937 70.3002 176.88L64.0002 170.74C63.9707 170.707 63.9544 170.664 63.9544 170.62C63.9544 170.576 63.9707 170.533 64.0002 170.5C64.0002 170.5 64.2002 170.08 64.6202 169.34H61.1202C60.6002 170.42 57.1202 177.46 56.0002 177.94C55.9198 177.979 55.8311 177.998 55.7418 177.996C55.6525 177.993 55.565 177.97 55.4867 177.926C55.4084 177.883 55.3415 177.822 55.2917 177.748C55.2418 177.674 55.2105 177.589 55.2002 177.5C54.9602 176 57.9202 166.22 59.8802 165.64C62.0565 165.44 64.2508 165.588 66.3802 166.08C66.4117 166.093 66.4383 166.115 66.4563 166.144C66.4743 166.172 66.4827 166.206 66.4802 166.24ZM74.6202 174.76C73.8263 175.289 73.0052 175.777 72.1602 176.22L72.5802 180C72.5802 180.3 72.5802 180.12 68.5802 182.76C67.3602 183.54 66.1202 184.36 65.2802 184.98C68.3149 184.144 71.2415 182.956 74.0002 181.44C74.2202 181.3 74.8002 180.9 74.8802 180.64C75.0916 178.678 75.0039 176.696 74.6202 174.76V174.76ZM65.8002 168.22C65.0202 169.38 64.5402 170.22 64.3602 170.56L70.5602 176.3C71.2802 175.94 72.0602 175.5 72.8802 175C70.297 172.985 67.9249 170.714 65.8002 168.22V168.22ZM66.3002 166.52C64.2372 166.227 62.1432 166.227 60.0802 166.52C59.3802 166.76 58.1802 169.94 57.9602 170.52C57.254 172.403 56.6858 174.335 56.2602 176.3C57.4602 174.52 60.7402 168.7 60.6002 168.98C60.6274 168.924 60.6702 168.877 60.7235 168.845C60.7767 168.813 60.8381 168.798 60.9002 168.8L64.8002 169C65.2002 168.24 65.6802 167.46 66.3002 166.52ZM77.3202 156.14C72.7868 159.217 68.9338 163.192 66.0002 167.82C68.656 169.859 71.0834 172.179 73.2402 174.74C77.8041 171.732 81.7208 167.843 84.7602 163.3L77.3202 156.14ZM73.7402 161.16C73.3555 161.563 73.0539 162.038 72.8527 162.558C72.6515 163.078 72.5546 163.632 72.5676 164.189C72.5806 164.746 72.7032 165.295 72.9284 165.805C73.1536 166.315 73.4771 166.775 73.8802 167.16C74.2834 167.545 74.7584 167.846 75.2781 168.048C75.7978 168.249 76.3521 168.346 76.9092 168.333C77.4664 168.32 78.0155 168.197 78.5253 167.972C79.035 167.747 79.4955 167.423 79.8802 167.02C80.6573 166.206 81.0791 165.116 81.0529 163.991C81.0266 162.866 80.5544 161.797 79.7402 161.02C78.926 160.243 77.8365 159.821 76.7112 159.847C75.586 159.874 74.5173 160.346 73.7402 161.16V161.16ZM79.3202 161.48C79.9641 162.141 80.3243 163.027 80.3243 163.95C80.3243 164.873 79.9641 165.759 79.3202 166.42C78.689 167.005 77.8581 167.328 76.9971 167.322C76.1361 167.316 75.31 166.981 74.6873 166.386C74.0646 165.792 73.6923 164.982 73.6464 164.122C73.6005 163.262 73.8844 162.418 74.4402 161.76C75.059 161.09 75.9135 160.687 76.8237 160.635C77.7339 160.583 78.6289 160.886 79.3202 161.48V161.48ZM78.2202 162.62C78.4926 162.902 78.6758 163.259 78.747 163.645C78.8182 164.031 78.7744 164.429 78.6209 164.79C78.4674 165.151 78.211 165.459 77.8837 165.676C77.5564 165.892 77.1727 166.008 76.7802 166.008C76.3878 166.008 76.004 165.892 75.6768 165.676C75.3495 165.459 75.0931 165.151 74.9396 164.79C74.7861 164.429 74.7422 164.031 74.8135 163.645C74.8847 163.259 75.0679 162.902 75.3402 162.62C75.5268 162.426 75.7505 162.272 75.9979 162.167C76.2453 162.062 76.5114 162.008 76.7802 162.008C77.0491 162.008 77.3152 162.062 77.5626 162.167C77.81 162.272 78.0337 162.426 78.2202 162.62Z" fill="black"/>
<path fill-rule="evenodd" clip-rule="evenodd" d="M141.54 26.78C141.357 26.6248 141.214 26.4286 141.121 26.2074C141.029 25.9861 140.99 25.7461 141.008 25.507C141.026 25.2679 141.1 25.0364 141.225 24.8315C141.349 24.6266 141.521 24.4541 141.725 24.328C141.929 24.2019 142.16 24.126 142.399 24.1062C142.638 24.0865 142.878 24.1236 143.1 24.2145C143.322 24.3054 143.519 24.4475 143.675 24.6292C143.832 24.8109 143.943 25.0271 144 25.26C144.015 25.5117 143.969 25.7633 143.868 25.9942C143.767 26.2251 143.612 26.4288 143.417 26.5887C143.222 26.7486 142.992 26.8601 142.746 26.9142C142.5 26.9683 142.244 26.9635 142 26.9C142 27.1 141.7 29.32 141.1 31.92C143.879 31.9306 146.562 32.9384 148.66 34.76C148.691 34.7042 148.74 34.6616 148.8 34.64C164.4 32.44 166.02 37.6 161 41.74C155.36 46.4 138.04 51.74 128.48 50.48C125.98 50.18 122.1 49.02 122.06 46.66C122.06 43.62 130.2 40.24 130.52 40.08C131.824 36.7781 134.343 34.1013 137.56 32.6C136.14 31.06 134.66 28.82 134.32 28.44C132.62 29.36 131.02 27.18 132.32 26.06C132.607 25.8089 132.98 25.6797 133.36 25.7C133.677 25.6358 134.007 25.6803 134.296 25.8263C134.584 25.9723 134.815 26.2112 134.952 26.5047C135.088 26.7981 135.122 27.1289 135.047 27.4437C134.972 27.7586 134.794 28.0391 134.54 28.24C135.213 28.7247 135.813 29.304 136.32 29.96C139.2 33.44 136.76 32.24 140.32 31.96C140.426 30.176 140.839 28.4237 141.54 26.78V26.78ZM130.18 40.64C128.38 41.52 122.58 44.64 122.66 46.64C122.66 47.3 123.24 47.96 124.3 48.54C131.74 52.54 153.88 46.26 160.3 41.04C163.96 38.1 163.58 35.28 156.62 34.78C153.951 34.6591 151.277 34.7393 148.62 35.02C148.12 36.18 143.3 45.3 130.18 40.64ZM128.18 45.4C128.093 45.5851 128.046 45.7863 128.042 45.9908C128.037 46.1953 128.076 46.3983 128.155 46.5869C128.234 46.7755 128.352 46.9453 128.501 47.0853C128.65 47.2254 128.827 47.3326 129.02 47.4C129.212 47.4478 129.411 47.4572 129.607 47.4277C129.802 47.3983 129.99 47.3305 130.159 47.2283C130.328 47.126 130.475 46.9914 130.592 46.8321C130.709 46.6728 130.793 46.492 130.84 46.3C130.96 45.9473 130.934 45.5616 130.769 45.2277C130.604 44.8939 130.313 44.6393 129.96 44.52C129.607 44.4007 129.222 44.4263 128.888 44.5914C128.554 44.7564 128.3 45.0473 128.18 45.4V45.4ZM129.82 44.84C130.7 45.24 130.1 46.84 129.26 46.6C128.42 46.36 128.86 44.66 129.82 44.84ZM143.62 43.7C143.479 43.5946 143.315 43.5223 143.142 43.4884C142.969 43.4544 142.791 43.4597 142.62 43.5039C142.449 43.548 142.291 43.6298 142.156 43.7434C142.021 43.8569 141.913 43.9993 141.84 44.16C141.687 44.5185 141.671 44.9211 141.797 45.2903C141.922 45.6596 142.18 45.9693 142.52 46.16C142.683 46.2606 142.866 46.3235 143.056 46.3442C143.245 46.3649 143.438 46.3427 143.618 46.2794C143.798 46.2161 143.962 46.1133 144.097 45.9784C144.233 45.8435 144.336 45.6801 144.4 45.5C144.512 45.1565 144.495 44.7838 144.351 44.4522C144.208 44.1206 143.948 43.8531 143.62 43.7V43.7ZM143.46 43.98C144.26 44.58 143.74 45.98 142.9 45.5C142.06 45.02 142.5 43.58 143.46 44V43.98ZM154.16 38.26C154.044 38.1512 153.905 38.07 153.753 38.0224C153.601 37.9748 153.44 37.9621 153.282 37.9851C153.125 38.0082 152.974 38.0664 152.843 38.1556C152.711 38.2447 152.6 38.3624 152.52 38.5C152.365 38.8202 152.333 39.1858 152.429 39.5283C152.524 39.8707 152.742 40.1665 153.04 40.36C153.173 40.4686 153.329 40.5463 153.496 40.5873C153.663 40.6284 153.837 40.6318 154.006 40.5973C154.174 40.5629 154.333 40.4914 154.47 40.3881C154.608 40.2848 154.72 40.1522 154.8 40C154.874 39.844 154.916 39.6748 154.924 39.5024C154.931 39.33 154.904 39.1578 154.845 38.9959C154.785 38.8339 154.694 38.6854 154.577 38.5591C154.459 38.4327 154.317 38.3311 154.16 38.26V38.26ZM154 38.52C154.6 39.08 154.18 40.2 153.48 39.72C152.78 39.24 153.18 38.12 154 38.52ZM133.36 26C133.619 26.0095 133.865 26.1153 134.05 26.2965C134.235 26.4778 134.345 26.7215 134.36 26.98C134.35 27.2117 134.251 27.4305 134.083 27.5907C133.915 27.7509 133.692 27.8402 133.46 27.84C133.339 27.8466 133.218 27.8293 133.104 27.7891C132.99 27.7489 132.885 27.6867 132.795 27.6059C132.613 27.4427 132.503 27.214 132.49 26.97C132.477 26.726 132.561 26.4867 132.724 26.3048C132.887 26.1229 133.116 26.0133 133.36 26V26ZM142.22 24.3C142.479 24.3095 142.725 24.4153 142.91 24.5965C143.095 24.7778 143.205 25.0215 143.22 25.28C143.21 25.5117 143.111 25.7305 142.943 25.8907C142.775 26.0509 142.552 26.1402 142.32 26.14C142.191 26.1651 142.058 26.1622 141.93 26.1316C141.803 26.101 141.683 26.0434 141.579 25.9626C141.475 25.8818 141.39 25.7797 141.329 25.6632C141.269 25.5468 141.233 25.4186 141.226 25.2874C141.219 25.1561 141.24 25.0249 141.288 24.9024C141.335 24.78 141.409 24.6692 141.503 24.5775C141.597 24.4859 141.71 24.4155 141.834 24.371C141.957 24.3266 142.089 24.3092 142.22 24.32V24.3ZM240.92 123.6C241.859 121.861 243.398 120.523 245.25 119.835C247.103 119.147 249.142 119.157 250.988 119.862C252.834 120.567 254.361 121.919 255.283 123.667C256.205 125.415 256.46 127.438 256 129.36C258.942 130.791 261.753 132.478 264.4 134.4C265.56 135.44 265.4 136.4 263.34 136.26C259.763 135.941 256.226 135.271 252.78 134.26C251.678 135.065 250.39 135.58 249.037 135.758C247.683 135.935 246.306 135.769 245.034 135.275C243.761 134.781 242.633 133.975 241.753 132.931C240.874 131.887 240.271 130.638 240 129.3C238 128.34 231.06 124.76 230.64 122.74C230.5 122 231.22 121.66 231.98 121.58C235.053 121.742 238.076 122.425 240.92 123.6V123.6ZM255.84 129.78C255.45 131.139 254.712 132.373 253.7 133.36C257.099 134.34 260.58 135.009 264.1 135.36C262.96 133.88 257.48 130.72 255.84 129.78V129.78ZM240.72 129.6C241.045 130.725 241.624 131.761 242.414 132.626C243.203 133.491 244.182 134.162 245.273 134.588C246.364 135.013 247.538 135.182 248.705 135.08C249.872 134.978 250.999 134.608 252 134C248.136 132.815 244.366 131.344 240.72 129.6V129.6ZM253.08 133.18C254.486 131.928 255.381 130.202 255.595 128.331C255.809 126.461 255.327 124.577 254.24 123.04C253.67 122.2 252.935 121.486 252.08 120.94C251.224 120.394 250.266 120.029 249.265 119.866C248.263 119.703 247.239 119.746 246.255 119.993C245.27 120.239 244.347 120.684 243.54 121.3C242.454 122.1 241.597 123.171 241.056 124.407C240.516 125.643 240.31 126.999 240.46 128.34C244.53 130.291 248.75 131.909 253.08 133.18V133.18ZM240.72 124C239.24 123.52 232.72 121.64 231.54 122.56C232 124 238.5 127.38 240 128C239.886 126.627 240.135 125.247 240.72 124ZM95.7202 247.26C98.1349 248.847 100.677 250.232 103.32 251.4C103.346 251.408 103.374 251.407 103.399 251.398C103.424 251.388 103.445 251.37 103.459 251.347C103.473 251.324 103.478 251.297 103.475 251.27C103.472 251.244 103.459 251.219 103.44 251.2C101.023 249.617 98.481 248.233 95.8402 247.06C95.8145 247.052 95.7869 247.053 95.7617 247.062C95.7366 247.072 95.7154 247.09 95.7015 247.113C95.6877 247.136 95.682 247.163 95.6854 247.19C95.6888 247.216 95.701 247.241 95.7202 247.26V247.26ZM52.3602 71.66C52.3602 66.82 52.6402 62.26 52.6402 62.46C52.6533 62.42 52.6788 62.3851 52.7129 62.3604C52.747 62.3357 52.7881 62.3224 52.8302 62.3224C52.8723 62.3224 52.9134 62.3357 52.9475 62.3604C52.9816 62.3851 53.007 62.42 53.0202 62.46C53.0202 63.92 53.2802 65.22 53.3002 71.98C54.7782 71.0181 56.3071 70.1368 57.8802 69.34C57.9012 69.3269 57.9246 69.318 57.949 69.3139C57.9735 69.3098 57.9985 69.3106 58.0226 69.3162C58.0468 69.3217 58.0696 69.332 58.0897 69.3464C58.1099 69.3608 58.1271 69.379 58.1402 69.4C58.1533 69.421 58.1622 69.4444 58.1663 69.4688C58.1704 69.4933 58.1696 69.5183 58.164 69.5424C58.1585 69.5666 58.1482 69.5894 58.1338 69.6096C58.1194 69.6297 58.1012 69.6469 58.0802 69.66C56.7999 70.7102 55.4647 71.6916 54.0802 72.6C56.9602 74.18 57.5402 74.6 58.9202 75.44C60.3002 76.28 60.3202 76.28 60.2202 76.48C60.1202 76.68 60.0202 76.6 58.6402 75.96C57.2602 75.32 56.3202 74.92 53.3002 73.26C53.3002 80.92 53.0002 84.42 53.0002 84.22C52.987 84.26 52.9616 84.2949 52.9275 84.3195C52.8934 84.3442 52.8523 84.3576 52.8102 84.3576C52.7681 84.3576 52.727 84.3442 52.6929 84.3195C52.6588 84.2949 52.6333 84.26 52.6202 84.22C52.6202 82.78 52.3402 81.52 52.3402 73.72C50.7796 74.7538 49.1639 75.7019 47.5002 76.56C47.4792 76.5731 47.4558 76.582 47.4313 76.5861C47.4069 76.5902 47.3819 76.5894 47.3578 76.5838C47.3336 76.5783 47.3108 76.568 47.2906 76.5536C47.2705 76.5392 47.2533 76.521 47.2402 76.5C47.2271 76.479 47.2182 76.4556 47.2141 76.4312C47.21 76.4067 47.2108 76.3817 47.2163 76.3576C47.2219 76.3334 47.2322 76.3106 47.2466 76.2905C47.261 76.2703 47.2792 76.2531 47.3002 76.24C48.8749 74.9504 50.5245 73.755 52.2402 72.66C50.6202 71.76 50.1002 71.44 48.8202 70.66C47.5402 69.88 47.1202 69.64 47.2202 69.42C47.2579 69.3924 47.3034 69.3775 47.3502 69.3775C47.3969 69.3775 47.4425 69.3924 47.4802 69.42C50.0002 70.36 51.5002 71.22 52.3602 71.66V71.66Z" fill="black"/>
<path fill-rule="evenodd" clip-rule="evenodd" d="M95.8401 251.4C98.0806 250.226 100.204 248.839 102.18 247.26C102.32 247.26 102.18 246.98 102.06 247.06C99.8212 248.238 97.6984 249.624 95.7201 251.2C95.6001 251.28 95.7201 251.48 95.8401 251.4ZM157.84 130.8C157.84 136.42 158.04 137.32 158.04 138.34C158.032 138.361 158.028 138.384 158.031 138.407C158.033 138.43 158.041 138.452 158.054 138.471C158.067 138.49 158.084 138.505 158.104 138.516C158.125 138.527 158.147 138.532 158.17 138.532C158.193 138.532 158.216 138.527 158.236 138.516C158.256 138.505 158.273 138.49 158.286 138.471C158.299 138.452 158.307 138.43 158.309 138.407C158.312 138.384 158.309 138.361 158.3 138.34C158.3 138.54 158.52 135.3 158.52 130.46C160.07 131.337 161.666 132.131 163.3 132.84C163.46 132.84 163.6 132.68 163.44 132.6C162.032 131.659 160.577 130.792 159.08 130C160.071 129.389 161.026 128.721 161.94 128C161.967 127.979 161.986 127.95 161.992 127.916C161.999 127.883 161.993 127.848 161.976 127.818C161.959 127.789 161.932 127.767 161.899 127.756C161.867 127.745 161.831 127.747 161.8 127.76C161.8 127.76 160.16 128.6 158.52 129.66C158.52 124.68 158.32 123.66 158.32 122.82C158.32 122.783 158.305 122.747 158.279 122.721C158.253 122.695 158.217 122.68 158.18 122.68C158.143 122.68 158.107 122.695 158.081 122.721C158.055 122.747 158.04 122.783 158.04 122.82C158.04 122.62 157.86 126.04 157.84 129.44C157.26 129.14 156.1 128.52 154.34 127.76C154.18 127.76 154.04 127.92 154.2 128C154.36 128.08 155.68 129.02 157.76 130.16C156.529 130.906 155.34 131.721 154.2 132.6C154.04 132.6 154.2 132.94 154.34 132.84C154.14 132.94 155.64 132.2 157.84 130.8ZM208.12 272.12C205.94 271.22 182.94 269.8 182.74 269.78C182.12 269.78 177.64 270.68 177.34 270.76C177.04 270.84 177.34 270.76 177.34 270.86C179.088 271.659 180.893 272.327 182.74 272.86C184.74 273.28 188.74 273.32 207.7 275.36C208.06 275.36 208.82 274.12 208.38 272.32C208.36 272.26 208.22 272.18 208.12 272.12V272.12ZM182.64 272.66L179.62 271.6C179.737 271.441 179.812 271.256 179.84 271.06C179.868 270.865 179.848 270.666 179.78 270.48C180.758 270.283 181.746 270.143 182.74 270.06C183.22 270.54 181.94 270.72 182.9 271.34C183.02 271.34 183.04 271.34 182.9 271.48C182.849 271.505 182.804 271.541 182.767 271.584C182.731 271.627 182.703 271.677 182.686 271.732C182.669 271.786 182.664 271.843 182.669 271.899C182.675 271.956 182.693 272.011 182.72 272.06C182.88 272.34 183.06 272.46 182.64 272.66V272.66ZM182.88 272.66C183.44 272.36 182.68 271.9 183.06 271.66C183.9 271.08 179.9 271.24 206.32 273.66C206.265 274.072 206.357 274.49 206.58 274.84L182.88 272.66ZM206.34 273.5C205.44 273.4 183.3 271.3 183.16 271.18C183.02 271.06 182.66 270.96 182.84 270.72C183.02 270.48 183.12 270.26 182.84 270.02C183.04 270.02 202.66 271.58 206.84 272.28C206.548 272.639 206.374 273.079 206.34 273.54V273.5ZM207.62 274.88C207.48 274.74 207.46 274.78 207.32 274.38C207.18 273.98 207.32 272.62 207.96 272.62C208.058 273.007 208.079 273.409 208.02 273.804C207.962 274.199 207.826 274.578 207.62 274.92V274.88ZM221.52 215.86C221.498 215.787 221.46 215.719 221.408 215.662C221.356 215.605 221.293 215.56 221.222 215.53C221.151 215.501 221.074 215.488 220.997 215.491C220.921 215.495 220.846 215.516 220.778 215.552C220.71 215.588 220.651 215.639 220.605 215.7C220.559 215.762 220.527 215.833 220.512 215.909C220.497 215.984 220.499 216.062 220.518 216.137C220.536 216.211 220.571 216.281 220.62 216.34C220.82 216.66 221.02 216.98 221.24 217.3C221.27 217.369 221.315 217.431 221.372 217.481C221.429 217.531 221.495 217.568 221.568 217.589C221.64 217.611 221.716 217.616 221.791 217.605C221.865 217.595 221.937 217.568 222 217.527C222.063 217.485 222.117 217.431 222.157 217.367C222.197 217.303 222.222 217.231 222.232 217.157C222.241 217.082 222.235 217.006 222.212 216.934C222.189 216.862 222.151 216.796 222.1 216.74C222 216.46 221.7 216.16 221.52 215.86ZM196.6 173.38C196.72 172.44 197.82 167.66 197.4 167.56C197.377 167.551 197.351 167.547 197.326 167.548C197.301 167.549 197.276 167.555 197.253 167.567C197.231 167.578 197.211 167.594 197.195 167.613C197.179 167.633 197.167 167.656 197.16 167.68C196.593 169.076 196.158 170.523 195.86 172C195.746 172.52 195.673 173.049 195.64 173.58C195.643 173.662 195.666 173.741 195.708 173.811C195.75 173.881 195.809 173.939 195.88 173.98C196.381 174.236 196.922 174.405 197.48 174.48C197.92 174.48 199.48 174.6 199.3 174.18C199.12 173.76 198.88 174.52 196.6 173.38ZM205.58 170.48V169.44C205.58 168.72 204.58 168.62 204.56 169.44V170.58C204.555 170.656 204.566 170.732 204.593 170.802C204.619 170.873 204.661 170.937 204.716 170.99C204.77 171.043 204.835 171.084 204.906 171.109C204.978 171.134 205.054 171.143 205.129 171.136C205.205 171.128 205.278 171.104 205.343 171.066C205.408 171.027 205.464 170.975 205.507 170.913C205.55 170.85 205.579 170.779 205.591 170.704C205.604 170.63 205.6 170.553 205.58 170.48V170.48ZM206.9 176C206.26 178.4 205.4 178.76 204.36 178.88C204.147 178.897 203.933 178.897 203.72 178.88C203.672 178.864 203.62 178.868 203.575 178.89C203.53 178.913 203.496 178.952 203.48 179C203.464 179.048 203.468 179.1 203.49 179.145C203.513 179.19 203.552 179.224 203.6 179.24C205.34 180.24 207.72 179.02 207.28 176C207.267 175.96 207.242 175.925 207.207 175.901C207.173 175.876 207.132 175.863 207.09 175.863C207.048 175.863 207.007 175.876 206.973 175.901C206.939 175.925 206.913 175.96 206.9 176V176ZM214.42 201C214.408 200.935 214.384 200.872 214.348 200.816C214.312 200.76 214.265 200.711 214.21 200.673C214.155 200.635 214.093 200.608 214.028 200.594C213.963 200.58 213.896 200.578 213.83 200.59C213.764 200.602 213.702 200.627 213.646 200.663C213.589 200.699 213.541 200.745 213.503 200.8C213.465 200.855 213.438 200.917 213.424 200.982C213.41 201.047 213.408 201.115 213.42 201.18C213.506 201.553 213.613 201.92 213.74 202.28C213.746 202.357 213.769 202.432 213.807 202.498C213.846 202.565 213.899 202.623 213.962 202.667C214.025 202.711 214.097 202.74 214.173 202.753C214.249 202.765 214.327 202.761 214.401 202.74C214.475 202.718 214.544 202.681 214.602 202.63C214.66 202.579 214.706 202.516 214.736 202.445C214.767 202.375 214.781 202.298 214.778 202.221C214.775 202.144 214.756 202.069 214.72 202C214.6 201.66 214.5 201.32 214.42 201V201ZM194.74 167.5C194.755 167.425 194.753 167.347 194.735 167.272C194.716 167.198 194.681 167.128 194.632 167.069C194.583 167.009 194.522 166.961 194.452 166.929C194.383 166.896 194.307 166.879 194.23 166.879C194.153 166.879 194.077 166.896 194.008 166.929C193.938 166.961 193.877 167.009 193.828 167.069C193.779 167.128 193.744 167.198 193.726 167.272C193.707 167.347 193.705 167.425 193.72 167.5V168.64C193.705 168.716 193.707 168.793 193.726 168.868C193.744 168.943 193.779 169.012 193.828 169.072C193.877 169.131 193.938 169.179 194.008 169.212C194.077 169.245 194.153 169.262 194.23 169.262C194.307 169.262 194.383 169.245 194.452 169.212C194.522 169.179 194.583 169.131 194.632 169.072C194.681 169.012 194.716 168.943 194.735 168.868C194.753 168.793 194.755 168.716 194.74 168.64C194.716 168.261 194.716 167.88 194.74 167.5V167.5ZM352.84 251.28C352.84 251.28 352.72 251.3 352.84 251.28V251.28Z" fill="black"/>
<path fill-rule="evenodd" clip-rule="evenodd" d="M362.82 250C360.6 248.92 355.32 249.82 352.82 250.34C351.902 249.314 350.743 248.533 349.448 248.065C348.153 247.597 346.762 247.458 345.4 247.66C343.16 248.22 342.62 250.98 342.72 253.3C341.28 253.04 339.72 252.86 338.28 252.72C338.4 252.28 338.78 251.66 338.66 251.22C338.595 251.063 338.497 250.922 338.373 250.806C338.248 250.69 338.1 250.603 337.939 250.55C337.777 250.497 337.606 250.479 337.437 250.498C337.268 250.517 337.106 250.572 336.96 250.66C336.561 250.978 336.193 251.333 335.86 251.72C335.86 251.02 336.44 249.9 335.74 249.72C335.04 249.54 332.86 251.5 332.24 252.2C327.647 251.695 323.013 251.695 318.42 252.2C312.407 252.632 306.74 255.175 302.42 259.38C326.74 231.38 337.42 212.14 337.14 188.16C336.86 164.18 308.36 152.74 296.64 152.44C285.26 152.16 273.52 158.44 272.92 158.44C262.64 160.44 235.68 157.46 230.02 159.82C230.089 157.286 229.635 154.765 228.685 152.414C227.735 150.064 226.311 147.935 224.5 146.16C221.26 142.62 216.08 141.3 210.82 141.52C203.32 141.86 195.88 145 192.16 151.52C190.927 153.631 190.201 156 190.04 158.44C190.04 159.06 188.76 169.26 192.04 176.98C192.78 178.935 193.963 180.691 195.497 182.111C197.031 183.53 198.874 184.574 200.88 185.16C197.647 189.446 194.681 193.928 192 198.58C191.38 199.88 191.84 200.58 192.74 200.58C193.64 200.58 194.84 200.34 195.68 200.38C194.36 204 191 213.44 190.18 217.18C186.068 219.949 182.365 223.282 179.18 227.08C173.18 233.96 170.38 241.42 163.58 245.4L161.58 246.52C164.3 238.26 169.44 221.86 167.58 221.84C165.72 221.82 161.2 237.6 158.32 248.3C155.24 250 153.68 251.08 152.6 254.44C152.248 255.29 152.067 256.2 152.067 257.12C152.067 258.04 152.248 258.951 152.6 259.8C152.728 260.073 152.924 260.308 153.17 260.483C153.415 260.658 153.701 260.767 154 260.8C154.24 260.8 154.24 260.58 153.58 262.04C153.266 262.131 152.968 262.272 152.7 262.46L143.08 256.6C142.86 256.6 145.62 256.22 87.08 263.84C85.98 263.02 84.82 262.16 83.62 261.22C54.86 238.84 148.78 214.82 156.3 184.24C163.04 156.86 124.3 151.34 132.9 125.62C141.5 99.9002 197.74 107.1 250.68 104.02C303.62 100.94 324.68 47.5002 286.14 19.6602C247.6 -8.17984 208 31.3602 198.64 41.4602C189.28 51.5602 178.48 64.7802 148.16 63.4602C117.84 62.1402 78.16 67.2802 63.62 111.24C56.62 132.28 62.9 147.04 72.24 158.74C75.3683 155.557 79.2371 153.2 83.5 151.88C85.98 151.28 88.44 151.6 89.14 154.06C90.46 158.58 84.98 165.6 81.8 169.1C89.8 176.82 97.48 183.34 100.5 190.08C105.54 201.4 81.38 209.78 71.18 216.4C60.98 223.02 45.4 243.5 54.96 263.38C55.6782 264.903 56.4794 266.385 57.36 267.82C37.08 270.44 36.38 270.44 36.18 270.56C35.98 270.68 36.04 271.04 36.18 271.24H36.04C37.84 273.24 90.82 348.96 123.34 387.44L123.92 387.56C130.96 384.18 258.72 322.16 251.92 318.34C251.92 318.34 158.52 266.2 156.3 264.88C156.647 264.284 156.948 263.662 157.2 263.02C157.311 263.012 157.415 262.965 157.495 262.889C157.575 262.812 157.626 262.71 157.64 262.6V261.52C158.88 261.94 160.82 260.74 161.82 259.84C163.82 258 166.82 252.88 169.04 252.2C173.467 251.098 177.833 249.762 182.12 248.2C199.94 241.52 207.34 234.04 215.1 221.96C216.382 220.073 217.474 218.063 218.36 215.96C222.888 220.851 228.394 224.735 234.52 227.36C218.36 246.02 220.9 257.86 226.74 264.32C232.08 270.22 240.74 268.14 242.16 267.7C242.16 276.58 245.16 296.3 246.16 298.28C246.68 299.42 244.94 300.28 244.58 302.54C244.391 303.689 244.539 304.867 245.008 305.933C245.477 306.998 246.245 307.904 247.22 308.54C249.44 309.94 253.22 310.02 251.74 307.8C251.246 307.166 250.69 306.583 250.08 306.06C250.66 306.24 251.3 306.48 252.08 306.76C259.38 309.62 260.34 310.92 261.68 310.54C261.86 310.498 262.028 310.418 262.173 310.304C262.319 310.19 262.437 310.045 262.52 309.88C262.68 309.991 262.861 310.066 263.052 310.102C263.242 310.138 263.439 310.133 263.627 310.087C263.816 310.042 263.993 309.957 264.147 309.839C264.301 309.721 264.428 309.571 264.52 309.4C264.588 309.271 264.624 309.127 264.624 308.98C264.624 308.834 264.588 308.69 264.52 308.56C264.774 308.133 264.859 307.627 264.76 307.14C264.76 305.34 257.88 299.46 256.48 298.3C256.68 296.3 257.74 291.86 260.38 280.06C274.02 295.44 319.88 274.06 322.38 272.98C322.8 273.42 339.74 266.2 341.7 265.16C341.5 265.16 363.18 255.36 364 251.76C364 250.92 363.46 250.38 362.82 250V250ZM285.46 68.9202C285.791 68.9306 286.104 69.0707 286.332 69.3102C286.561 69.5497 286.685 69.8694 286.68 70.2002C286.685 70.3647 286.658 70.5286 286.599 70.6824C286.541 70.8361 286.452 70.9767 286.338 71.0958C286.225 71.215 286.089 71.3103 285.938 71.3763C285.787 71.4423 285.625 71.4776 285.46 71.4802C285.295 71.4776 285.131 71.4424 284.979 71.3766C284.827 71.3109 284.69 71.2159 284.575 71.097C284.46 70.9781 284.369 70.8378 284.308 70.6839C284.247 70.53 284.217 70.3656 284.22 70.2002C284.217 70.0347 284.247 69.8703 284.308 69.7164C284.369 69.5625 284.46 69.4222 284.575 69.3033C284.69 69.1844 284.827 69.0894 284.979 69.0237C285.131 68.9579 285.295 68.9228 285.46 68.9202V68.9202ZM274.16 34.0002C274.322 34.0001 274.482 34.0323 274.632 34.0949C274.781 34.1575 274.916 34.2491 275.03 34.3645C275.143 34.4799 275.233 34.6168 275.293 34.7671C275.353 34.9175 275.383 35.0783 275.38 35.2402C275.402 35.4121 275.387 35.5868 275.337 35.7526C275.286 35.9184 275.201 36.0715 275.086 36.2017C274.972 36.3319 274.831 36.4362 274.673 36.5076C274.515 36.5791 274.343 36.616 274.17 36.616C273.997 36.616 273.825 36.5791 273.667 36.5076C273.509 36.4362 273.368 36.3319 273.254 36.2017C273.139 36.0715 273.054 35.9184 273.003 35.7526C272.953 35.5868 272.938 35.4121 272.96 35.2402C272.957 35.0799 272.986 34.9208 273.045 34.7717C273.104 34.6227 273.192 34.4867 273.303 34.3716C273.415 34.2564 273.548 34.1644 273.695 34.1006C273.842 34.0369 274 34.0028 274.16 34.0002ZM236.56 89.1802C236.417 89.1542 236.288 89.0789 236.195 88.9674C236.102 88.8559 236.051 88.7154 236.051 88.5702C236.051 88.425 236.102 88.2844 236.195 88.1729C236.288 88.0614 236.417 87.9861 236.56 87.9602C236.727 87.9602 236.887 88.0265 237.006 88.1447C237.124 88.2628 237.19 88.4231 237.19 88.5902C237.19 88.7572 237.124 88.9175 237.006 89.0356C236.887 89.1538 236.727 89.2202 236.56 89.2202V89.1802ZM231.12 34.2402C231.12 33.4402 233.12 33.0402 234 32.9202C235.454 32.7281 236.926 32.7281 238.38 32.9202C239.281 31.2658 240.39 29.7334 241.68 28.3602C242.1 28.0202 242.48 27.9002 242.86 28.3602C243.764 30.1867 244.346 32.1556 244.58 34.1802C247.68 34.9802 252 36.4602 249.4 38.3202C248.6 38.9002 247.18 39.5002 245.64 40.3202C245.812 41.9341 245.866 43.5584 245.8 45.1802C245.8 45.9202 245.6 47.0402 244.86 47.1802C243.36 47.4402 242.2 45.3602 239.84 43.3202C237.58 44.4402 233.06 46.9202 232.96 44.5402C233.205 42.5102 233.807 40.5397 234.74 38.7202C232.44 36.5402 230.98 35.4802 231.12 34.2802V34.2402ZM229.12 71.0202C229.115 72.4162 228.751 73.7874 228.062 75.0015C227.373 76.2157 226.383 77.2316 225.186 77.9513C223.99 78.6711 222.629 79.0702 221.233 79.1103C219.838 79.1504 218.456 78.83 217.22 78.1802L228.86 68.9402C229.039 69.6329 229.133 70.3448 229.14 71.0602L229.12 71.0202ZM228.62 68.2002C225.42 70.6602 221.12 74.2002 216.82 77.9402C216.496 77.7451 216.189 77.5244 215.9 77.2802C220.08 73.0602 224.18 68.3002 226.72 65.2802C227.556 66.1246 228.21 67.1322 228.64 68.2402L228.62 68.2002ZM226.28 64.8602C225.48 65.7202 218.52 73.5602 215.52 76.8602C214.666 76.076 213.985 75.1224 213.52 74.0602C216.56 71.8602 220.7 68.8002 225.3 65.1802L226.02 64.6002L226.28 64.8602ZM221.02 62.8602C222.624 62.8585 224.192 63.3393 225.52 64.2402L222.7 66.2402C222.06 66.7202 217.2 70.5402 213.36 73.5402C212.953 72.3212 212.84 71.0231 213.03 69.752C213.221 68.481 213.71 67.2732 214.457 66.2275C215.205 65.1818 216.189 64.3278 217.329 63.7356C218.47 63.1434 219.735 62.8297 221.02 62.8202V62.8602ZM201.74 59.5802C201.983 59.5722 202.223 59.6369 202.428 59.766C202.634 59.8952 202.797 60.0828 202.895 60.3049C202.994 60.527 203.024 60.7735 202.981 61.0127C202.939 61.2519 202.826 61.473 202.657 61.6477C202.488 61.8223 202.271 61.9426 202.033 61.993C201.795 62.0434 201.548 62.0217 201.323 61.9306C201.098 61.8396 200.905 61.6833 200.769 61.4819C200.633 61.2805 200.56 61.0431 200.56 60.8002C200.58 60.496 200.716 60.2109 200.939 60.0029C201.161 59.7949 201.455 59.6795 201.76 59.6802L201.74 59.5802ZM190.72 89.8602C191.187 89.8759 191.639 90.0287 192.02 90.2996C192.401 90.5704 192.693 90.9474 192.861 91.3834C193.029 91.8195 193.065 92.2953 192.964 92.7516C192.863 93.2079 192.631 93.6244 192.295 93.9493C191.959 94.2742 191.535 94.4931 191.076 94.5786C190.616 94.6641 190.142 94.6126 189.712 94.4303C189.281 94.2481 188.914 93.9432 188.656 93.5537C188.398 93.1643 188.26 92.7074 188.26 92.2402C188.276 91.6 188.543 90.9917 189.003 90.5465C189.463 90.1012 190.08 89.8547 190.72 89.8602V89.8602ZM159.6 84.2202C160.46 84.2202 160.46 85.7602 159.6 85.7602C158.74 85.7602 158.72 84.2202 159.6 84.2202ZM78.26 128.44C78.1651 128.457 78.0677 128.453 77.9746 128.428C77.8816 128.403 77.7951 128.358 77.7213 128.296C77.6475 128.234 77.5881 128.156 77.5474 128.069C77.5067 127.982 77.4856 127.887 77.4856 127.79C77.4856 127.694 77.5067 127.599 77.5474 127.511C77.5881 127.424 77.6475 127.347 77.7213 127.285C77.7951 127.223 77.8816 127.178 77.9746 127.153C78.0677 127.128 78.1651 127.123 78.26 127.14C78.3549 127.123 78.4524 127.128 78.5454 127.153C78.6385 127.178 78.725 127.223 78.7988 127.285C78.8726 127.347 78.932 127.424 78.9727 127.511C79.0134 127.599 79.0345 127.694 79.0345 127.79C79.0345 127.887 79.0134 127.982 78.9727 128.069C78.932 128.156 78.8726 128.234 78.7988 128.296C78.725 128.358 78.6385 128.403 78.5454 128.428C78.4524 128.453 78.3549 128.457 78.26 128.44ZM121.26 206.96C120.991 206.929 120.737 206.821 120.529 206.649C120.32 206.477 120.166 206.248 120.085 205.99C120.003 205.731 119.999 205.455 120.071 205.195C120.144 204.934 120.29 204.7 120.492 204.521C120.695 204.341 120.945 204.225 121.213 204.185C121.48 204.145 121.754 204.183 122 204.295C122.246 204.407 122.455 204.588 122.6 204.816C122.746 205.044 122.822 205.31 122.82 205.58C122.794 205.969 122.616 206.333 122.324 206.591C122.032 206.849 121.649 206.982 121.26 206.96V206.96ZM126 73.2002C126.274 73.1962 126.543 73.2737 126.772 73.4229C127.002 73.5722 127.182 73.7863 127.289 74.0381C127.397 74.2898 127.427 74.5679 127.376 74.8369C127.325 75.1059 127.195 75.3537 127.003 75.5487C126.811 75.7437 126.565 75.8771 126.297 75.932C126.028 75.9869 125.75 75.9608 125.497 75.8569C125.243 75.7531 125.027 75.5762 124.874 75.3489C124.722 75.1215 124.64 74.8539 124.64 74.5802C124.64 74.2176 124.783 73.8696 125.037 73.6114C125.292 73.3531 125.638 73.2054 126 73.2002V73.2002ZM127.16 145.02C127.158 145.215 127.1 145.406 126.993 145.57C126.886 145.733 126.734 145.862 126.556 145.942C126.378 146.021 126.18 146.048 125.987 146.019C125.794 145.99 125.613 145.905 125.467 145.776C125.32 145.647 125.213 145.479 125.159 145.291C125.106 145.103 125.107 144.904 125.163 144.717C125.219 144.53 125.328 144.363 125.476 144.236C125.625 144.109 125.807 144.027 126 144C126.141 143.989 126.282 144.007 126.415 144.054C126.548 144.1 126.67 144.173 126.774 144.269C126.877 144.365 126.959 144.481 127.015 144.61C127.072 144.74 127.1 144.879 127.1 145.02H127.16ZM127.62 174.56C128.82 173.62 132.36 170.7 133.42 171.62C134.48 172.54 133.56 174.48 133.42 177.24C135.64 178.3 140.24 180.32 138.44 181.6C136.677 182.462 134.786 183.029 132.84 183.28C132.5 186.18 132.52 187.66 131.54 188.16C130.86 188.48 129.36 187.26 128.8 186.74C127.724 185.822 126.782 184.759 126 183.58C124.173 183.801 122.327 183.801 120.5 183.58C120.02 183.46 119.66 183.24 119.76 182.76C119.98 181.66 122.46 179.32 123.28 178.54C122.76 177.4 121.54 174.54 121.96 173.4C122.56 171.82 125.14 173.56 127.56 174.56H127.62ZM121.12 110.12C121.54 110.12 121.76 110.42 121.7 110.94C121.281 112.424 120.648 113.839 119.82 115.14C120.678 116.038 121.411 117.047 122 118.14C124 122 121.22 121.02 117.1 120.14C116.129 121.585 114.894 122.833 113.46 123.82C111.6 124.74 111.18 120.82 110.86 118.6C108.04 117.86 105.8 117.96 105.22 116.82C104.64 115.68 108.96 113.94 110.2 113.38C110.06 111.38 109.2 108.7 110.92 108.78C112.663 109.307 114.264 110.223 115.6 111.46C117.358 110.724 119.221 110.272 121.12 110.12V110.12ZM95.64 166C95.417 166.036 95.1888 166.023 94.9712 165.963C94.7536 165.902 94.5518 165.794 94.3798 165.648C94.2078 165.502 94.0696 165.319 93.9749 165.114C93.8801 164.909 93.831 164.686 93.831 164.46C93.831 164.234 93.8801 164.011 93.9749 163.806C94.0696 163.601 94.2078 163.419 94.3798 163.272C94.5518 163.126 94.7536 163.019 94.9712 162.958C95.1888 162.897 95.417 162.884 95.64 162.92C95.8631 162.884 96.0913 162.897 96.3089 162.958C96.5264 163.019 96.7282 163.126 96.9003 163.272C97.0723 163.419 97.2105 163.601 97.3052 163.806C97.4 164.011 97.449 164.234 97.449 164.46C97.449 164.686 97.4 164.909 97.3052 165.114C97.2105 165.319 97.0723 165.502 96.9003 165.648C96.7282 165.794 96.5264 165.902 96.3089 165.963C96.0913 166.023 95.8631 166.036 95.64 166V166ZM84.36 105.58C84.2863 105.562 84.2209 105.519 84.1741 105.46C84.1273 105.4 84.1019 105.326 84.1019 105.25C84.1019 105.174 84.1273 105.1 84.1741 105.041C84.2209 104.981 84.2863 104.938 84.36 104.92C88.74 104.62 93.72 104.48 98.1 104.48C94.4497 101.92 90.5418 99.7481 86.44 98.0002C86.3532 97.9734 86.2796 97.9149 86.2341 97.8362C86.1886 97.7574 86.1746 97.6644 86.1949 97.5758C86.2151 97.4872 86.2682 97.4096 86.3433 97.3584C86.4185 97.3073 86.5102 97.2865 86.6 97.3002C91.1462 97.3487 95.6183 98.4582 99.66 100.54C97.0016 97.891 94.1901 95.4001 91.24 93.0802C91.1768 93.029 91.1341 92.9568 91.1195 92.8768C91.105 92.7968 91.1196 92.7142 91.1607 92.644C91.2018 92.5738 91.2668 92.5207 91.3437 92.4943C91.4206 92.4679 91.5045 92.47 91.58 92.5002C96.6214 94.1258 101.354 96.5867 105.58 99.7802C109.752 102.837 113.371 106.584 116.28 110.86C116.28 111.04 116.1 111.18 115.98 111C113.072 106.752 109.46 103.032 105.3 100C101.594 97.282 97.5108 95.1192 93.18 93.5802C94.64 94.7602 100.56 99.5802 101.34 101.36C101.5 101.68 101.1 101.98 100.76 101.78C98.6241 100.59 96.355 99.6574 94 99.0002C92.1647 98.4512 90.2722 98.1156 88.36 98.0002C90.66 99.1002 97.8 102.6 99.26 104.68C99.2974 104.736 99.3185 104.801 99.3209 104.868C99.3233 104.935 99.307 105.001 99.2737 105.059C99.2404 105.118 99.1916 105.165 99.1326 105.197C99.0737 105.229 99.007 105.244 98.94 105.24C98.72 105.24 93.2 105.24 87.34 105.44C94.26 106.76 103.34 109.3 109.12 113.44C109.28 113.56 109.12 113.8 108.92 113.68C102.64 109.3 91.78 106.58 84.36 105.58V105.58ZM197.6 146.88C204.42 141.74 217.94 140.38 223.86 146.88C225.604 148.58 226.974 150.625 227.883 152.884C228.792 155.143 229.22 157.566 229.14 160C228.674 164.411 226.777 168.548 223.74 171.78C223.38 172.14 223.38 171.78 223.5 171.6C223.844 171.106 224.072 170.54 224.167 169.946C224.262 169.351 224.221 168.742 224.048 168.166C223.875 167.589 223.574 167.059 223.168 166.614C222.761 166.17 222.259 165.823 221.7 165.6C217.92 163.88 216.78 170.22 214.02 171C211.62 171.7 212.52 166.1 212.7 162.36C212.952 160.716 212.573 159.037 211.64 157.66C209.979 155.878 207.924 154.508 205.64 153.66C201.635 152.047 197.286 151.476 193 152C194.17 149.999 195.735 148.257 197.6 146.88V146.88ZM192.86 176.7C189.56 168.9 191 158.54 191 158.54C191.161 156.437 191.768 154.391 192.78 152.54C197.102 152.101 201.464 152.79 205.44 154.54C207.603 155.35 209.552 156.643 211.14 158.32C213.14 160.96 211.14 166 211.78 169.94C212.02 171.48 212.74 172.46 214.24 171.94C217.34 171.06 218.38 165.18 221.36 166.54C224.34 167.9 223.8 171.8 220.28 173.28C218.92 173.86 219.04 175.16 220.08 175.28C220.62 175.28 221.68 174.98 223.3 173.68C225.672 171.361 227.538 168.576 228.78 165.5C231.561 166.087 234.251 167.042 236.78 168.34C240.34 169.96 244.54 172.22 247.86 174.16C242.8 175.367 238.188 177.987 234.562 181.716C230.936 185.445 228.445 190.129 227.38 195.22C226.62 195.22 226.68 194.14 226.16 193.74C225.64 193.34 225.32 193.74 224.7 193.94C224.712 193.448 224.602 192.96 224.38 192.52C224.38 191.36 222.48 192.04 221.38 192.4C221.393 191.904 221.319 191.41 221.16 190.94C221.62 189.46 218.94 190.2 217.44 190.62C217.553 190.052 217.553 189.468 217.44 188.9C217.58 187.74 215.04 188.48 213.98 188.9C214.071 188.232 214.03 187.553 213.86 186.9C213.3 186.12 210.34 187.76 210.22 187.02C210.23 186.472 210.338 185.93 210.54 185.42C210.88 184.2 209.22 184.96 208.74 184.88C208.722 184.891 208.701 184.896 208.68 184.896C208.659 184.896 208.638 184.891 208.62 184.88V184.64C210.293 184.182 211.899 183.509 213.4 182.64C214.163 183.764 215.306 184.574 216.62 184.92C217.813 185.276 219.083 185.279 220.278 184.929C221.473 184.58 222.541 183.893 223.355 182.95C224.168 182.008 224.692 180.851 224.863 179.618C225.035 178.385 224.846 177.128 224.32 176C224.32 175.78 223.88 176 223.98 176.14C224.239 176.906 224.34 177.717 224.278 178.524C224.216 179.33 223.991 180.116 223.617 180.833C223.244 181.55 222.729 182.185 222.104 182.698C221.479 183.211 220.756 183.593 219.98 183.82L215.14 180.84C214.96 180.72 214.98 180.84 213.92 181.52C213.255 180.207 213.077 178.701 213.417 177.269C213.758 175.838 214.595 174.573 215.78 173.7C217.177 172.763 218.839 172.3 220.52 172.38C220.56 172.367 220.595 172.342 220.62 172.307C220.644 172.273 220.658 172.232 220.658 172.19C220.658 172.148 220.644 172.107 220.62 172.073C220.595 172.039 220.56 172.013 220.52 172C218.719 171.782 216.897 172.169 215.34 173.1C213.926 174.039 212.912 175.47 212.495 177.115C212.077 178.759 212.286 180.501 213.08 182C209.535 184.017 205.467 184.929 201.4 184.62C199.45 184.073 197.659 183.069 196.174 181.691C194.689 180.314 193.553 178.603 192.86 176.7V176.7ZM224 194.46C224.526 194.348 225.036 194.173 225.52 193.94C226.4 193.62 226.16 195.38 227.28 195.4C227.08 196.34 226.96 197.08 226.9 197.54C225.96 197.2 225.08 196.82 224.2 196.46C224.239 195.787 224.171 195.112 224 194.46V194.46ZM224 194.02C224 194.02 224 193.92 224.2 193.24C224.25 193.492 224.352 193.731 224.5 193.94L224 194V194.02ZM223.8 194.4C223.698 195.063 223.698 195.737 223.8 196.4C222.4 195.82 221.1 195.22 219.8 194.62C219.799 194.243 219.724 193.869 219.58 193.52C220.5 193.52 223.58 192.04 223.72 192.48C223.86 192.92 223.14 194 223.8 194.4ZM219.38 193.38C219.376 193.692 219.423 194.003 219.52 194.3C219 194.06 216.86 192.98 216.32 192.7C216.31 192.273 216.243 191.849 216.12 191.44C217.319 191.275 218.503 191.014 219.66 190.66C219.8 190.66 220.7 190.54 220.62 190.66C220.54 191.24 218.5 192.92 219.38 193.38ZM215.88 192.46C214.86 191.92 213.88 191.4 213.12 190.92C213.133 190.496 213.059 190.074 212.9 189.68C213.222 189.735 213.554 189.679 213.84 189.52C214.759 189.102 215.751 188.864 216.76 188.82C216.337 189.308 215.974 189.845 215.68 190.42C215.601 191.107 215.669 191.802 215.88 192.46V192.46ZM212.66 190.66L210.44 189.32C210.485 188.727 210.424 188.131 210.26 187.56C210.9 187.7 212.56 187.04 213.32 187.1C212.958 187.59 212.631 188.105 212.34 188.64C212.34 189.326 212.448 190.008 212.66 190.66V190.66ZM213.52 187.76C213.47 188.159 213.47 188.562 213.52 188.96C213.38 188.96 212.92 189.18 212.88 188.96C212.84 188.74 213.28 188 213.52 187.76ZM217.04 189.48C217.028 189.872 217.075 190.263 217.18 190.64C216.872 190.754 216.548 190.814 216.22 190.82C216.22 190.82 216.14 190.54 217.04 189.48V189.48ZM220.88 191.48C220.906 191.809 220.98 192.133 221.1 192.44C220.702 192.592 220.294 192.719 219.88 192.82C220.12 192.46 220.44 192 220.88 191.46V191.48ZM209.86 187.32C209.85 187.921 209.924 188.52 210.08 189.1C209.739 188.892 209.406 188.672 209.08 188.44L208.62 185.08C209.12 185.08 210.16 184.78 210.16 185.08C210.16 185.38 209.32 186.7 209.86 187.3V187.32ZM214.14 181.92C214.42 181.74 214.72 181.52 215 181.3L219.4 184C218.424 184.197 217.412 184.113 216.481 183.759C215.551 183.405 214.739 182.796 214.14 182V181.92ZM192.72 199.68C192.24 199.54 195 195.26 195.32 194.76C196.3 193.18 201.04 185.86 201.44 185.26C203.093 185.357 204.751 185.257 206.38 184.96C206.7 196.8 208.84 201.72 211.44 206.34C210.1 205.92 208.74 206.54 207.56 206.12C205.9 205.56 205.96 203.16 203.56 203.02C201.992 203.205 200.483 203.73 199.14 204.56C198.6 204.78 198.48 204.56 198.34 204.32C198.142 202.968 197.848 201.631 197.46 200.32C196.54 198.74 193.66 200 192.72 199.68ZM142.86 257.12L152.3 262.82C151.75 263.339 151.154 263.808 150.52 264.22C148.98 265.04 147.38 264.42 147.36 265.64C138.74 268.94 125.76 284.16 141.94 298.06C162.62 315.8 186.16 322.88 164.26 339.8C158.26 344.5 152.08 343.8 144.94 339.18C137.1 334.04 137.18 311.4 129.66 297.42C117.16 274.16 112 282 87.84 264.52L142.86 257.12ZM170.64 341.12C170.614 341.12 170.588 341.115 170.564 341.105C170.539 341.095 170.517 341.08 170.499 341.062C170.48 341.043 170.465 341.021 170.455 340.997C170.445 340.972 170.44 340.946 170.44 340.92C170.44 340.894 170.445 340.868 170.455 340.844C170.465 340.819 170.48 340.797 170.499 340.779C170.517 340.76 170.539 340.745 170.564 340.735C170.588 340.725 170.614 340.72 170.64 340.72C170.68 340.733 170.715 340.759 170.74 340.793C170.764 340.827 170.778 340.868 170.778 340.91C170.778 340.952 170.764 340.993 170.74 341.027C170.715 341.062 170.68 341.087 170.64 341.1V341.12ZM160.4 347.12C160.316 347.136 160.23 347.133 160.147 347.112C160.065 347.09 159.988 347.051 159.923 346.997C159.857 346.942 159.804 346.874 159.768 346.797C159.732 346.72 159.713 346.635 159.713 346.55C159.713 346.465 159.732 346.381 159.768 346.304C159.804 346.226 159.857 346.158 159.923 346.104C159.988 346.049 160.065 346.01 160.147 345.989C160.23 345.967 160.316 345.964 160.4 345.98C160.562 345.98 160.717 346.044 160.831 346.159C160.946 346.273 161.01 346.428 161.01 346.59C161.01 346.752 160.946 346.907 160.831 347.021C160.717 347.136 160.562 347.2 160.4 347.2V347.12ZM134.64 345.72C134.845 345.126 135.149 344.572 135.54 344.08C134.64 342.84 134.1 342.22 135.66 342.3C136.117 342.334 136.568 342.428 137 342.58C138.6 340.82 138.88 340.94 138.82 343.34C139.22 343.54 140.16 344.02 140.34 344.42C140.52 344.82 139.5 345.06 138.78 345.28C138.78 345.76 138.6 347.28 138.14 347.28C137.68 347.28 137.42 346.54 136.82 345.78C136 346 134.54 346.52 134.64 345.8V345.72ZM134.38 320.24C134.296 320.256 134.21 320.253 134.127 320.232C134.045 320.21 133.968 320.171 133.903 320.117C133.837 320.062 133.784 319.994 133.748 319.917C133.712 319.84 133.693 319.755 133.693 319.67C133.693 319.585 133.712 319.501 133.748 319.424C133.784 319.346 133.837 319.278 133.903 319.224C133.968 319.169 134.045 319.13 134.127 319.109C134.21 319.087 134.296 319.084 134.38 319.1C134.542 319.1 134.697 319.164 134.811 319.279C134.926 319.393 134.99 319.548 134.99 319.71C134.99 319.872 134.926 320.027 134.811 320.141C134.697 320.256 134.542 320.32 134.38 320.32V320.24ZM110.22 291.24C110.136 291.256 110.05 291.253 109.967 291.232C109.885 291.21 109.808 291.171 109.743 291.117C109.677 291.062 109.624 290.994 109.588 290.917C109.552 290.84 109.533 290.755 109.533 290.67C109.533 290.585 109.552 290.501 109.588 290.424C109.624 290.346 109.677 290.278 109.743 290.224C109.808 290.169 109.885 290.13 109.967 290.109C110.05 290.087 110.136 290.084 110.22 290.1C110.304 290.084 110.39 290.087 110.473 290.109C110.555 290.13 110.632 290.169 110.698 290.224C110.763 290.278 110.816 290.346 110.852 290.424C110.888 290.501 110.907 290.585 110.907 290.67C110.907 290.755 110.888 290.84 110.852 290.917C110.816 290.994 110.763 291.062 110.698 291.117C110.632 291.171 110.555 291.21 110.473 291.232C110.39 291.253 110.304 291.256 110.22 291.24V291.24ZM102.22 278.76C102.136 278.776 102.05 278.773 101.967 278.752C101.885 278.73 101.808 278.691 101.743 278.637C101.677 278.582 101.624 278.514 101.588 278.437C101.552 278.36 101.533 278.275 101.533 278.19C101.533 278.105 101.552 278.021 101.588 277.944C101.624 277.866 101.677 277.798 101.743 277.744C101.808 277.689 101.885 277.65 101.967 277.629C102.05 277.607 102.136 277.604 102.22 277.62C102.303 277.601 102.389 277.6 102.472 277.617C102.555 277.634 102.633 277.67 102.701 277.721C102.769 277.772 102.825 277.837 102.865 277.912C102.905 277.987 102.928 278.069 102.932 278.154C102.937 278.239 102.922 278.324 102.89 278.402C102.859 278.481 102.81 278.552 102.748 278.61C102.685 278.667 102.611 278.711 102.531 278.737C102.45 278.763 102.364 278.771 102.28 278.76H102.22ZM78.76 274.76C78.8438 274.744 78.93 274.747 79.0126 274.769C79.0951 274.79 79.1719 274.829 79.2375 274.884C79.3032 274.938 79.356 275.006 79.3922 275.084C79.4285 275.161 79.4473 275.245 79.4473 275.33C79.4473 275.415 79.4285 275.5 79.3922 275.577C79.356 275.654 79.3032 275.722 79.2375 275.777C79.1719 275.831 79.0951 275.87 79.0126 275.892C78.93 275.913 78.8438 275.916 78.76 275.9C78.6758 275.911 78.5903 275.903 78.5095 275.877C78.4287 275.851 78.3546 275.807 78.2924 275.75C78.2302 275.692 78.1815 275.621 78.1496 275.542C78.1178 275.464 78.1036 275.379 78.108 275.294C78.1125 275.209 78.1355 275.127 78.1754 275.052C78.2154 274.977 78.2713 274.912 78.3392 274.861C78.4071 274.81 78.4853 274.774 78.5684 274.757C78.6515 274.74 78.7374 274.741 78.82 274.76H78.76ZM65.58 234.76C66.4072 234.094 67.3494 233.586 68.36 233.26C68.36 230.66 68.16 229.26 70.22 230.8C70.8217 231.291 71.3592 231.855 71.82 232.48C72.7484 232.199 73.7104 232.045 74.68 232.02C74.96 232.02 75.14 232.18 75.12 232.46C74.7783 233.492 74.2644 234.459 73.6 235.32C74.177 236.218 74.5334 237.239 74.64 238.3C74.46 239.28 72.92 238.42 71.68 238.06C71.14 238.7 69.48 240.82 68.86 240.34C68.24 239.86 68.58 238.62 68.5 236.94C67.28 236.5 64.8 235.7 65.64 234.76H65.58ZM58.22 252.4C58.3038 252.384 58.39 252.387 58.4726 252.409C58.5551 252.43 58.6319 252.469 58.6975 252.524C58.7632 252.578 58.816 252.646 58.8522 252.724C58.8885 252.801 58.9073 252.885 58.9073 252.97C58.9073 253.055 58.8885 253.14 58.8522 253.217C58.816 253.294 58.7632 253.362 58.6975 253.417C58.6319 253.471 58.5551 253.51 58.4726 253.532C58.39 253.553 58.3038 253.556 58.22 253.54C58.1358 253.551 58.0503 253.543 57.9695 253.517C57.8887 253.491 57.8146 253.447 57.7524 253.39C57.6902 253.332 57.6415 253.261 57.6096 253.182C57.5778 253.104 57.5636 253.019 57.568 252.934C57.5725 252.849 57.5955 252.767 57.6354 252.692C57.6754 252.617 57.7313 252.552 57.7992 252.501C57.8671 252.45 57.9453 252.414 58.0284 252.397C58.1115 252.38 58.1974 252.381 58.28 252.4H58.22ZM251.12 318.82C243.8 328.36 134.5 381.4 123.86 386.54C98.88 356.88 60 302.8 37.2 271.24L57.8 268.54C70.64 288.8 90.32 284.1 100.88 290.54C112.76 297.8 118.88 303.28 122.48 317.36C127.38 336.5 121.2 344.76 135.52 350.86C149.24 356.68 176.48 354.34 187.52 335.4C198.56 316.46 176.94 308.18 157.52 299.4C138.1 290.62 141.52 278.46 144.16 275.02C146.176 272.403 148.514 270.051 151.12 268.02C152.105 268.023 153.074 267.769 153.931 267.281C154.787 266.793 155.5 266.089 156 265.24C158.34 266.5 247.1 316.52 251.18 318.82H251.12ZM177.12 342.4C177.146 342.4 177.172 342.405 177.197 342.415C177.221 342.425 177.243 342.44 177.261 342.459C177.28 342.477 177.295 342.499 177.305 342.524C177.315 342.548 177.32 342.574 177.32 342.6C177.32 342.626 177.315 342.652 177.305 342.677C177.295 342.701 177.28 342.723 177.261 342.742C177.243 342.76 177.221 342.775 177.197 342.785C177.172 342.795 177.146 342.8 177.12 342.8C177.094 342.799 177.068 342.792 177.044 342.781C177.02 342.77 176.999 342.754 176.982 342.734C176.964 342.715 176.95 342.692 176.941 342.667C176.933 342.643 176.929 342.616 176.93 342.59C176.931 342.564 176.938 342.538 176.949 342.514C176.96 342.491 176.976 342.469 176.996 342.452C177.015 342.434 177.038 342.42 177.063 342.412C177.088 342.403 177.114 342.399 177.14 342.4H177.12ZM182.24 322.14C182 322.3 181.64 322.14 181.08 321.86C180.2 322.84 179.78 323.12 179.88 321.46C179.02 321.18 178.54 321.04 179.34 320.58C179.58 320.449 179.835 320.349 180.1 320.28C180.32 318.9 180.5 318.88 181.26 320.04C181.628 319.949 182.012 319.949 182.38 320.04C182.66 320.2 182.2 320.58 181.88 320.96C182 321.24 182.48 322 182.26 322.14H182.24ZM152.72 266.82C151.948 267.075 151.121 267.107 150.332 266.912C149.543 266.718 148.825 266.304 148.26 265.72H148.44C152.22 265.14 151.66 263.58 153.62 262.62C153.8 262.82 153.62 262.76 156.8 263C155.997 264.762 154.531 266.135 152.72 266.82V266.82ZM157.34 258.82C157.051 259.358 156.939 259.974 157.02 260.58C157.02 260.72 156.88 261.36 156.8 261.96L154.64 261.78C154.64 261.68 156.06 258.3 156.16 257.98H157.52L157.34 258.82ZM156.94 253.2C155.56 255.78 154.94 260.58 153.72 259.74C153.294 259.299 153.051 258.713 153.04 258.1C152.976 256.946 153.139 255.791 153.52 254.7C153.846 253.555 154.42 252.496 155.201 251.597C155.982 250.698 156.951 249.983 158.04 249.5C156.98 253.58 157.28 252.66 156.94 253.28V253.2ZM158.38 256.22C158.7 255.28 159.14 253.9 159.76 252.1C160.02 251.96 160.08 252.1 160.42 252.94C160.96 254.34 157.8 257.9 157.8 257.9C158 257.32 158.22 256.76 158.38 256.3V256.22ZM214.86 221.56C207.8 232.18 202.56 236.94 194.32 241.56C186.287 245.833 177.746 249.072 168.9 251.2C165.34 252.3 162.36 260.2 158.46 260.56C158.02 260.56 157.72 260.56 158.08 259.56C158.98 257.06 162.24 254.98 161.3 252.6C161.181 252.242 161.02 251.9 160.82 251.58C160.658 251.319 160.411 251.121 160.12 251.02C160.24 250.62 160.64 249.46 161.18 247.82C161.64 247.5 161.96 247.4 164.06 246.16C171.1 242 173.86 234.54 179.78 227.56C182.907 223.735 186.556 220.369 190.62 217.56C190.92 217.38 190.42 217.68 192.74 210.36C194.08 206.14 195.64 201.68 196.1 200.36C196.187 200.372 196.269 200.404 196.342 200.452C196.415 200.501 196.476 200.565 196.52 200.64C197.04 201.62 196.94 203.5 197.38 204.64C198.42 207.16 201 203.78 203.38 203.84C205.38 203.84 205.38 206.14 207.38 206.72C208.88 207.16 210.38 206.24 211.78 206.9C213.614 210.019 215.773 212.935 218.22 215.6C217.311 217.724 216.185 219.748 214.86 221.64V221.56ZM227.14 222.2C221.086 217.873 216.026 212.302 212.3 205.86C209.84 201.58 207.56 196.8 206.78 184.8C207.252 184.718 207.719 184.611 208.18 184.48L208.6 188.48C210.803 190.148 213.13 191.646 215.56 192.96C215.56 192.96 213.86 202.58 221.56 214.96C225.26 221.04 227.14 222.28 227.14 222.28V222.2ZM264.32 248C264.68 252.36 260.72 276.16 260.18 279.4C260.148 279.412 260.119 279.431 260.095 279.455C260.071 279.479 260.052 279.508 260.04 279.54C260.3 278.56 255.8 293.7 255.46 298.44C255.46 298.82 255.46 298.64 258.88 301.6C260.04 302.62 264.02 306 264.22 307.18C264.312 307.487 264.312 307.814 264.22 308.12C262.434 306.227 260.302 304.693 257.94 303.6C257.898 303.574 257.846 303.565 257.798 303.576C257.749 303.588 257.707 303.618 257.68 303.66C257.654 303.703 257.645 303.754 257.656 303.803C257.667 303.851 257.698 303.894 257.74 303.92L259.36 305.24C260.98 306.341 262.47 307.622 263.8 309.06C263.6 309.56 263.16 309.6 262.64 309.46C262.64 308.42 258.08 305.9 256.64 305.04C256.42 304.92 256.22 305.24 256.44 305.36C258.449 306.52 260.32 307.902 262.02 309.48C261.38 310.92 259.44 308.86 252.38 305.96C251.108 305.388 249.761 304.998 248.38 304.8C248.286 304.794 248.193 304.818 248.114 304.868C248.035 304.918 247.974 304.993 247.94 305.08C247.76 305.6 248.32 305.58 250.12 307.4C250.503 307.736 250.833 308.127 251.1 308.56C249.902 308.702 248.691 308.419 247.68 307.76C246.879 307.224 246.246 306.472 245.857 305.59C245.467 304.708 245.336 303.733 245.48 302.78C245.82 300.78 247.8 299.76 246.98 297.98C246.16 296.2 244.48 284.64 244.24 282.98C242.02 267.96 242.86 267.64 242.44 267.52C242.44 246.68 243.1 246.6 242.94 245.52C242.94 245.3 238.46 214.54 238.42 214.3C239.74 214.3 240.68 215.76 241.42 216.96C242.5 218.68 243.42 219.8 245.58 219.14C247.74 218.48 249.58 216.66 251.58 215.94C253.58 215.22 254.64 215.94 256.82 216.64C257.66 217.041 258.609 217.155 259.519 216.963C260.43 216.772 261.253 216.286 261.86 215.58C265.34 212.68 263.7 211.96 270.82 214.76C269.44 220.14 266.34 235.34 266.28 235.58C265.017 239.601 264.356 243.786 264.32 248V248ZM238.18 213.32C236.611 213.886 235.081 214.554 233.6 215.32C233.26 215.32 233.12 215.32 233.02 214.92C232.4 212.06 239.68 178.2 257.82 176.92C266.1 176.36 271.82 191.22 274.32 199.14C275.965 204.174 277.241 209.321 278.14 214.54C278.5 218.16 267.94 211.38 264.9 212.08C263.7 212.36 263.16 213.38 261.44 214.82C259.72 216.26 258.84 216.26 257.32 215.72C255.524 214.737 253.42 214.479 251.44 215C249.32 215.76 247.56 217.54 245.44 218.2C243.64 218.78 243.08 217.54 242.06 215.94C241.04 214.34 240 212.98 238.18 213.24V213.32ZM267.98 232.2C268.82 228.88 270.3 222 271.4 214.8C273.24 215.52 277.26 217.28 278.6 216C278.799 215.786 278.944 215.527 279.02 215.245C279.097 214.962 279.104 214.666 279.04 214.38C278.315 210.159 277.313 205.99 276.04 201.9C273.36 193 267.1 175.9 257.78 176.48C238.86 177.8 231.48 211.94 232.12 215.02C232.139 215.218 232.202 215.409 232.306 215.579C232.41 215.748 232.552 215.892 232.72 215.998C232.888 216.104 233.078 216.17 233.276 216.192C233.473 216.213 233.673 216.188 233.86 216.12C235 215.84 236.62 214.6 238.1 214.26C238.32 217.9 238.74 222.74 239.62 229C236.246 227.673 232.988 226.067 229.88 224.2C223.605 218.106 219.182 210.361 217.12 201.86C216.417 199.078 216.015 196.228 215.92 193.36C219.552 195.388 223.321 197.159 227.2 198.66C227.264 198.685 227.334 198.695 227.403 198.689C227.472 198.682 227.538 198.659 227.596 198.622C227.655 198.585 227.704 198.535 227.739 198.476C227.775 198.416 227.795 198.349 227.8 198.28C228.531 192.63 230.926 187.325 234.68 183.04C238.505 178.802 243.586 175.9 249.18 174.76C249.27 174.745 249.354 174.703 249.419 174.638C249.484 174.573 249.527 174.49 249.542 174.4C249.558 174.31 249.545 174.217 249.505 174.135C249.465 174.052 249.4 173.984 249.32 173.94C245.358 171.654 241.272 169.591 237.08 167.76C234.483 166.554 231.76 165.641 228.96 165.04C229.502 163.548 229.865 161.998 230.04 160.42C234.04 158.72 254.22 161.22 267.82 159.8C269.88 159.673 271.923 159.345 273.92 158.82C286.18 158.48 304.64 173.56 308.04 180.36C311.44 187.16 310.9 195.66 303.36 206.24C296.26 216.14 270.74 230.58 268 232.12L267.98 232.2ZM322.4 272.58C325.18 263.82 320.78 255.62 319.2 253.08L332.44 252.72C334.144 253.729 335.445 255.298 336.12 257.16C337.206 259.948 337.781 262.909 337.82 265.9C333.86 267.68 326.52 271.04 322.4 272.5V272.58ZM338.68 265.36C338.57 262.43 337.891 259.55 336.68 256.88C335.878 254.996 334.47 253.434 332.68 252.44C333.478 251.584 334.445 250.903 335.52 250.44C335.52 251.08 334.74 252.44 335.68 252.58C336.62 252.72 336.72 251.8 337.3 251.5C337.54 251.38 338.02 251.36 337.82 251.88C337.62 252.4 337.18 253.18 337.64 253.88C337.979 254.279 338.445 254.547 338.96 254.64C339.08 254.64 338.28 255.2 338.06 255.84C338.008 255.991 338.016 256.157 338.083 256.303C338.15 256.448 338.271 256.562 338.42 256.62C339.1 256.88 340.28 256.2 341.02 256.94C341.32 257.26 341.16 257.56 340.78 257.78C339.86 258.36 339.74 259.04 340.6 259.78C341.032 260.081 341.416 260.445 341.74 260.86C341.112 260.856 340.5 261.06 340 261.44C339.905 261.513 339.827 261.607 339.774 261.714C339.721 261.822 339.693 261.94 339.693 262.06C339.693 262.18 339.721 262.298 339.774 262.406C339.827 262.514 339.905 262.607 340 262.68C340.44 263.06 341.52 263.46 341.76 263.8C340.807 264.435 339.771 264.933 338.68 265.28V265.36ZM362.94 251.52C362.12 254.86 344.12 262.92 342.84 263.52C342.62 262.74 341.36 262.36 340.84 261.98C341.4 261.68 342.52 261.8 342.74 261.1C342.96 260.4 341.4 259.24 341.04 258.78C341.38 258.46 342.6 257.88 342.06 256.78C341.814 256.367 341.444 256.041 341.002 255.851C340.56 255.66 340.069 255.615 339.6 255.72H339.3C339.74 255.16 340.46 254.44 339.8 253.96C339.14 253.48 338.7 253.96 338.36 253.3C340.26 253.54 341.82 253.8 343.02 254.06C343.06 254.066 343.101 254.063 343.139 254.052C343.178 254.04 343.214 254.02 343.244 253.994C343.275 253.967 343.299 253.934 343.316 253.897C343.332 253.861 343.34 253.821 343.34 253.78C343.34 254.58 342.78 249.16 345.62 248.52C346.888 248.386 348.17 248.566 349.352 249.044C350.534 249.522 351.581 250.283 352.4 251.26C352.447 251.319 352.509 251.363 352.58 251.387C352.651 251.412 352.727 251.417 352.8 251.4C353.54 251.26 359.68 250 362.14 250.9C362.42 250.88 363 251.16 362.94 251.44V251.52Z" fill="black"/>
</svg>
