<svg width="24" height="24" viewBox="0 0 24 24" fill="none" xmlns="http://www.w3.org/2000/svg">
<path d="M2.23903 20.0292L1.53188 19.7793L1.53188 19.7793L2.23903 20.0292ZM3.77027 21.5605L4.02015 22.2676L4.02015 22.2676L3.77027 21.5605ZM7.15817 20.7518L6.79451 21.4077L7.15817 20.7518ZM3.10104 16.5662L3.76804 16.2233L3.10104 16.5662ZM3.16731 17.4022L3.87446 17.6521L3.16731 17.4022ZM2.75 12C2.75 6.89137 6.89137 2.75 12 2.75V1.25C6.06294 1.25 1.25 6.06294 1.25 12H2.75ZM3.76804 16.2233C3.11751 14.9581 2.75 13.523 2.75 12H1.25C1.25 13.7671 1.67697 15.4367 2.43404 16.9092L3.76804 16.2233ZM2.94618 20.2791L3.87446 17.6521L2.46016 17.1523L1.53188 19.7793L2.94618 20.2791ZM3.52039 20.8533C3.16372 20.9793 2.82014 20.6358 2.94618 20.2791L1.53188 19.7793C0.985728 21.3249 2.47455 22.8138 4.02015 22.2676L3.52039 20.8533ZM6.04298 19.9619L3.52039 20.8533L4.02015 22.2676L6.54274 21.3762L6.04298 19.9619ZM12 21.25C10.3739 21.25 8.84798 20.8311 7.52184 20.0958L6.79451 21.4077C8.33751 22.2632 10.113 22.75 12 22.75V21.25ZM21.25 12C21.25 17.1086 17.1086 21.25 12 21.25V22.75C17.9371 22.75 22.75 17.9371 22.75 12H21.25ZM12 2.75C17.1086 2.75 21.25 6.89137 21.25 12H22.75C22.75 6.06294 17.9371 1.25 12 1.25V2.75ZM6.54274 21.3762C6.60823 21.3531 6.7001 21.3554 6.79451 21.4077L7.52184 20.0958C7.08623 19.8543 6.54889 19.7832 6.04298 19.9619L6.54274 21.3762ZM2.43404 16.9092C2.4814 17.0013 2.48243 17.0893 2.46016 17.1523L3.87446 17.6521C4.04633 17.1657 3.98714 16.6494 3.76804 16.2233L2.43404 16.9092Z" fill="#2B3F6C"/>
<circle cx="7.04999" cy="12.0498" r="1.25" fill="#2B3F6C"/>
<circle cx="12.05" cy="12.0498" r="1.25" fill="#2B3F6C"/>
<circle cx="17.05" cy="12.0498" r="1.25" fill="#2B3F6C"/>
</svg>
