<svg width="22" height="22" viewBox="0 0 22 22" fill="none" xmlns="http://www.w3.org/2000/svg">
<path fill-rule="evenodd" clip-rule="evenodd" d="M18.6719 0.636797C20.2858 0.425723 21.6158 1.75571 21.4047 3.36958C21.0962 5.72859 20.2491 9.73607 17.8536 12.3189C17.0914 13.1407 16.1707 13.9 15.2239 14.5747L15.5006 16.5111C15.5785 17.0564 15.3951 17.6066 15.0056 17.996L11.8236 21.178C10.8039 22.1977 9.05771 21.6157 8.85377 20.1881L8.42951 17.2182L8.43078 17.218C8.15983 17.0869 7.90859 16.9095 7.68971 16.6906L5.35086 14.3518C5.13197 14.1329 4.95458 13.8816 4.82343 13.6107L4.82324 13.612L1.85339 13.1877C0.425809 12.9838 -0.15626 11.2376 0.863445 10.2179L4.04543 7.03591C4.43492 6.64642 4.98506 6.46304 5.53035 6.54094L7.46681 6.81757C8.14146 5.87079 8.90077 4.95014 9.72258 4.18794C12.3054 1.79243 16.3129 0.945324 18.6719 0.636797ZM3.33834 14.4605C3.63123 14.7534 3.63123 15.2283 3.33834 15.5212L1.92413 16.9354C1.63123 17.2283 1.15636 17.2283 0.863466 16.9354C0.570573 16.6425 0.570573 16.1676 0.863466 15.8747L2.27768 14.4605C2.57057 14.1676 3.04545 14.1676 3.33834 14.4605ZM5.45966 16.5818C5.75255 16.8747 5.75255 17.3496 5.45966 17.6425L2.63123 20.4709C2.33834 20.7638 1.86347 20.7638 1.57057 20.4709C1.27768 20.178 1.27768 19.7032 1.57057 19.4103L4.399 16.5818C4.69189 16.2889 5.16677 16.2889 5.45966 16.5818ZM7.58098 18.7032C7.87387 18.996 7.87387 19.4709 7.58098 19.7638L6.16677 21.178C5.87387 21.4709 5.399 21.4709 5.10611 21.178C4.81321 20.8851 4.81321 20.4103 5.10611 20.1174L6.52032 18.7032C6.81321 18.4103 7.28809 18.4103 7.58098 18.7032ZM12.7072 9.3339C11.9261 8.55285 11.9261 7.28652 12.7072 6.50547C13.4882 5.72442 14.7546 5.72442 15.5356 6.50547C16.3167 7.28652 16.3167 8.55285 15.5356 9.3339C14.7546 10.1149 13.4882 10.1149 12.7072 9.3339Z" fill="white"/>
</svg>
